<?xml version="1.0" encoding="UTF-8" standalone="no"?>
<!DOCTYPE svg PUBLIC "-//W3C//DTD SVG 1.1//EN" "http://www.w3.org/Graphics/SVG/1.1/DTD/svg11.dtd">
<svg width="100%" height="100%" viewBox="0 0 59 73" version="1.1" xmlns="http://www.w3.org/2000/svg" xmlns:xlink="http://www.w3.org/1999/xlink" xml:space="preserve" xmlns:serif="http://www.serif.com/" style="fill-rule:evenodd;clip-rule:evenodd;stroke-linejoin:round;stroke-miterlimit:2;">
    <g transform="matrix(1,0,0,1,-10098,-8245)">
        <g transform="matrix(4.16667,0,0,4.16667,8789.06,6949.92)">
            <g transform="matrix(1,0,0,1,326.883,328.128)">
                <path d="M0,-13.359C-0.238,-13.392 -0.458,-13.226 -0.491,-12.988L-2.038,-1.867C-2.116,-1.309 -2.577,-0.838 -3.047,-0.838L-8.393,-0.838C-8.862,-0.838 -9.324,-1.309 -9.401,-1.867L-10.948,-12.988C-10.981,-13.226 -11.201,-13.392 -11.439,-13.359C-11.678,-13.326 -11.844,-13.106 -11.811,-12.868L-10.264,-1.747C-10.199,-1.278 -9.975,-0.837 -9.633,-0.503C-9.279,-0.157 -8.838,0.033 -8.393,0.033L-3.047,0.033C-2.601,0.033 -2.161,-0.157 -1.806,-0.503C-1.464,-0.837 -1.24,-1.278 -1.175,-1.747L0.371,-12.868C0.404,-13.106 0.238,-13.326 0,-13.359" style="fill:rgb(255,0,0);fill-rule:nonzero;"/>
            </g>
            <g transform="matrix(1,0,0,1,319.537,316.241)">
                <path d="M0,9.839C0.008,9.839 0.016,9.839 0.023,9.838C0.264,9.826 0.448,9.621 0.435,9.38L-0.039,0.424C-0.052,0.184 -0.257,0 -0.497,0.013C-0.737,0.025 -0.922,0.23 -0.909,0.47L-0.435,9.427C-0.422,9.659 -0.23,9.839 0,9.839" style="fill:rgb(255,0,0);fill-rule:nonzero;"/>
            </g>
            <g transform="matrix(1,0,0,1,322.79,316.241)">
                <path d="M0,9.839C0.23,9.839 0.422,9.659 0.435,9.427L0.909,0.47C0.922,0.23 0.737,0.025 0.497,0.013C0.257,0 0.052,0.184 0.039,0.424L-0.435,9.38C-0.448,9.621 -0.264,9.826 -0.023,9.838C-0.016,9.839 -0.008,9.839 0,9.839" style="fill:rgb(255,0,0);fill-rule:nonzero;"/>
            </g>
            <g transform="matrix(1,0,0,1,319.978,312.621)">
                <path d="M0,-0.14C0,-0.486 0.377,-0.778 0.823,-0.778L1.548,-0.778C1.994,-0.778 2.371,-0.486 2.371,-0.14L2.371,0.638L0,0.638L0,-0.14ZM7.747,0.638L3.242,0.638L3.242,-0.14C3.242,-0.972 2.482,-1.649 1.548,-1.649L0.823,-1.649C-0.111,-1.649 -0.871,-0.972 -0.871,-0.14L-0.871,0.638L-5.376,0.638C-5.617,0.638 -5.812,0.833 -5.812,1.073C-5.812,1.314 -5.617,1.509 -5.376,1.509L7.747,1.509C7.988,1.509 8.183,1.314 8.183,1.073C8.183,0.833 7.988,0.638 7.747,0.638" style="fill:rgb(255,0,0);fill-rule:nonzero;"/>
            </g>
        </g>
    </g>
</svg>
