<?xml version="1.0" encoding="UTF-8" standalone="no"?>
<!DOCTYPE svg PUBLIC "-//W3C//DTD SVG 1.1//EN" "http://www.w3.org/Graphics/SVG/1.1/DTD/svg11.dtd">
<svg width="100%" height="100%" viewBox="0 0 280 282" version="1.1" xmlns="http://www.w3.org/2000/svg" xmlns:xlink="http://www.w3.org/1999/xlink" xml:space="preserve" xmlns:serif="http://www.serif.com/" style="fill-rule:evenodd;clip-rule:evenodd;stroke-linejoin:round;stroke-miterlimit:2;">
    <g transform="matrix(1,0,0,1,-2985,-22908)">
        <g transform="matrix(8.33333,0,0,8.33333,2560.34,15311.4)">
            <g transform="matrix(1,0,0,1,84.5359,927.586)">
                <path d="M0,2.679C-0.013,3.647 -0.247,4.577 -0.391,5.519C-0.506,6.264 -0.728,7.02 -1.138,7.689C-1.203,7.795 -1.197,7.943 -1.238,8.067C-1.27,8.166 -1.324,8.259 -1.368,8.355C-1.403,8.355 -1.439,8.355 -1.474,8.354C-1.525,8.145 -1.576,7.936 -1.631,7.712C-1.674,7.738 -1.733,7.752 -1.747,7.785C-2.006,8.371 -2.223,8.979 -2.52,9.544C-3.34,11.104 -4.416,12.481 -5.715,13.664C-6.961,14.799 -8.338,15.772 -9.863,16.501C-10.931,17.012 -12.045,17.427 -13.228,17.59C-14.041,17.702 -14.86,17.785 -15.684,17.707C-15.743,17.702 -15.798,17.661 -15.875,17.628C-15.794,17.424 -15.636,17.443 -15.499,17.451C-14.965,17.481 -14.46,17.401 -13.958,17.196C-13.565,17.035 -13.126,16.99 -12.723,16.85C-11.282,16.349 -9.851,15.812 -8.567,14.97C-7.963,14.574 -7.407,14.101 -6.841,13.648C-6.533,13.401 -6.256,13.116 -5.952,12.864C-5.718,12.669 -5.584,12.454 -5.719,12.14C-5.384,11.918 -5.115,11.693 -4.981,11.299C-4.888,11.025 -4.617,10.809 -4.416,10.574C-4.176,10.292 -4.078,9.912 -3.852,9.647C-3.628,9.385 -3.692,8.98 -3.36,8.805C-3.347,8.798 -3.329,8.776 -3.332,8.766C-3.412,8.428 -3.181,8.189 -3.072,7.908C-2.906,7.482 -2.774,7.044 -2.626,6.611C-2.584,6.487 -2.512,6.365 -2.501,6.239C-2.41,5.189 -2.072,4.17 -2.105,3.105C-2.107,3.023 -2.106,2.933 -2.074,2.86C-1.847,2.33 -2.045,1.856 -2.276,1.395C-2.39,1.167 -2.427,0.973 -2.393,0.701C-2.35,0.35 -2.486,-0.024 -2.631,-0.402C-2.657,-0.29 -2.708,-0.177 -2.704,-0.066C-2.687,0.346 -2.656,0.757 -2.622,1.168C-2.614,1.265 -2.588,1.369 -2.539,1.451C-2.406,1.675 -2.445,1.886 -2.525,2.115C-2.583,2.283 -2.624,2.47 -2.618,2.647C-2.58,3.701 -2.821,4.72 -3.077,5.723C-3.474,7.276 -4.127,8.724 -5.054,10.048C-6.217,11.709 -7.67,13.063 -9.389,14.116C-9.466,14.163 -9.544,14.208 -9.622,14.253C-10.018,14.552 -10.433,14.827 -10.869,15.078C-11.44,15.407 -12.039,15.698 -12.649,15.954C-13.274,16.215 -13.917,16.446 -14.572,16.625C-15.134,16.778 -15.719,16.882 -16.3,16.928C-17.156,16.995 -18.018,17.027 -18.876,17.008C-19.645,16.991 -20.421,16.98 -21.172,16.753C-21.621,16.617 -22.097,16.561 -22.544,16.422C-23.059,16.261 -23.569,16.074 -24.056,15.848C-24.608,15.592 -25.139,15.293 -25.665,14.99C-26.365,14.586 -27.023,14.125 -27.621,13.589C-27.98,13.268 -28.328,12.937 -28.659,12.593C-28.752,12.512 -28.844,12.431 -28.934,12.347C-29.882,11.463 -30.749,10.507 -31.419,9.394C-31.741,8.86 -31.992,8.279 -32.245,7.706C-32.476,7.181 -32.701,6.648 -32.863,6.099C-33.018,5.574 -33.095,5.025 -33.191,4.484C-33.257,4.115 -33.314,3.743 -33.346,3.37C-33.358,3.225 -33.364,3.079 -33.366,2.934C-33.485,2.321 -33.595,1.707 -33.542,1.076C-33.506,0.649 -33.46,0.223 -33.395,-0.2C-33.272,-0.996 -33.273,-1.796 -33.101,-2.583C-32.996,-3.061 -32.806,-3.524 -32.617,-3.978C-32.328,-4.672 -32.042,-5.372 -31.69,-6.034C-31.32,-6.728 -30.896,-7.397 -30.455,-8.049C-29.637,-9.26 -28.604,-10.28 -27.489,-11.216C-26.705,-11.874 -25.863,-12.458 -24.951,-12.92C-24.087,-13.357 -23.212,-13.797 -22.298,-14.107C-21.259,-14.46 -20.181,-14.693 -19.09,-14.874C-17.687,-15.106 -16.287,-15.073 -14.891,-14.951C-14.11,-14.882 -13.338,-14.668 -12.573,-14.474C-11.825,-14.284 -11.067,-14.095 -10.359,-13.797C-9.33,-13.363 -8.329,-12.858 -7.389,-12.239C-6.141,-11.417 -5.024,-10.437 -4.026,-9.34C-3.176,-8.405 -2.391,-7.403 -1.83,-6.25C-1.69,-5.963 -1.474,-5.71 -1.357,-5.415C-1.257,-5.166 -1.209,-4.91 -1.039,-4.678C-0.96,-4.57 -1.089,-4.312 -1.131,-4.079C-1.018,-4.097 -0.909,-4.114 -0.792,-4.133C-0.773,-4.086 -0.728,-4.032 -0.74,-4C-1.022,-3.279 -0.6,-2.656 -0.469,-1.993C-0.45,-1.896 -0.401,-1.805 -0.384,-1.709C-0.128,-0.257 0.02,1.2 0,2.679" style="fill:rgb(140,12,12);fill-rule:nonzero;"/>
            </g>
            <g transform="matrix(1,0,0,1,61.6957,933.782)">
                <path d="M0,-15.762C-0.024,-15.754 -0.039,-15.737 -0.038,-15.705C0.06,-15.149 0.074,-14.489 0.038,-13.852C0.446,-14.129 0.955,-14.484 1.414,-14.788C1.524,-14.861 1.825,-15.01 1.872,-15.112C1.953,-15.287 1.865,-15.534 1.91,-15.724C1.263,-15.722 0.683,-15.702 0,-15.762M4.642,-15.877C4.235,-15.673 3.869,-15.485 3.515,-15.227C3.343,-15.102 3.172,-14.973 2.999,-14.845C2.83,-14.72 2.693,-14.538 2.522,-14.425C2.253,-14.247 1.962,-14.103 1.7,-13.928C0.374,-13.04 -0.851,-12.012 -2.101,-11.063C-2.548,-10.724 -3.023,-10.408 -3.438,-10.069C-3.478,-10.037 -3.567,-9.987 -3.553,-9.917C-2.32,-9.988 -1.105,-10.199 0.153,-10.318C1.846,-10.478 3.615,-10.413 5.291,-10.413C6.396,-10.413 7.396,-10.464 8.443,-10.413C9.101,-10.382 9.758,-10.378 10.411,-10.318C11.683,-10.201 12.913,-9.985 14.155,-9.917C13.543,-10.466 12.838,-10.927 12.168,-11.445C11.506,-11.957 10.86,-12.498 10.182,-13.011C9.516,-13.515 8.774,-13.956 8.08,-14.463C7.554,-14.847 7.068,-15.26 6.533,-15.59C6.342,-15.708 6.132,-15.769 5.922,-15.877C5.708,-15.986 5.466,-16.235 5.253,-16.278C5.067,-16.152 4.859,-15.985 4.642,-15.877M13.372,-9.133C13.332,-7.744 13.353,-6.227 13.372,-5.179C13.405,-3.335 13.326,-1.468 13.372,0.437C13.384,0.931 13.382,1.366 12.952,1.373C12.366,1.382 12.48,0.562 12.493,-0.079C12.514,-1.122 12.512,-2.215 12.512,-3.746C12.512,-5.787 12.519,-7.352 12.531,-9.191C10.765,-9.391 8.964,-9.373 7.087,-9.477C6.497,-9.51 5.898,-9.564 5.311,-9.573C4.716,-9.582 4.101,-9.511 3.496,-9.477C1.654,-9.375 -0.164,-9.393 -1.929,-9.191C-1.95,-7.336 -1.929,-5.524 -1.929,-3.498C-1.929,-1.929 -1.942,-0.839 -1.929,0.284C-1.924,0.79 -1.823,1.364 -2.35,1.373C-2.937,1.384 -2.789,0.64 -2.789,-0.002C-2.789,-2.219 -2.77,-4.642 -2.77,-6.459L-2.77,-9.133C-3.299,-9.088 -3.97,-9.089 -4.527,-9C-4.884,-8.942 -5.333,-8.874 -5.349,-9.324C-5.357,-9.567 -5.082,-9.752 -4.89,-9.936C-3.637,-11.139 -1.956,-12.128 -0.726,-13.26C-0.867,-13.756 -0.765,-14.54 -0.841,-15.189C-0.885,-15.575 -1.056,-16.318 -0.764,-16.526C-0.585,-16.654 0.194,-16.657 0.516,-16.622C0.966,-16.572 1.484,-16.566 1.853,-16.602C2.188,-16.636 2.532,-16.787 2.732,-16.507C2.838,-16.358 2.831,-16.058 2.808,-15.838C2.995,-15.873 3.136,-16.051 3.324,-16.182C3.664,-16.42 4.083,-16.578 4.489,-16.794C4.708,-16.909 4.844,-17.146 5.12,-17.137C5.194,-17.135 5.478,-17.146 5.597,-17.118C5.772,-17.078 5.929,-16.881 6.094,-16.794C6.344,-16.661 6.591,-16.558 6.82,-16.431C7.495,-16.054 8.066,-15.553 8.711,-15.093C9.52,-14.517 10.364,-13.984 11.232,-13.298C12.004,-12.688 12.82,-12.03 13.658,-11.407C14.249,-10.968 14.87,-10.5 15.454,-9.955C15.648,-9.774 15.923,-9.557 15.932,-9.363C15.959,-8.702 15.048,-9.012 14.537,-9.057C14.09,-9.096 13.665,-9.119 13.372,-9.133" style="fill:white;"/>
            </g>
            <g transform="matrix(1,0,0,1,62.0586,931.555)">
                <path d="M0,-4.213C0.129,-2.859 0.273,-1.354 0.382,0.085C1.357,-0.051 2.363,-0.083 3.343,-0.182C3.237,-1.496 3.125,-2.97 2.961,-4.289C2.017,-4.297 0.996,-4.217 0,-4.213M2.464,-5.168C2.576,-5.173 2.907,-5.221 3.095,-5.187C3.205,-5.167 3.329,-5.057 3.438,-4.996C3.799,-4.796 3.791,-4.684 3.84,-4.137C3.899,-3.462 3.966,-2.817 4.05,-2.15C4.088,-1.846 4.107,-1.265 4.164,-0.794C4.211,-0.407 4.339,0.235 4.164,0.467C3.959,0.739 3.574,0.696 3.114,0.715C2.401,0.746 1.507,0.827 0.745,0.907C0.471,0.935 0.163,1.008 -0.038,0.964C-0.191,0.93 -0.468,0.633 -0.516,0.467C-0.561,0.308 -0.532,0.07 -0.554,-0.163C-0.617,-0.832 -0.623,-1.534 -0.669,-2.169C-0.714,-2.791 -0.828,-3.426 -0.86,-4.098C-0.882,-4.571 -0.93,-5.039 -0.535,-5.111C-0.399,-5.136 -0.269,-5.061 -0.134,-5.054C0.261,-5.031 0.714,-5.09 1.146,-5.111C1.596,-5.132 2.017,-5.147 2.464,-5.168" style="fill:white;"/>
            </g>
            <g transform="matrix(1,0,0,1,70.7313,930.407)">
                <path d="M0,4.442C-0.647,4.44 -1.405,4.383 -2.063,4.327C-2.009,2.56 -1.924,0.866 -2.082,-0.754C-1.429,-0.75 -0.52,-0.609 0.248,-0.658C0.051,0.964 0.154,2.781 0,4.442M0.917,4.518C1.055,2.861 0.895,0.949 1.146,-0.658C1.183,-0.895 1.246,-1.182 1.165,-1.346C0.968,-1.745 0.042,-1.506 -0.478,-1.518C-1.059,-1.532 -1.571,-1.677 -2.178,-1.594C-2.34,-1.573 -2.706,-1.502 -2.808,-1.365C-2.995,-1.114 -2.87,-0.409 -2.846,-0.009C-2.816,0.504 -2.77,0.984 -2.77,1.424C-2.77,2.525 -2.895,3.446 -2.904,4.327C-5.666,4.317 -8.182,4.429 -10.659,4.767C-11.764,4.917 -12.959,5.089 -14.106,5.303C-13.942,5.551 -13.785,5.805 -13.627,6.058C-12.463,5.856 -11.251,5.683 -10.124,5.55C-7.85,5.28 -5.436,5.107 -2.904,5.168C-2.746,5.172 -2.597,5.223 -2.445,5.225C-2.336,5.227 -2.219,5.186 -2.063,5.187C-1.059,5.194 -0.002,5.287 1.051,5.378C2.046,5.464 3.076,5.586 4.011,5.722C4.893,5.85 5.916,6.003 6.886,6.187C6.995,5.934 7.113,5.685 7.229,5.434C5.175,5.003 3.147,4.751 0.917,4.518" style="fill:white;"/>
            </g>
            <g transform="matrix(1,0,0,1,70.0681,940.49)">
                <path d="M0,-25.984C-1.636,-26.397 -3.311,-26.469 -4.961,-26.223C-8.114,-25.752 -10.734,-24.215 -12.933,-21.935C-13.481,-21.366 -14.108,-20.85 -14.547,-20.206C-15.843,-18.3 -16.435,-16.139 -16.619,-13.857C-16.636,-13.642 -16.675,-13.43 -16.703,-13.216C-16.756,-13.222 -16.809,-13.228 -16.862,-13.233C-16.863,-13.328 -16.865,-13.422 -16.864,-13.517C-16.849,-14.823 -16.693,-16.111 -16.231,-17.337C-15.75,-18.612 -15.345,-19.941 -14.674,-21.113C-13.431,-23.282 -11.495,-24.801 -9.323,-25.962C-8.806,-26.239 -8.278,-26.478 -7.739,-26.68C-7.775,-26.66 -7.812,-26.64 -7.848,-26.62C-7.828,-26.571 -7.807,-26.522 -7.787,-26.472C-7.263,-26.608 -6.741,-26.748 -6.216,-26.878C-4.718,-27.251 -3.192,-27.466 -1.654,-27.325C-0.098,-27.182 1.386,-26.795 2.778,-26.128C2.682,-26.121 2.578,-26.081 2.465,-25.981C2.706,-25.812 2.913,-25.66 3.127,-25.518C4.528,-24.59 5.774,-23.49 6.828,-22.178C6.977,-21.993 7.225,-21.792 7.224,-21.6C7.22,-21.007 7.639,-20.655 7.885,-20.205C8.19,-19.647 8.535,-19.104 8.769,-18.517C10.156,-15.04 10.468,-11.548 8.865,-8.034C8.389,-6.991 7.864,-5.985 7.057,-5.161C6.485,-4.578 5.877,-4.028 5.268,-3.482C4.934,-3.182 4.584,-2.894 4.21,-2.647C4.136,-2.597 4.061,-2.549 3.985,-2.502C3.931,-2.476 3.877,-2.449 3.822,-2.424C2.568,-1.855 1.29,-1.361 -0.072,-1.101C-2.948,-0.554 -5.704,-0.734 -8.24,-2.364C-8.505,-2.534 -8.766,-2.736 -9.163,-2.6C-8.9,-2.391 -8.638,-2.181 -8.375,-1.972C-9.182,-2.368 -9.951,-2.85 -10.666,-3.414C-12.986,-5.247 -14.692,-7.576 -15.383,-10.48C-16.318,-14.413 -15.423,-18.011 -12.93,-21.168C-9.784,-25.151 -4.701,-26.865 0.399,-25.58C0.55,-25.542 0.713,-25.552 0.87,-25.54C0.58,-25.735 0.302,-25.908 0,-25.984M-3.894,-28.788C-3.977,-28.785 -4.059,-28.712 -4.21,-28.638C-4.056,-28.589 -3.981,-28.575 -3.915,-28.542C-3.848,-28.509 -3.791,-28.457 -3.627,-28.34C-5.191,-28.16 -6.614,-27.986 -7.96,-27.359C-7.947,-27.335 -7.933,-27.314 -7.919,-27.294C-9.894,-26.657 -11.717,-25.667 -13.275,-24.196C-15.416,-22.174 -17.225,-19.914 -17.937,-16.957C-18.85,-13.16 -18.552,-9.485 -16.779,-5.979C-14.788,-2.042 -11.639,0.582 -7.471,1.947C-4.389,2.956 -1.255,2.944 1.849,2.02C5.021,1.077 7.796,-0.579 9.867,-3.176C13.152,-7.294 14.119,-11.982 12.815,-17.094C12.101,-19.894 10.752,-22.305 8.429,-24.057C5.095,-27.507 0.9,-28.94 -3.894,-28.788" style="fill:rgb(185,23,18);fill-rule:nonzero;"/>
            </g>
            <g transform="matrix(1,0,0,1,58.8095,915.954)">
                <path d="M0,23.421C2.521,25.16 5.324,26.199 8.396,26.185C13.27,26.164 17.208,24.141 20.136,20.237C21.739,18.098 22.695,15.728 22.61,13.037C22.864,11.013 22.687,9.11 22.161,7.312C22.096,7.258 22.025,7.207 21.9,7.185C21.921,7.487 21.933,7.751 21.957,8.013C22.116,9.733 22.038,11.44 21.668,13.129C21.615,13.368 21.615,13.696 21.46,13.819C20.983,14.198 20.971,14.76 20.769,15.247C20.519,15.85 20.307,16.477 19.987,17.043C18.097,20.394 15.502,22.895 11.655,23.876C10.513,24.167 9.369,24.395 8.189,24.279C7.354,24.197 6.522,24.065 5.692,23.93C5.237,23.855 4.78,23.761 4.342,23.621C4.254,23.593 4.167,23.564 4.081,23.534C4.025,23.507 3.969,23.482 3.913,23.453C2.649,22.816 1.43,22.111 0.345,21.188C-1.947,19.238 -3.579,16.915 -3.908,13.834C-3.943,13.513 -3.95,13.173 -4.314,12.943C-4.312,13.288 -4.311,13.633 -4.31,13.978C-4.512,13.078 -4.622,12.151 -4.631,11.215C-4.659,8.176 -3.893,5.309 -2.013,2.884C0.533,-0.399 3.991,-2.002 8.125,-2.04C8.264,-2.041 8.397,-2.017 8.535,-2.014C9.004,-2.016 9.471,-1.986 9.933,-1.926C10.015,-1.916 10.095,-1.904 10.176,-1.892C10.643,-1.821 11.105,-1.723 11.564,-1.599C11.819,-1.533 12.07,-1.455 12.32,-1.373C12.697,-1.249 13.071,-1.11 13.441,-0.959C13.541,-0.916 13.643,-0.879 13.741,-0.834C14.22,-0.627 14.681,-0.397 15.122,-0.136C15.086,-0.151 15.051,-0.166 15.015,-0.18C15.01,-0.169 15.004,-0.159 14.998,-0.148C17.224,1.203 19.068,3.221 20.248,5.789C20.315,5.934 20.428,6.058 20.519,6.192C20.489,5.834 20.448,5.501 20.314,5.209C19.591,3.634 18.569,2.246 17.308,1.083C14.9,-1.138 11.98,-2.245 8.737,-2.536C7.929,-2.609 7.111,-2.778 6.313,-2.714C3.951,-2.524 1.84,-1.605 -0.107,-0.282C-0.289,-0.157 -0.484,-0.051 -0.674,0.064C-0.698,0.026 -0.722,-0.012 -0.746,-0.049C-2.578,1.354 -4.034,3.133 -5.041,5.357C-6.723,9.075 -6.787,12.867 -5.353,16.663C-4.293,19.468 -2.466,21.72 0,23.421" style="fill:white;fill-rule:nonzero;"/>
            </g>
        </g>
    </g>
</svg>
