<?xml version="1.0" encoding="UTF-8" standalone="no"?>
<!DOCTYPE svg PUBLIC "-//W3C//DTD SVG 1.1//EN" "http://www.w3.org/Graphics/SVG/1.1/DTD/svg11.dtd">
<svg width="100%" height="100%" viewBox="0 0 193 533" version="1.1" xmlns="http://www.w3.org/2000/svg" xmlns:xlink="http://www.w3.org/1999/xlink" xml:space="preserve" xmlns:serif="http://www.serif.com/" style="fill-rule:evenodd;clip-rule:evenodd;">
    <g transform="matrix(1,0,0,1,-19285,-18866)">
        <g transform="matrix(8.33333,0,0,8.33333,17850.6,15127)">
            <g transform="matrix(1,0,0,1,191.911,490.859)">
                <path d="M0,-12.33C-1.204,-15.351 -2.817,-27.668 -3.303,-31.539C-3.353,-31.934 -3.575,-32.268 -3.885,-32.477C-3.685,-32.637 -3.553,-32.88 -3.553,-33.156C-3.552,-33.637 -3.942,-34.028 -4.423,-34.029L-11.817,-34.039C-12.299,-34.039 -12.689,-33.65 -12.69,-33.168C-12.69,-32.892 -12.56,-32.649 -12.36,-32.489C-12.671,-32.28 -12.893,-31.947 -12.944,-31.551C-13.441,-27.683 -15.087,-15.369 -16.299,-12.352C-17.742,-8.759 -19.662,-7.203 -19.665,-4.806C-19.668,-2.41 -19.695,17.844 -19.695,17.844C-19.695,17.844 -19.101,21.68 -15.027,21.685C-12.554,21.689 -10.303,21.692 -8.914,21.694C-8.014,21.695 -7.477,21.695 -7.477,21.695C-6.088,21.697 -3.836,21.7 -1.364,21.704C2.711,21.709 3.315,17.875 3.315,17.875C3.315,17.875 3.342,-2.379 3.345,-4.775C3.349,-7.172 1.433,-8.733 0,-12.33" style="fill:rgb(232,0,24);fill-rule:nonzero;"/>
            </g>
            <g transform="matrix(1,0,0,1,190.356,486.232)">
                <path d="M0,19.325L-13.261,19.307C-14.905,19.305 -16.235,17.971 -16.233,16.328L-16.215,2.972C-16.213,1.328 -14.879,-0.002 -13.235,0L0.026,0.018C1.669,0.02 3,1.354 2.997,2.997L2.979,16.354C2.977,17.997 1.643,19.327 0,19.325" style="fill:white;fill-rule:nonzero;"/>
            </g>
            <g transform="matrix(1,0,0,1,188.483,448.723)">
                <path d="M0,8.652L-9.387,8.639C-9.612,8.639 -9.788,8.476 -9.767,8.287L-8.897,0.293C-8.878,0.127 -8.713,0 -8.516,0L-0.848,0.011C-0.651,0.011 -0.486,0.138 -0.468,0.305L0.381,8.3C0.401,8.49 0.225,8.652 0,8.652" style="fill:rgb(178,178,178);fill-rule:nonzero;"/>
            </g>
            <g transform="matrix(1,0,0,1,189.324,505.298)">
                <path d="M0,0.925C0.166,0.631 0.257,0.286 0.236,-0.024C0.2,-0.568 -0.133,-0.941 -0.645,-1.03L-0.547,-1.049C0.117,-1.173 0.26,-1.914 0.241,-2.287C0.241,-2.287 0.237,-2.448 0.227,-2.491L-1.032,-2.262C-1.11,-2.247 -1.188,-2.223 -1.266,-2.192C-1.265,-2.194 -1.264,-2.195 -1.262,-2.198C-1.217,-2.272 -1.174,-2.356 -1.132,-2.437C-1.042,-2.611 -0.896,-2.98 -0.574,-3.144C-0.769,-3.255 -1.086,-3.357 -1.505,-3.285C-2.028,-3.195 -2.432,-2.822 -2.596,-2.472C-2.716,-2.215 -2.689,-2.016 -2.643,-1.889C-2.757,-1.914 -2.883,-1.916 -3.016,-1.891L-3.039,-1.886C-3.259,-1.841 -3.442,-1.747 -3.584,-1.61C-3.585,-1.608 -3.587,-1.607 -3.588,-1.605C-3.591,-1.602 -3.594,-1.6 -3.596,-1.596C-3.609,-1.612 -3.624,-1.628 -3.64,-1.64C-3.721,-1.71 -3.835,-1.737 -3.957,-1.714C-3.957,-1.714 -4.816,-1.55 -4.839,-1.547C-4.96,-1.522 -5.204,-1.472 -5.441,-1.321C-5.566,-1.416 -5.799,-1.367 -5.799,-1.367L-6.147,-1.301C-6.162,-1.301 -6.176,-1.297 -6.19,-1.293L-6.565,-1.228L-6.563,-0.375C-6.649,-0.527 -6.754,-0.658 -6.88,-0.762C-7.131,-0.972 -7.444,-1.055 -7.76,-0.996C-7.999,-0.951 -8.222,-0.833 -8.416,-0.659C-8.328,-0.85 -8.067,-1.422 -8.067,-1.422L-8.094,-1.417L-9.44,-1.179C-9.441,-1.178 -9.442,-1.178 -9.443,-1.178C-9.445,-1.177 -9.446,-1.177 -9.446,-1.177C-9.467,-1.173 -9.487,-1.168 -9.507,-1.161L-9.526,-1.153C-9.649,-1.104 -9.753,-1.001 -9.809,-0.87C-9.814,-0.86 -9.819,-0.85 -9.822,-0.839L-10.042,-0.177L-10.044,-1.021L-10.044,-1.062L-10.083,-1.054L-11.118,-0.863C-11.119,-0.863 -11.121,-0.863 -11.122,-0.862C-11.339,-0.819 -11.515,-0.598 -11.518,-0.369C-11.518,-0.366 -11.519,-0.362 -11.519,-0.358L-11.508,4.282L-10.032,4.006L-10.035,2.583L-9.62,3.476C-9.618,3.48 -9.446,3.923 -8.831,3.789L-7.616,3.556C-7.314,3.702 -7.003,3.754 -6.657,3.753C-6.511,3.753 -6.363,3.741 -6.213,3.721C-6.195,3.719 -6.177,3.717 -6.158,3.714C-6.137,3.711 -6.115,3.708 -6.093,3.704C-6.041,3.696 -5.988,3.687 -5.934,3.677L-5.933,3.677C-5.203,3.54 -4.435,3.214 -3.758,2.926C-3.544,2.835 -3.341,2.749 -3.147,2.671C-2.999,2.613 -2.851,2.564 -2.702,2.523C-2.152,2.379 -1.691,2.379 -1.375,2.414C-0.935,2.462 -0.671,2.583 -0.664,2.587C-0.329,2.725 -0.227,2.831 -0.227,2.831C-0.252,2.639 -0.332,2.483 -0.37,2.412C-0.422,2.314 -0.581,2.004 -1.137,1.703C-1.061,1.699 -0.986,1.687 -0.913,1.665L-0.899,1.661C-0.834,1.644 -0.773,1.621 -0.713,1.594C-0.597,1.542 -0.488,1.472 -0.385,1.388C-0.323,1.513 -0.185,1.589 -0.038,1.568C-0.036,1.567 -0.025,1.565 -0.025,1.565C0.15,1.532 0.267,1.369 0.241,1.194C0.221,1.06 0.123,0.957 0,0.925" style="fill:white;fill-rule:nonzero;"/>
            </g>
            <g transform="matrix(1,0,0,1,187.913,502.856)">
                <path d="M0,0.153C0.145,-0.084 0.274,-0.439 0.487,-0.592C0.077,-0.621 -0.24,-0.226 -0.566,0.265C-0.755,0.549 -0.909,0.644 -0.955,0.671C-0.724,0.774 -0.466,0.679 -0.305,0.537C-0.182,0.429 -0.113,0.338 0,0.153" style="fill:rgb(0,121,53);fill-rule:nonzero;"/>
            </g>
            <g transform="matrix(1,0,0,1,186.905,502.119)">
                <path d="M0,1.319C0.145,1.233 0.273,1.067 0.355,0.944C0.65,0.499 0.975,0.067 1.41,0.041C1.345,0.02 1.199,-0.006 0.949,0.047C0.481,0.146 0.108,0.5 -0.017,0.778C-0.158,1.092 -0.047,1.277 -0.011,1.325L0,1.319Z" style="fill:rgb(0,121,53);fill-rule:nonzero;"/>
            </g>
            <g opacity="0.5">
                <g>
                    <clipPath id="_clip1">
                        <rect x="186.872" y="502.141" width="1.217" height="1.237" clip-rule="nonzero"/>
                    </clipPath>
                    <g clip-path="url(#_clip1)">
                        <g transform="matrix(1,0,0,1,186.912,502.16)">
                            <path d="M0,1.216C0,1.216 -0.205,0.842 0.321,0.369C0.502,0.206 0.766,0.043 1.171,0" style="fill:none;fill-rule:nonzero;"/>
                        </g>
                        <g transform="matrix(1,0,0,1,186.912,502.16)">
                            <path d="M0,1.216C0,1.216 -0.185,0.839 0.328,0.375C0.508,0.212 0.771,0.048 1.171,0" style="fill:none;fill-rule:nonzero;stroke:rgb(234,244,237);stroke-width:0.01px;"/>
                        </g>
                        <g transform="matrix(1,0,0,1,186.912,502.16)">
                            <path d="M0,1.216C0,1.216 -0.164,0.837 0.335,0.382C0.515,0.217 0.775,0.054 1.171,0" style="fill:none;fill-rule:nonzero;stroke:rgb(213,233,219);stroke-width:0.01px;"/>
                        </g>
                        <g transform="matrix(1,0,0,1,186.912,502.16)">
                            <path d="M0,1.216C0,1.216 -0.144,0.834 0.342,0.388C0.521,0.222 0.78,0.059 1.171,0" style="fill:none;fill-rule:nonzero;stroke:rgb(193,222,201);stroke-width:0.01px;"/>
                        </g>
                        <g transform="matrix(1,0,0,1,186.912,502.16)">
                            <path d="M0,1.216C0,1.216 -0.123,0.831 0.349,0.394C0.527,0.228 0.785,0.064 1.171,0" style="fill:none;fill-rule:nonzero;stroke:rgb(172,211,184);stroke-width:0.01px;"/>
                        </g>
                        <g transform="matrix(1,0,0,1,186.912,502.16)">
                            <path d="M0,1.216C0,1.216 -0.102,0.829 0.356,0.4C0.534,0.234 0.79,0.07 1.171,0" style="fill:none;fill-rule:nonzero;stroke:rgb(151,199,166);stroke-width:0.02px;"/>
                        </g>
                        <g transform="matrix(1,0,0,1,186.912,502.16)">
                            <path d="M0,1.216C0,1.216 -0.082,0.827 0.363,0.406C0.54,0.239 0.794,0.075 1.171,0" style="fill:none;fill-rule:nonzero;stroke:rgb(130,188,149);stroke-width:0.02px;"/>
                        </g>
                        <g transform="matrix(1,0,0,1,186.912,502.16)">
                            <path d="M0,1.216C0,1.216 -0.061,0.824 0.37,0.413C0.546,0.244 0.799,0.08 1.171,0" style="fill:none;fill-rule:nonzero;stroke:rgb(109,177,133);stroke-width:0.02px;"/>
                        </g>
                        <g transform="matrix(1,0,0,1,186.912,502.16)">
                            <path d="M0,1.216C0,1.216 -0.042,0.82 0.377,0.419C0.552,0.249 0.804,0.086 1.171,0" style="fill:none;fill-rule:nonzero;stroke:rgb(86,166,116);stroke-width:0.03px;"/>
                        </g>
                        <g transform="matrix(1,0,0,1,186.912,502.16)">
                            <path d="M0,1.216C0,1.216 -0.022,0.818 0.384,0.425C0.558,0.255 0.808,0.091 1.171,0" style="fill:none;fill-rule:nonzero;stroke:rgb(60,155,100);stroke-width:0.03px;"/>
                        </g>
                        <g transform="matrix(1,0,0,1,186.912,502.16)">
                            <clipPath id="_clip2">
                                <rect x="-0.016" y="-0.017" width="1.192" height="1.233" clip-rule="nonzero"/>
                            </clipPath>
                            <g clip-path="url(#_clip2)">
                                <path d="M0,1.216C0,1.216 -0.001,0.815 0.391,0.431C0.565,0.26 0.813,0.096 1.171,0" style="fill:none;fill-rule:nonzero;stroke:rgb(33,144,84);stroke-width:0.03px;"/>
                            </g>
                        </g>
                        <g transform="matrix(1,0,0,1,186.912,502.16)">
                            <clipPath id="_clip3">
                                <rect x="-0.018" y="-0.018" width="1.195" height="1.235" clip-rule="nonzero"/>
                            </clipPath>
                            <g clip-path="url(#_clip3)">
                                <path d="M0,1.216C0,1.216 0.019,0.812 0.398,0.438C0.571,0.265 0.818,0.102 1.171,0" style="fill:none;fill-rule:nonzero;stroke:rgb(8,132,68);stroke-width:0.04px;"/>
                            </g>
                        </g>
                        <g transform="matrix(1,0,0,1,186.912,502.16)">
                            <clipPath id="_clip4">
                                <rect x="-0.019" y="-0.019" width="1.196" height="1.237" clip-rule="nonzero"/>
                            </clipPath>
                            <g clip-path="url(#_clip4)">
                                <path d="M0,1.216C0,1.216 0.04,0.81 0.405,0.444C0.577,0.271 0.823,0.107 1.171,0" style="fill:none;fill-rule:nonzero;stroke:rgb(0,121,53);stroke-width:0.04px;"/>
                            </g>
                        </g>
                    </g>
                </g>
            </g>
            <g transform="matrix(1,0,0,1,186.125,505.838)">
                <path d="M0,0.701C0.012,0.678 -0.013,0.721 0,0.701M-2.632,-0.957C-2.632,-0.957 -2.641,-1.173 -2.524,-1.481C-2.507,-1.524 -2.454,-1.648 -2.388,-1.71C-2.402,-1.769 -2.511,-1.743 -2.511,-1.743C-2.512,-1.743 -3.181,-1.609 -3.181,-1.609L-3.177,0.293C-3.186,0.948 -3.566,1.73 -4.117,2.007C-4.117,2.007 -2.971,1.855 -2.5,1.134C-2.366,0.923 -2.272,0.638 -2.272,0.303C-2.272,0.303 -2.273,-0.018 -2.274,-0.289C-2.274,-0.621 -2.03,-0.878 -1.599,-0.873L-1.603,-1.905C-1.911,-1.842 -2.487,-1.687 -2.632,-0.957M3.25,-0.552C3.216,-1.064 2.881,-1.38 2.37,-1.404C2.37,-1.404 2.143,-1.393 2.148,-1.568C2.149,-1.6 2.177,-1.688 2.265,-1.704L2.619,-1.77C3.3,-1.899 3.256,-2.818 3.256,-2.818L2.202,-2.621C1.673,-2.523 1.14,-1.989 1.136,-1.221C1.135,-0.888 1.349,-0.496 2.006,-0.33C2.023,-0.325 2.038,-0.32 2.052,-0.314L2.052,-0.312C2.118,-0.294 2.172,-0.241 2.185,-0.17C2.203,-0.073 2.143,0.019 2.049,0.041L2.049,0.043C2.047,0.044 2.043,0.044 2.041,0.044C2.041,0.044 2.04,0.045 2.039,0.045L2.033,0.045C1.991,0.051 1.939,0.049 1.874,0.032C1.632,-0.029 0.581,-0.231 0,0.701C0,0.701 0.629,0.653 1.233,0.833C1.322,0.86 1.404,0.88 1.482,0.899C1.659,0.943 1.782,0.968 1.913,0.976C2.005,0.982 2.121,0.982 2.234,0.948C2.24,0.947 2.246,0.945 2.251,0.943C2.306,0.929 2.359,0.909 2.41,0.885C2.524,0.834 2.629,0.766 2.723,0.685L2.741,0.669C3.061,0.385 3.28,-0.12 3.25,-0.552M-4.773,-0.073L-4.149,-0.19C-4.126,-0.534 -4.341,-0.62 -4.462,-0.599C-4.638,-0.567 -4.773,-0.412 -4.773,-0.073M-4.549,2.026C-5.227,2.154 -5.772,1.501 -5.767,0.567C-5.761,-0.367 -5.206,-1.226 -4.528,-1.354C-3.849,-1.482 -3.303,-0.828 -3.309,0.106C-3.31,0.144 -3.311,0.183 -3.313,0.221L-4.771,0.494C-4.811,0.949 -4.476,1.248 -4.022,1.162C-3.795,1.12 -3.581,0.989 -3.419,0.811C-3.614,1.439 -4.048,1.932 -4.549,2.026M-5.232,2.251C-5.852,1.217 -6.103,0.646 -6.103,0.646C-5.962,-0.113 -5.169,-1.732 -5.169,-1.732L-6.207,-1.537C-6.208,-1.536 -6.211,-1.536 -6.214,-1.535C-6.32,-1.515 -6.409,-1.423 -6.446,-1.322L-6.448,-1.321L-7.026,0.42L-7.029,-1.382L-7.883,-1.221L-7.886,-1.221C-8.025,-1.194 -8.135,-1.043 -8.135,-0.901L-8.135,-0.899L-8.125,3.519L-7.018,3.311L-7.024,1.207L-7.014,1.201L-6.265,2.82C-6.221,2.91 -6.191,2.972 -6.08,3.034C-6.003,3.078 -5.888,3.1 -5.746,3.073L-4.671,2.87C-4.873,2.753 -5.108,2.458 -5.232,2.251M-1.599,-0.873C-1.61,-0.871 -1.599,-0.873 -1.599,-0.873M-1.465,1.035L-1.472,-1.931L-0.724,-2.072C-0.603,-2.097 -0.504,-2.033 -0.506,-1.906C-0.501,-1.874 -0.501,-1.847 -0.502,-1.821L-0.503,-1.527C-0.503,-1.527 -0.465,-1.797 -0.256,-2.018C-0.125,-2.145 0.035,-2.211 0.198,-2.245C0.605,-2.33 0.908,-2.129 0.904,-1.707L0.908,-0.154L0.904,-0.154C0.568,-0.074 0.214,0.115 -0.059,0.509L-0.064,-1.006C-0.062,-1.124 -0.118,-1.244 -0.263,-1.224C-0.385,-1.208 -0.497,-1.09 -0.498,-0.973L-0.497,0.763C-0.816,0.82 -1.135,0.914 -1.465,1.035" style="fill:rgb(42,37,35);fill-rule:nonzero;"/>
            </g>
            <g opacity="0.62">
                <g transform="matrix(1,0,0,1,179.478,504.953)">
                    <path d="M0,-0.549L-0.198,-0.717L-0.198,-0.676L-0.196,0.168L0,-0.423L0,-0.549Z" style="fill:rgb(158,157,159);fill-rule:nonzero;"/>
                </g>
            </g>
            <g transform="matrix(1,0,0,1,188.337,508.878)">
                <path d="M0,-5.853C0,-5.853 0.029,-5.915 0.039,-5.934C0.129,-6.11 0.238,-6.433 0.575,-6.589C0.575,-6.589 0.511,-6.665 0.413,-6.724C0.09,-6.56 -0.055,-6.19 -0.145,-6.017C-0.187,-5.935 -0.23,-5.851 -0.276,-5.777C-0.277,-5.775 -0.278,-5.773 -0.279,-5.771C-0.202,-5.803 -0.124,-5.827 -0.046,-5.841L0,-5.853ZM1.426,-5.713C1.426,-5.713 1.426,-5.826 1.425,-5.893L1.213,-6.071C1.224,-6.028 1.228,-5.867 1.228,-5.867C1.246,-5.494 1.104,-4.753 0.44,-4.629L0.341,-4.61C0.853,-4.52 1.186,-4.148 1.223,-3.604C1.243,-3.294 1.152,-2.948 0.987,-2.655C1.001,-2.651 1.014,-2.646 1.027,-2.641C1.031,-2.639 1.035,-2.637 1.039,-2.635C1.048,-2.631 1.057,-2.627 1.065,-2.622C1.07,-2.62 1.074,-2.617 1.079,-2.614C1.088,-2.609 1.097,-2.602 1.105,-2.596C1.108,-2.594 1.11,-2.592 1.113,-2.59C1.173,-2.54 1.215,-2.469 1.227,-2.386C1.254,-2.21 1.137,-2.048 0.962,-2.015C0.962,-2.015 0.951,-2.013 0.948,-2.012C0.84,-1.996 0.737,-2.034 0.665,-2.105C0.652,-2.117 0.641,-2.13 0.631,-2.145C0.63,-2.145 0.63,-2.145 0.63,-2.146C0.619,-2.16 0.61,-2.175 0.602,-2.191C0.499,-2.107 0.389,-2.038 0.273,-1.986C0.214,-1.959 0.152,-1.936 0.087,-1.919L0.074,-1.914C0.001,-1.893 -0.074,-1.88 -0.151,-1.877C0.406,-1.575 0.565,-1.265 0.617,-1.168C0.654,-1.097 0.76,-0.877 0.76,-0.748C0.76,-0.748 0.657,-0.855 0.323,-0.993C0.316,-0.996 0.051,-1.117 -0.388,-1.166C-0.705,-1.2 -1.166,-1.201 -1.715,-1.057C-1.864,-1.016 -2.013,-0.967 -2.16,-0.908C-2.354,-0.831 -2.557,-0.745 -2.772,-0.654C-3.449,-0.366 -4.217,-0.04 -4.946,0.097L-4.947,0.097C-5.002,0.108 -5.055,0.116 -5.107,0.124C-5.128,0.128 -5.15,0.131 -5.172,0.134C-5.19,0.137 -5.209,0.139 -5.227,0.142C-5.376,0.161 -5.525,0.173 -5.67,0.174C-6.016,0.174 -6.327,0.122 -6.629,-0.024L-7.844,0.209C-8.46,0.344 -8.629,-0.093 -8.634,-0.104L-9.049,-0.997L-9.045,0.432L-10.522,0.708L-10.324,0.871L-8.848,0.594L-8.849,-0.131C-8.795,-0.016 -8.78,0.014 -8.78,0.014C-8.732,0.119 -8.635,0.226 -8.567,0.281C-8.492,0.337 -8.397,0.385 -8.279,0.412C-8.105,0.446 -7.917,0.425 -7.757,0.393L-6.619,0.176C-6.529,0.226 -6.446,0.257 -6.345,0.29C-6.135,0.346 -5.909,0.374 -5.67,0.374C-5.524,0.373 -5.371,0.362 -5.202,0.34C-5.183,0.337 -5.163,0.335 -5.139,0.332C-5.118,0.328 -5.096,0.325 -5.076,0.322C-5.027,0.315 -4.979,0.306 -4.928,0.297L-4.909,0.294C-4.158,0.152 -3.38,-0.178 -2.693,-0.469L-2.654,-0.486C-2.455,-0.571 -2.266,-0.651 -2.087,-0.722C-1.951,-0.776 -1.808,-0.824 -1.665,-0.863C-1.129,-1.004 -0.687,-0.997 -0.41,-0.967C-0.008,-0.923 0.237,-0.813 0.239,-0.812L0.247,-0.808C0.457,-0.718 0.508,-0.681 0.632,-0.594C0.771,-0.496 0.874,-0.396 0.874,-0.396L0.878,-0.421C0.893,-0.492 0.901,-0.601 0.891,-0.714C0.879,-0.914 0.788,-1.113 0.75,-1.185C0.642,-1.388 0.468,-1.583 0.246,-1.753C0.254,-1.755 0.263,-1.758 0.272,-1.76L0.285,-1.765C0.35,-1.782 0.411,-1.805 0.471,-1.832C0.543,-1.864 0.613,-1.904 0.681,-1.95C0.683,-1.952 0.697,-1.961 0.708,-1.969C0.79,-1.887 0.909,-1.844 1.033,-1.862C1.036,-1.863 1.049,-1.865 1.049,-1.865C1.251,-1.903 1.385,-2.09 1.355,-2.293C1.337,-2.413 1.263,-2.512 1.164,-2.566L1.174,-2.582C1.289,-2.762 1.42,-3.151 1.42,-3.45C1.421,-3.948 1.15,-4.355 0.727,-4.535C1.253,-4.686 1.414,-5.369 1.426,-5.713M-7.046,-4.489C-7.183,-4.429 -7.311,-4.344 -7.429,-4.239C-7.342,-4.43 -7.081,-5.002 -7.081,-5.002L-6.886,-4.837L-7.046,-4.489Z" style="fill:rgb(158,157,159);fill-rule:nonzero;"/>
            </g>
            <g transform="matrix(1,0,0,1,188.74,508.56)">
                <path d="M0,-0.842C0,-0.842 -1.111,-1.373 -2.683,-0.747C-4.277,-0.114 -6.586,1.176 -7.71,-0.555C-7.71,-0.555 -7.306,-0.395 -6.586,-0.559C-5.674,-0.767 -5.284,-0.967 -4.686,-1.235C-3.556,-1.742 -2.635,-2.018 -1.487,-1.73C-0.339,-1.441 0,-0.842 0,-0.842" style="fill:rgb(0,121,53);fill-rule:nonzero;"/>
            </g>
            <g transform="matrix(1,0,0,1,189.244,506.695)">
                <path d="M0,-0.318C-0.088,-0.318 -0.159,-0.246 -0.159,-0.158C-0.159,-0.071 -0.087,0.001 0.001,0C0.089,0 0.16,-0.071 0.16,-0.159C0.159,-0.247 0.088,-0.318 0,-0.318M0.001,0.036C-0.107,0.036 -0.194,-0.051 -0.195,-0.158C-0.195,-0.266 -0.108,-0.354 0,-0.354C0.107,-0.354 0.195,-0.267 0.195,-0.159C0.196,-0.052 0.108,0.036 0.001,0.036M0.037,-0.204C0.037,-0.222 0.024,-0.233 -0.004,-0.233C-0.016,-0.232 -0.024,-0.231 -0.028,-0.231L-0.028,-0.176L-0.007,-0.176C0.017,-0.176 0.037,-0.185 0.037,-0.204M0.081,-0.116C0.087,-0.087 0.091,-0.076 0.096,-0.07L0.048,-0.07C0.042,-0.076 0.039,-0.092 0.033,-0.114C0.028,-0.135 0.017,-0.144 -0.007,-0.144L-0.029,-0.144L-0.028,-0.068L-0.072,-0.068L-0.074,-0.258C-0.057,-0.262 -0.032,-0.265 -0.001,-0.266C0.035,-0.266 0.052,-0.26 0.065,-0.251C0.076,-0.243 0.085,-0.228 0.085,-0.211C0.085,-0.188 0.069,-0.172 0.045,-0.165L0.045,-0.162C0.064,-0.157 0.075,-0.142 0.081,-0.116" style="fill:rgb(42,37,35);fill-rule:nonzero;"/>
            </g>
            <g transform="matrix(0.677567,0.735461,0.735461,-0.677567,183.311,504.35)">
                <path d="M0.515,-0.226C0.184,0.425 0.392,0.856 0.556,1.135L0.515,1.174C0.376,0.945 0.157,0.53 0.361,0.042C0.45,-0.147 0.515,-0.226 0.515,-0.226" style="fill:rgb(95,91,92);fill-rule:nonzero;"/>
            </g>
            <g transform="matrix(1,0,0,1,181.21,508.712)">
                <path d="M0,-0.208C0.072,-0.128 0.148,-0.054 0.222,0L0.244,-0.004C0.165,-0.05 0.081,-0.123 0,-0.208" style="fill:rgb(95,91,92);fill-rule:nonzero;"/>
            </g>
            <g transform="matrix(1,0,0,1,181.908,505.812)">
                <path d="M0,-0.467C0.047,-0.402 0.078,-0.305 0.068,-0.165L-0.51,-0.056C-0.511,-0.038 -0.512,-0.019 -0.512,0L0.112,-0.117C0.124,-0.298 0.071,-0.407 0,-0.467" style="fill:rgb(95,91,92);fill-rule:nonzero;"/>
            </g>
            <g transform="matrix(1,0,0,1,182.103,506.745)">
                <path d="M0,0.255C-0.235,0.3 -0.438,0.24 -0.574,0.109C-0.44,0.272 -0.218,0.352 0.044,0.303C0.231,0.268 0.408,0.172 0.556,0.041C0.573,-0.004 0.589,-0.05 0.603,-0.097C0.441,0.081 0.228,0.213 0,0.255" style="fill:rgb(95,91,92);fill-rule:nonzero;"/>
            </g>
            <g transform="matrix(0.737154,-0.675725,-0.675725,-0.737154,188.538,504.648)">
                <path d="M0.114,0.122C0.3,-0.065 0.398,-0.278 0.406,-0.496C0.417,-0.256 0.318,-0.019 0.114,0.187C0.114,0.187 0.04,0.249 0.022,0.326C-0.005,0.22 0.114,0.122 0.114,0.122" style="fill:rgb(95,91,92);fill-rule:nonzero;"/>
            </g>
            <g transform="matrix(1,0,0,1,187.305,503.526)">
                <path d="M0,1.138C0.004,0.37 0.536,-0.164 1.066,-0.262L2.076,-0.451C2.077,-0.486 2.076,-0.507 2.076,-0.507L1.022,-0.309C0.492,-0.211 -0.04,0.323 -0.044,1.09C-0.045,1.273 0.02,1.474 0.187,1.645C0.052,1.485 -0.001,1.304 0,1.138" style="fill:rgb(95,91,92);fill-rule:nonzero;"/>
            </g>
            <g transform="matrix(1,0,0,1,185.622,503.54)">
                <path d="M0,0.771C0,0.771 0.049,0.573 0.258,0.353C0.389,0.225 0.581,0.134 0.745,0.101C0.972,0.053 1.167,0.095 1.294,0.215C1.17,0.059 0.956,0 0.701,0.053C0.538,0.087 0.378,0.153 0.247,0.281C0.142,0.392 0.045,0.554 0,0.771" style="fill:rgb(95,91,92);fill-rule:nonzero;"/>
            </g>
            <g transform="matrix(1,0,0,1,180.359,505.614)">
                <path d="M0,0.791C-0.003,1.299 0.157,1.723 0.413,1.984C0.183,1.72 0.041,1.316 0.044,0.839C0.05,-0.095 0.605,-0.955 1.283,-1.083C1.593,-1.141 1.874,-1.036 2.089,-0.817C1.87,-1.068 1.57,-1.193 1.239,-1.131C0.561,-1.003 0.006,-0.143 0,0.791" style="fill:rgb(95,91,92);fill-rule:nonzero;"/>
            </g>
            <g transform="matrix(1,0,0,1,186.106,506.153)">
                <path d="M0,-1.274C0.001,-1.351 -0.023,-1.428 -0.079,-1.467C-0.054,-1.427 -0.043,-1.374 -0.044,-1.322L-0.039,0.193C-0.025,0.172 -0.01,0.153 0.005,0.133L0,-1.274Z" style="fill:rgb(95,91,92);fill-rule:nonzero;"/>
            </g>
            <g transform="matrix(1,0,0,1,184.697,506.667)">
                <path d="M0,-2.713L0.748,-2.854C0.806,-2.866 0.859,-2.857 0.899,-2.83C0.863,-2.892 0.789,-2.919 0.704,-2.901L-0.044,-2.761L-0.037,0.206C-0.022,0.201 -0.008,0.196 0.007,0.19L0,-2.713Z" style="fill:rgb(95,91,92);fill-rule:nonzero;"/>
            </g>
            <g transform="matrix(1,0,0,1,186.125,506.536)">
                <path d="M0,0.003C0.012,-0.02 -0.013,0.023 0,0.003" style="fill:rgb(95,91,92);fill-rule:nonzero;"/>
            </g>
            <g transform="matrix(1,0,0,1,188.044,506.226)">
                <path d="M0,-0.308C0.065,-0.292 0.116,-0.289 0.159,-0.295L0.165,-0.295C0.165,-0.296 0.166,-0.296 0.166,-0.296C0.169,-0.297 0.172,-0.297 0.174,-0.297L0.174,-0.299C0.268,-0.322 0.329,-0.414 0.311,-0.51C0.302,-0.556 0.277,-0.595 0.242,-0.621C0.254,-0.602 0.263,-0.581 0.267,-0.557C0.285,-0.461 0.225,-0.369 0.13,-0.347L0.13,-0.345C0.128,-0.344 0.125,-0.344 0.122,-0.344L0.121,-0.343L0.115,-0.343C0.073,-0.337 0.021,-0.339 -0.044,-0.356C-0.286,-0.417 -1.337,-0.619 -1.918,0.313C-1.918,0.313 -1.89,0.311 -1.84,0.309C-1.253,-0.563 -0.237,-0.368 0,-0.308" style="fill:rgb(95,91,92);fill-rule:nonzero;"/>
            </g>
            <g transform="matrix(1,0,0,1,178.034,508.826)">
                <path d="M0,-3.839L0,-3.841C0,-3.983 0.11,-4.135 0.249,-4.162L0.252,-4.162L1.062,-4.314L1.062,-4.37L0.208,-4.209L0.205,-4.209C0.066,-4.182 -0.044,-4.031 -0.044,-3.889L-0.044,-3.887L-0.034,0.531L0.01,0.523L0,-3.839Z" style="fill:rgb(95,91,92);fill-rule:nonzero;"/>
            </g>
            <g transform="matrix(1,0,0,1,179.144,504.106)">
                <path d="M0,2.199L0.578,0.458L0.579,0.457C0.617,0.355 0.706,0.264 0.812,0.244C0.814,0.243 0.817,0.243 0.819,0.242L1.783,0.061C1.801,0.022 1.812,0 1.812,0L0.775,0.195C0.773,0.195 0.77,0.195 0.768,0.196C0.662,0.216 0.573,0.308 0.535,0.41L0.534,0.41L0,2.02L0,2.199Z" style="fill:rgb(95,91,92);fill-rule:nonzero;"/>
            </g>
            <g transform="matrix(1,0,0,1,179.904,507.198)">
                <path d="M0,1.508L-0.749,-0.112L-0.759,-0.105L-0.759,-0.087L-0.044,1.46C-0.013,1.524 0.012,1.574 0.064,1.62C0.039,1.587 0.021,1.55 0,1.508" style="fill:rgb(95,91,92);fill-rule:nonzero;"/>
            </g>
            <g transform="matrix(1,0,0,1,182.992,505.735)">
                <path d="M0,0.444L-0.003,-1.459C-0.003,-1.459 0.665,-1.593 0.666,-1.593C0.666,-1.593 0.703,-1.601 0.736,-1.597C0.739,-1.6 0.742,-1.604 0.746,-1.607C0.732,-1.666 0.622,-1.64 0.622,-1.64C0.621,-1.64 -0.047,-1.506 -0.047,-1.506L-0.044,0.396C-0.052,1.051 -0.432,1.833 -0.983,2.11C-0.983,2.11 -0.914,2.101 -0.803,2.076C-0.327,1.749 -0.008,1.043 0,0.444" style="fill:rgb(95,91,92);fill-rule:nonzero;"/>
            </g>
            <g opacity="0.35">
                <g>
                    <clipPath id="_clip5">
                        <rect x="181.395" y="506.864" width="6.81" height="1.45" clip-rule="nonzero"/>
                    </clipPath>
                    <g clip-path="url(#_clip5)">
                        <g transform="matrix(1,0,0,1,188.197,507.541)">
                            <path d="M0,-0.136C-0.217,-0.286 -0.535,-0.448 -0.983,-0.561C-2.064,-0.832 -2.938,-0.588 -4.081,-0.075C-4.141,-0.048 -4.199,-0.022 -4.256,0.004C-4.769,0.236 -5.175,0.42 -6.009,0.61C-6.333,0.684 -6.599,0.696 -6.798,0.684" style="fill:none;fill-rule:nonzero;stroke:white;stroke-width:0.01px;"/>
                        </g>
                        <g transform="matrix(1,0,0,1,188.197,507.542)">
                            <path d="M0,-0.137C-0.217,-0.286 -0.533,-0.448 -0.982,-0.56C-2.064,-0.832 -2.937,-0.586 -4.081,-0.073C-4.141,-0.046 -4.199,-0.02 -4.255,0.006C-4.769,0.238 -5.17,0.421 -6.005,0.61C-6.332,0.685 -6.601,0.695 -6.798,0.683" style="fill:none;fill-rule:nonzero;stroke:rgb(252,253,252);stroke-width:0.01px;"/>
                        </g>
                        <g transform="matrix(1,0,0,1,188.197,507.544)">
                            <path d="M0,-0.139C-0.217,-0.288 -0.532,-0.449 -0.981,-0.561C-2.063,-0.832 -2.937,-0.585 -4.08,-0.072C-4.14,-0.045 -4.198,-0.019 -4.255,0.007C-4.768,0.239 -5.166,0.421 -6.001,0.61C-6.331,0.684 -6.603,0.693 -6.798,0.681" style="fill:none;fill-rule:nonzero;stroke:rgb(249,252,250);stroke-width:0.01px;"/>
                        </g>
                        <g transform="matrix(1,0,0,1,188.197,507.545)">
                            <path d="M0,-0.14C-0.217,-0.288 -0.531,-0.449 -0.98,-0.561C-2.062,-0.832 -2.936,-0.583 -4.079,-0.07C-4.14,-0.043 -4.198,-0.017 -4.254,0.009C-4.768,0.241 -5.162,0.421 -5.997,0.61C-6.33,0.684 -6.605,0.692 -6.798,0.68" style="fill:none;fill-rule:nonzero;stroke:rgb(247,251,248);stroke-width:0.01px;"/>
                        </g>
                        <g transform="matrix(1,0,0,1,188.197,507.546)">
                            <path d="M0,-0.141C-0.217,-0.289 -0.529,-0.449 -0.98,-0.561C-2.062,-0.831 -2.936,-0.581 -4.079,-0.068C-4.139,-0.041 -4.197,-0.015 -4.254,0.011C-4.767,0.243 -5.157,0.422 -5.992,0.61C-6.329,0.684 -6.607,0.69 -6.798,0.679" style="fill:none;fill-rule:nonzero;stroke:rgb(244,250,246);stroke-width:0.01px;"/>
                        </g>
                        <g transform="matrix(1,0,0,1,188.197,507.548)">
                            <path d="M0,-0.143C-0.217,-0.29 -0.528,-0.449 -0.979,-0.562C-2.061,-0.831 -2.935,-0.58 -4.078,-0.067C-4.139,-0.04 -4.197,-0.014 -4.253,0.012C-4.767,0.245 -5.153,0.422 -5.988,0.609C-6.328,0.684 -6.609,0.688 -6.798,0.677" style="fill:none;fill-rule:nonzero;stroke:rgb(242,248,244);stroke-width:0.01px;"/>
                        </g>
                        <g transform="matrix(1,0,0,1,188.197,507.549)">
                            <path d="M0,-0.144C-0.217,-0.29 -0.526,-0.449 -0.978,-0.561C-2.061,-0.831 -2.935,-0.578 -4.078,-0.065C-4.138,-0.038 -4.196,-0.012 -4.253,0.014C-4.766,0.247 -5.148,0.424 -5.984,0.609C-6.327,0.685 -6.611,0.687 -6.798,0.676" style="fill:none;fill-rule:nonzero;stroke:rgb(240,247,242);stroke-width:0.01px;"/>
                        </g>
                        <g transform="matrix(1,0,0,1,188.197,507.551)">
                            <path d="M0,-0.146C-0.216,-0.292 -0.525,-0.45 -0.977,-0.562C-2.06,-0.831 -2.934,-0.577 -4.077,-0.064C-4.138,-0.037 -4.196,-0.011 -4.252,0.015C-4.766,0.248 -5.144,0.424 -5.98,0.608C-6.325,0.684 -6.613,0.685 -6.798,0.674" style="fill:none;fill-rule:nonzero;stroke:rgb(238,246,240);stroke-width:0.01px;"/>
                        </g>
                        <g transform="matrix(1,0,0,1,188.197,507.553)">
                            <path d="M0,-0.148C-0.216,-0.293 -0.523,-0.451 -0.977,-0.563C-2.06,-0.831 -2.934,-0.576 -4.077,-0.063C-4.137,-0.036 -4.195,-0.01 -4.252,0.016C-4.765,0.249 -5.139,0.425 -5.975,0.607C-6.324,0.683 -6.615,0.683 -6.798,0.672" style="fill:none;fill-rule:nonzero;stroke:rgb(235,244,238);stroke-width:0.01px;"/>
                        </g>
                        <g transform="matrix(1,0,0,1,188.197,507.556)">
                            <path d="M0,-0.151C-0.216,-0.295 -0.522,-0.453 -0.976,-0.565C-2.059,-0.833 -2.933,-0.576 -4.076,-0.063C-4.137,-0.036 -4.195,-0.009 -4.251,0.016C-4.765,0.249 -5.135,0.424 -5.971,0.605C-6.323,0.682 -6.617,0.68 -6.798,0.669" style="fill:none;fill-rule:nonzero;stroke:rgb(233,243,236);stroke-width:0.01px;"/>
                        </g>
                        <g transform="matrix(1,0,0,1,188.197,507.559)">
                            <path d="M0,-0.154C-0.216,-0.298 -0.521,-0.455 -0.975,-0.567C-2.059,-0.834 -2.933,-0.576 -4.076,-0.063C-4.136,-0.036 -4.194,-0.009 -4.251,0.016C-4.764,0.249 -5.13,0.423 -5.967,0.603C-6.322,0.68 -6.619,0.677 -6.798,0.666" style="fill:none;fill-rule:nonzero;stroke:rgb(230,242,233);stroke-width:0.01px;"/>
                        </g>
                        <g transform="matrix(1,0,0,1,188.197,507.561)">
                            <path d="M0,-0.156C-0.216,-0.299 -0.519,-0.456 -0.974,-0.567C-2.058,-0.835 -2.932,-0.575 -4.075,-0.062C-4.136,-0.035 -4.194,-0.008 -4.25,0.017C-4.764,0.25 -5.126,0.423 -5.963,0.602C-6.321,0.679 -6.621,0.675 -6.798,0.664" style="fill:none;fill-rule:nonzero;stroke:rgb(228,240,231);stroke-width:0.01px;"/>
                        </g>
                        <g transform="matrix(1,0,0,1,188.197,507.565)">
                            <path d="M0,-0.16C-0.216,-0.302 -0.518,-0.458 -0.974,-0.57C-2.058,-0.837 -2.932,-0.576 -4.075,-0.063C-4.135,-0.036 -4.193,-0.009 -4.25,0.016C-4.763,0.249 -5.121,0.421 -5.958,0.6C-6.32,0.677 -6.623,0.671 -6.798,0.66" style="fill:none;fill-rule:nonzero;stroke:rgb(225,239,229);stroke-width:0.01px;"/>
                        </g>
                        <g transform="matrix(1,0,0,1,188.197,507.568)">
                            <path d="M0,-0.163C-0.216,-0.305 -0.516,-0.46 -0.973,-0.572C-2.057,-0.838 -2.931,-0.576 -4.074,-0.062C-4.135,-0.035 -4.193,-0.009 -4.249,0.016C-4.763,0.249 -5.117,0.42 -5.954,0.598C-6.319,0.675 -6.625,0.667 -6.798,0.657" style="fill:none;fill-rule:nonzero;stroke:rgb(223,238,227);stroke-width:0.01px;"/>
                        </g>
                        <g transform="matrix(1,0,0,1,188.197,507.571)">
                            <path d="M0,-0.166C-0.216,-0.307 -0.515,-0.462 -0.972,-0.574C-2.057,-0.84 -2.931,-0.576 -4.074,-0.062C-4.134,-0.035 -4.192,-0.009 -4.249,0.017C-4.762,0.249 -5.113,0.419 -5.95,0.596C-6.318,0.674 -6.627,0.664 -6.798,0.654" style="fill:none;fill-rule:nonzero;stroke:rgb(220,236,225);stroke-width:0.01px;"/>
                        </g>
                        <g transform="matrix(1,0,0,1,188.197,507.574)">
                            <path d="M0,-0.169C-0.215,-0.31 -0.513,-0.464 -0.971,-0.576C-2.056,-0.841 -2.93,-0.575 -4.073,-0.062C-4.133,-0.035 -4.192,-0.009 -4.248,0.017C-4.762,0.249 -5.108,0.418 -5.946,0.594C-6.317,0.672 -6.629,0.661 -6.798,0.651" style="fill:none;fill-rule:nonzero;stroke:rgb(218,235,223);stroke-width:0.01px;"/>
                        </g>
                        <g transform="matrix(1,0,0,1,188.197,507.576)">
                            <path d="M0,-0.171C-0.215,-0.311 -0.512,-0.465 -0.971,-0.576C-2.056,-0.842 -2.93,-0.574 -4.073,-0.061C-4.133,-0.034 -4.191,-0.008 -4.248,0.018C-4.761,0.25 -5.104,0.417 -5.941,0.593C-6.316,0.671 -6.631,0.659 -6.798,0.649" style="fill:none;fill-rule:nonzero;stroke:rgb(216,234,221);stroke-width:0.01px;"/>
                        </g>
                        <g transform="matrix(1,0,0,1,188.197,507.58)">
                            <path d="M0,-0.175C-0.215,-0.314 -0.511,-0.468 -0.97,-0.579C-2.055,-0.844 -2.929,-0.575 -4.072,-0.062C-4.132,-0.035 -4.191,-0.009 -4.247,0.017C-4.761,0.249 -5.099,0.415 -5.937,0.59C-6.314,0.669 -6.633,0.655 -6.798,0.645" style="fill:none;fill-rule:nonzero;stroke:rgb(213,233,219);stroke-width:0.01px;"/>
                        </g>
                        <g transform="matrix(1,0,0,1,188.197,507.583)">
                            <path d="M0,-0.178C-0.215,-0.317 -0.509,-0.469 -0.969,-0.581C-2.054,-0.845 -2.929,-0.575 -4.072,-0.062C-4.132,-0.035 -4.19,-0.009 -4.247,0.017C-4.76,0.249 -5.095,0.414 -5.933,0.588C-6.313,0.667 -6.634,0.652 -6.798,0.642" style="fill:none;fill-rule:nonzero;stroke:rgb(211,231,216);stroke-width:0.01px;"/>
                        </g>
                        <g transform="matrix(1,0,0,1,188.197,507.585)">
                            <path d="M0,-0.18C-0.215,-0.318 -0.508,-0.47 -0.968,-0.582C-2.054,-0.846 -2.928,-0.574 -4.071,-0.061C-4.131,-0.034 -4.189,-0.008 -4.246,0.018C-4.76,0.251 -5.09,0.414 -5.928,0.587C-6.312,0.666 -6.636,0.65 -6.798,0.64" style="fill:none;fill-rule:nonzero;stroke:rgb(208,230,214);stroke-width:0.01px;"/>
                        </g>
                        <g transform="matrix(1,0,0,1,188.197,507.589)">
                            <path d="M0,-0.184C-0.215,-0.321 -0.506,-0.473 -0.968,-0.585C-2.053,-0.848 -2.928,-0.575 -4.071,-0.062C-4.131,-0.035 -4.189,-0.009 -4.246,0.017C-4.759,0.25 -5.086,0.412 -5.924,0.584C-6.311,0.664 -6.638,0.646 -6.798,0.636" style="fill:none;fill-rule:nonzero;stroke:rgb(206,229,212);stroke-width:0.01px;"/>
                        </g>
                        <g transform="matrix(1,0,0,1,188.197,507.592)">
                            <path d="M0,-0.187C-0.215,-0.324 -0.505,-0.475 -0.967,-0.586C-2.053,-0.849 -2.927,-0.575 -4.07,-0.062C-4.13,-0.035 -4.188,-0.009 -4.245,0.017C-4.759,0.25 -5.082,0.411 -5.92,0.582C-6.31,0.662 -6.64,0.642 -6.798,0.633" style="fill:none;fill-rule:nonzero;stroke:rgb(203,227,210);stroke-width:0.01px;"/>
                        </g>
                        <g transform="matrix(1,0,0,1,188.197,507.594)">
                            <path d="M0,-0.189C-0.215,-0.325 -0.503,-0.476 -0.966,-0.587C-2.052,-0.85 -2.927,-0.574 -4.07,-0.061C-4.13,-0.034 -4.188,-0.008 -4.245,0.018C-4.758,0.251 -5.077,0.411 -5.916,0.581C-6.309,0.661 -6.642,0.64 -6.798,0.631" style="fill:none;fill-rule:nonzero;stroke:rgb(201,226,208);stroke-width:0.02px;"/>
                        </g>
                        <g transform="matrix(1,0,0,1,188.197,507.598)">
                            <path d="M0,-0.193C-0.214,-0.328 -0.502,-0.479 -0.965,-0.59C-2.052,-0.852 -2.926,-0.575 -4.069,-0.062C-4.129,-0.035 -4.187,-0.008 -4.244,0.017C-4.758,0.25 -5.073,0.409 -5.911,0.579C-6.308,0.659 -6.644,0.636 -6.798,0.627" style="fill:none;fill-rule:nonzero;stroke:rgb(198,225,206);stroke-width:0.02px;"/>
                        </g>
                        <g transform="matrix(1,0,0,1,188.197,507.6)">
                            <path d="M0,-0.195C-0.214,-0.33 -0.501,-0.48 -0.965,-0.591C-2.051,-0.853 -2.926,-0.574 -4.069,-0.061C-4.129,-0.034 -4.187,-0.007 -4.244,0.018C-4.757,0.251 -5.068,0.409 -5.907,0.578C-6.307,0.658 -6.646,0.634 -6.798,0.625" style="fill:none;fill-rule:nonzero;stroke:rgb(196,223,204);stroke-width:0.02px;"/>
                        </g>
                        <g transform="matrix(1,0,0,1,188.197,507.603)">
                            <path d="M0,-0.198C-0.214,-0.332 -0.499,-0.481 -0.964,-0.593C-2.051,-0.854 -2.925,-0.574 -4.068,-0.061C-4.128,-0.034 -4.186,-0.007 -4.243,0.018C-4.757,0.251 -5.064,0.408 -5.903,0.576C-6.306,0.656 -6.648,0.631 -6.798,0.622" style="fill:none;fill-rule:nonzero;stroke:rgb(193,222,202);stroke-width:0.02px;"/>
                        </g>
                        <g transform="matrix(1,0,0,1,188.197,507.607)">
                            <path d="M0,-0.202C-0.214,-0.335 -0.498,-0.484 -0.963,-0.595C-2.05,-0.856 -2.925,-0.575 -4.068,-0.062C-4.128,-0.035 -4.186,-0.008 -4.243,0.017C-4.756,0.25 -5.06,0.406 -5.899,0.573C-6.305,0.654 -6.65,0.627 -6.798,0.618" style="fill:none;fill-rule:nonzero;stroke:rgb(191,221,200);stroke-width:0.02px;"/>
                        </g>
                        <g transform="matrix(1,0,0,1,188.197,507.609)">
                            <path d="M0,-0.204C-0.214,-0.337 -0.496,-0.485 -0.962,-0.596C-2.05,-0.857 -2.924,-0.574 -4.067,-0.06C-4.127,-0.033 -4.185,-0.007 -4.242,0.018C-4.756,0.251 -5.055,0.406 -5.894,0.572C-6.303,0.653 -6.652,0.625 -6.798,0.616" style="fill:none;fill-rule:nonzero;stroke:rgb(189,219,198);stroke-width:0.02px;"/>
                        </g>
                        <g transform="matrix(1,0,0,1,188.197,507.612)">
                            <path d="M0,-0.207C-0.214,-0.339 -0.495,-0.487 -0.962,-0.598C-2.049,-0.858 -2.924,-0.574 -4.067,-0.06C-4.127,-0.033 -4.185,-0.007 -4.242,0.019C-4.755,0.251 -5.051,0.404 -5.89,0.57C-6.302,0.651 -6.654,0.622 -6.798,0.613" style="fill:none;fill-rule:nonzero;stroke:rgb(186,218,195);stroke-width:0.02px;"/>
                        </g>
                        <g transform="matrix(1,0,0,1,188.197,507.615)">
                            <path d="M0,-0.21C-0.214,-0.342 -0.493,-0.489 -0.961,-0.6C-2.049,-0.86 -2.923,-0.573 -4.066,-0.06C-4.126,-0.033 -4.184,-0.007 -4.241,0.019C-4.755,0.251 -5.046,0.403 -5.886,0.568C-6.301,0.65 -6.656,0.619 -6.798,0.61" style="fill:none;fill-rule:nonzero;stroke:rgb(184,217,193);stroke-width:0.02px;"/>
                        </g>
                        <g transform="matrix(1,0,0,1,188.197,507.618)">
                            <path d="M0,-0.213C-0.214,-0.344 -0.492,-0.491 -0.96,-0.602C-2.048,-0.861 -2.923,-0.573 -4.066,-0.06C-4.126,-0.033 -4.184,-0.007 -4.241,0.019C-4.754,0.251 -5.042,0.402 -5.882,0.566C-6.3,0.648 -6.658,0.615 -6.798,0.607" style="fill:none;fill-rule:nonzero;stroke:rgb(181,215,191);stroke-width:0.02px;"/>
                        </g>
                        <g transform="matrix(1,0,0,1,188.197,507.621)">
                            <path d="M0,-0.216C-0.213,-0.346 -0.491,-0.492 -0.959,-0.603C-2.048,-0.862 -2.922,-0.573 -4.065,-0.06C-4.125,-0.033 -4.183,-0.007 -4.24,0.019C-4.754,0.251 -5.038,0.401 -5.877,0.564C-6.299,0.646 -6.66,0.612 -6.798,0.604" style="fill:none;fill-rule:nonzero;stroke:rgb(179,214,189);stroke-width:0.02px;"/>
                        </g>
                        <g transform="matrix(1,0,0,1,188.197,507.624)">
                            <path d="M0,-0.219C-0.213,-0.349 -0.489,-0.494 -0.959,-0.605C-2.047,-0.864 -2.922,-0.573 -4.065,-0.06C-4.125,-0.033 -4.183,-0.007 -4.24,0.019C-4.753,0.251 -5.033,0.4 -5.873,0.562C-6.298,0.645 -6.662,0.609 -6.798,0.601" style="fill:none;fill-rule:nonzero;stroke:rgb(176,213,187);stroke-width:0.02px;"/>
                        </g>
                        <g transform="matrix(1,0,0,1,188.197,507.627)">
                            <path d="M0,-0.222C-0.213,-0.351 -0.488,-0.496 -0.958,-0.607C-2.046,-0.865 -2.921,-0.573 -4.064,-0.06C-4.124,-0.033 -4.182,-0.007 -4.239,0.019C-4.753,0.252 -5.029,0.399 -5.869,0.56C-6.297,0.643 -6.664,0.606 -6.798,0.598" style="fill:none;fill-rule:nonzero;stroke:rgb(174,211,185);stroke-width:0.02px;"/>
                        </g>
                        <g transform="matrix(1,0,0,1,188.197,507.63)">
                            <path d="M0,-0.225C-0.213,-0.353 -0.486,-0.498 -0.957,-0.609C-2.046,-0.866 -2.921,-0.573 -4.064,-0.06C-4.124,-0.033 -4.182,-0.007 -4.239,0.019C-4.752,0.252 -5.024,0.398 -5.865,0.559C-6.296,0.641 -6.666,0.603 -6.798,0.595" style="fill:none;fill-rule:nonzero;stroke:rgb(171,210,183);stroke-width:0.02px;"/>
                        </g>
                        <g transform="matrix(1,0,0,1,188.197,507.633)">
                            <path d="M0,-0.228C-0.213,-0.356 -0.485,-0.5 -0.956,-0.611C-2.045,-0.868 -2.92,-0.573 -4.063,-0.06C-4.123,-0.033 -4.181,-0.007 -4.238,0.019C-4.751,0.252 -5.02,0.396 -5.86,0.557C-6.295,0.64 -6.668,0.6 -6.798,0.592" style="fill:none;fill-rule:nonzero;stroke:rgb(169,209,181);stroke-width:0.02px;"/>
                        </g>
                        <g transform="matrix(1,0,0,1,188.197,507.636)">
                            <path d="M0,-0.231C-0.213,-0.358 -0.483,-0.502 -0.956,-0.612C-2.045,-0.869 -2.92,-0.573 -4.063,-0.06C-4.123,-0.033 -4.181,-0.007 -4.238,0.019C-4.751,0.252 -5.016,0.395 -5.856,0.555C-6.294,0.638 -6.67,0.597 -6.798,0.589" style="fill:none;fill-rule:nonzero;stroke:rgb(167,207,179);stroke-width:0.02px;"/>
                        </g>
                        <g transform="matrix(1,0,0,1,188.197,507.638)">
                            <path d="M0,-0.233C-0.213,-0.359 -0.482,-0.503 -0.955,-0.613C-2.044,-0.87 -2.919,-0.572 -4.062,-0.059C-4.122,-0.032 -4.18,-0.006 -4.237,0.02C-4.75,0.253 -5.011,0.395 -5.852,0.554C-6.293,0.637 -6.672,0.595 -6.798,0.587" style="fill:none;fill-rule:nonzero;stroke:rgb(164,206,177);stroke-width:0.02px;"/>
                        </g>
                        <g transform="matrix(1,0,0,1,188.197,507.641)">
                            <path d="M0,-0.236C-0.213,-0.362 -0.481,-0.504 -0.954,-0.615C-2.044,-0.871 -2.919,-0.572 -4.062,-0.059C-4.122,-0.032 -4.18,-0.005 -4.237,0.02C-4.75,0.253 -5.007,0.394 -5.848,0.552C-6.291,0.635 -6.674,0.592 -6.798,0.584" style="fill:none;fill-rule:nonzero;stroke:rgb(161,205,175);stroke-width:0.02px;"/>
                        </g>
                        <g transform="matrix(1,0,0,1,188.197,507.645)">
                            <path d="M0,-0.24C-0.212,-0.365 -0.479,-0.507 -0.953,-0.618C-2.043,-0.873 -2.918,-0.573 -4.061,-0.06C-4.121,-0.033 -4.179,-0.006 -4.236,0.019C-4.749,0.252 -5.002,0.392 -5.843,0.549C-6.29,0.633 -6.676,0.587 -6.798,0.58" style="fill:none;fill-rule:nonzero;stroke:rgb(159,203,173);stroke-width:0.02px;"/>
                        </g>
                        <g transform="matrix(1,0,0,1,188.197,507.647)">
                            <path d="M0,-0.242C-0.212,-0.367 -0.478,-0.508 -0.953,-0.619C-2.043,-0.874 -2.917,-0.572 -4.061,-0.059C-4.121,-0.032 -4.179,-0.005 -4.236,0.02C-4.749,0.253 -4.998,0.391 -5.839,0.548C-6.289,0.632 -6.678,0.585 -6.798,0.578" style="fill:none;fill-rule:nonzero;stroke:rgb(156,202,171);stroke-width:0.02px;"/>
                        </g>
                        <g transform="matrix(1,0,0,1,188.197,507.65)">
                            <path d="M0,-0.245C-0.212,-0.369 -0.476,-0.51 -0.952,-0.62C-2.042,-0.875 -2.917,-0.572 -4.06,-0.058C-4.12,-0.031 -4.178,-0.005 -4.235,0.02C-4.748,0.253 -4.994,0.39 -5.835,0.546C-6.288,0.63 -6.68,0.582 -6.798,0.575" style="fill:none;fill-rule:nonzero;stroke:rgb(154,201,169);stroke-width:0.02px;"/>
                        </g>
                        <g transform="matrix(1,0,0,1,188.197,507.654)">
                            <path d="M0,-0.249C-0.212,-0.372 -0.475,-0.513 -0.951,-0.623C-2.042,-0.877 -2.916,-0.573 -4.06,-0.059C-4.12,-0.032 -4.178,-0.006 -4.235,0.02C-4.748,0.252 -4.989,0.388 -5.83,0.543C-6.287,0.628 -6.682,0.578 -6.798,0.571" style="fill:none;fill-rule:nonzero;stroke:rgb(151,199,166);stroke-width:0.02px;"/>
                        </g>
                        <g transform="matrix(1,0,0,1,188.197,507.656)">
                            <path d="M0,-0.251C-0.212,-0.374 -0.473,-0.514 -0.95,-0.624C-2.041,-0.878 -2.916,-0.571 -4.059,-0.058C-4.119,-0.031 -4.177,-0.005 -4.234,0.021C-4.747,0.253 -4.985,0.388 -5.826,0.542C-6.286,0.627 -6.684,0.576 -6.798,0.569" style="fill:none;fill-rule:nonzero;stroke:rgb(149,198,164);stroke-width:0.02px;"/>
                        </g>
                        <g transform="matrix(1,0,0,1,188.197,507.659)">
                            <path d="M0,-0.254C-0.212,-0.376 -0.472,-0.515 -0.95,-0.626C-2.041,-0.879 -2.915,-0.571 -4.059,-0.058C-4.119,-0.031 -4.177,-0.005 -4.233,0.021C-4.747,0.253 -4.98,0.387 -5.822,0.541C-6.285,0.625 -6.686,0.573 -6.798,0.566" style="fill:none;fill-rule:nonzero;stroke:rgb(147,197,162);stroke-width:0.02px;"/>
                        </g>
                        <g transform="matrix(1,0,0,1,188.197,507.661)">
                            <path d="M0,-0.256C-0.212,-0.377 -0.471,-0.516 -0.949,-0.627C-2.04,-0.88 -2.915,-0.57 -4.058,-0.057C-4.118,-0.03 -4.176,-0.004 -4.233,0.022C-4.746,0.254 -4.976,0.386 -5.818,0.54C-6.284,0.624 -6.688,0.571 -6.798,0.564" style="fill:none;fill-rule:nonzero;stroke:rgb(144,195,160);stroke-width:0.02px;"/>
                        </g>
                        <g transform="matrix(1,0,0,1,188.197,507.665)">
                            <path d="M0,-0.26C-0.212,-0.381 -0.469,-0.519 -0.948,-0.629C-2.039,-0.882 -2.914,-0.571 -4.058,-0.058C-4.118,-0.031 -4.176,-0.005 -4.232,0.021C-4.746,0.253 -4.972,0.384 -5.813,0.537C-6.283,0.622 -6.69,0.567 -6.798,0.56" style="fill:none;fill-rule:nonzero;stroke:rgb(142,194,159);stroke-width:0.02px;"/>
                        </g>
                        <g transform="matrix(1,0,0,1,188.197,507.668)">
                            <path d="M0,-0.263C-0.211,-0.383 -0.468,-0.521 -0.947,-0.631C-2.039,-0.883 -2.914,-0.571 -4.057,-0.058C-4.117,-0.031 -4.175,-0.005 -4.232,0.021C-4.745,0.254 -4.967,0.383 -5.809,0.535C-6.282,0.62 -6.692,0.564 -6.798,0.557" style="fill:none;fill-rule:nonzero;stroke:rgb(140,193,156);stroke-width:0.02px;"/>
                        </g>
                        <g transform="matrix(1,0,0,1,188.197,507.67)">
                            <path d="M0,-0.265C-0.211,-0.384 -0.466,-0.522 -0.947,-0.632C-2.038,-0.884 -2.913,-0.57 -4.057,-0.057C-4.117,-0.03 -4.175,-0.004 -4.231,0.022C-4.745,0.255 -4.963,0.383 -5.805,0.534C-6.281,0.619 -6.694,0.561 -6.798,0.555" style="fill:none;fill-rule:nonzero;stroke:rgb(137,192,154);stroke-width:0.02px;"/>
                        </g>
                        <g transform="matrix(1,0,0,1,188.197,507.674)">
                            <path d="M0,-0.269C-0.211,-0.388 -0.465,-0.525 -0.946,-0.635C-2.038,-0.886 -2.913,-0.571 -4.056,-0.058C-4.116,-0.031 -4.174,-0.005 -4.231,0.021C-4.744,0.254 -4.959,0.38 -5.801,0.531C-6.279,0.617 -6.696,0.557 -6.798,0.551" style="fill:none;fill-rule:nonzero;stroke:rgb(135,190,152);stroke-width:0.02px;"/>
                        </g>
                        <g transform="matrix(1,0,0,1,188.197,507.676)">
                            <path d="M0,-0.271C-0.211,-0.389 -0.463,-0.526 -0.945,-0.636C-2.037,-0.887 -2.912,-0.57 -4.056,-0.057C-4.116,-0.03 -4.174,-0.004 -4.23,0.022C-4.744,0.255 -4.954,0.38 -5.796,0.53C-6.278,0.616 -6.698,0.555 -6.798,0.549" style="fill:none;fill-rule:nonzero;stroke:rgb(132,189,150);stroke-width:0.02px;"/>
                        </g>
                        <g transform="matrix(1,0,0,1,188.197,507.679)">
                            <path d="M0,-0.274C-0.211,-0.392 -0.462,-0.527 -0.944,-0.637C-2.037,-0.888 -2.912,-0.57 -4.055,-0.057C-4.115,-0.03 -4.173,-0.004 -4.23,0.022C-4.743,0.255 -4.95,0.379 -5.792,0.528C-6.277,0.614 -6.7,0.552 -6.798,0.546" style="fill:none;fill-rule:nonzero;stroke:rgb(129,188,148);stroke-width:0.02px;"/>
                        </g>
                        <g transform="matrix(1,0,0,1,188.197,507.682)">
                            <path d="M0,-0.277C-0.211,-0.394 -0.461,-0.529 -0.944,-0.639C-2.036,-0.889 -2.911,-0.57 -4.055,-0.057C-4.115,-0.03 -4.173,-0.003 -4.229,0.022C-4.743,0.255 -4.945,0.378 -5.788,0.526C-6.276,0.612 -6.702,0.549 -6.798,0.543" style="fill:none;fill-rule:nonzero;stroke:rgb(127,186,146);stroke-width:0.02px;"/>
                        </g>
                        <g transform="matrix(1,0,0,1,188.197,507.685)">
                            <path d="M0,-0.28C-0.211,-0.396 -0.459,-0.531 -0.943,-0.641C-2.036,-0.891 -2.911,-0.57 -4.054,-0.057C-4.114,-0.03 -4.172,-0.003 -4.229,0.022C-4.742,0.255 -4.941,0.376 -5.784,0.524C-6.275,0.611 -6.704,0.546 -6.798,0.54" style="fill:none;fill-rule:nonzero;stroke:rgb(124,185,144);stroke-width:0.02px;"/>
                        </g>
                        <g transform="matrix(1,0,0,1,188.197,507.688)">
                            <path d="M0,-0.283C-0.211,-0.399 -0.458,-0.533 -0.942,-0.643C-2.035,-0.892 -2.91,-0.57 -4.054,-0.057C-4.114,-0.03 -4.172,-0.003 -4.228,0.022C-4.742,0.255 -4.937,0.375 -5.779,0.522C-6.274,0.609 -6.706,0.543 -6.798,0.537" style="fill:none;fill-rule:nonzero;stroke:rgb(122,184,142);stroke-width:0.02px;"/>
                        </g>
                        <g transform="matrix(1,0,0,1,188.197,507.691)">
                            <path d="M0,-0.286C-0.21,-0.401 -0.456,-0.535 -0.941,-0.645C-2.035,-0.893 -2.91,-0.57 -4.053,-0.056C-4.113,-0.029 -4.171,-0.003 -4.228,0.022C-4.741,0.255 -4.932,0.374 -5.775,0.521C-6.273,0.607 -6.708,0.54 -6.798,0.534" style="fill:none;fill-rule:nonzero;stroke:rgb(119,182,140);stroke-width:0.03px;"/>
                        </g>
                        <g transform="matrix(1,0,0,1,188.197,507.693)">
                            <path d="M0,-0.288C-0.21,-0.402 -0.455,-0.536 -0.941,-0.645C-2.034,-0.894 -2.909,-0.569 -4.053,-0.055C-4.113,-0.028 -4.171,-0.002 -4.227,0.023C-4.741,0.256 -4.928,0.374 -5.771,0.52C-6.272,0.606 -6.709,0.538 -6.798,0.532" style="fill:none;fill-rule:nonzero;stroke:rgb(117,181,139);stroke-width:0.03px;"/>
                        </g>
                        <g transform="matrix(1,0,0,1,188.197,507.697)">
                            <path d="M0,-0.292C-0.21,-0.406 -0.453,-0.538 -0.94,-0.648C-2.034,-0.896 -2.909,-0.569 -4.052,-0.056C-4.112,-0.029 -4.17,-0.003 -4.227,0.023C-4.74,0.255 -4.924,0.371 -5.767,0.517C-6.271,0.604 -6.711,0.533 -6.798,0.528" style="fill:none;fill-rule:nonzero;stroke:rgb(114,180,137);stroke-width:0.03px;"/>
                        </g>
                        <g transform="matrix(1,0,0,1,188.197,507.699)">
                            <path d="M0,-0.294C-0.21,-0.407 -0.452,-0.539 -0.939,-0.649C-2.033,-0.897 -2.908,-0.568 -4.052,-0.055C-4.112,-0.028 -4.17,-0.002 -4.226,0.024C-4.74,0.256 -4.919,0.371 -5.762,0.516C-6.27,0.603 -6.713,0.531 -6.798,0.526" style="fill:none;fill-rule:nonzero;stroke:rgb(112,178,135);stroke-width:0.03px;"/>
                        </g>
                        <g transform="matrix(1,0,0,1,188.197,507.702)">
                            <path d="M0,-0.297C-0.21,-0.409 -0.451,-0.541 -0.938,-0.651C-2.033,-0.898 -2.908,-0.568 -4.051,-0.055C-4.111,-0.028 -4.169,-0.002 -4.226,0.024C-4.739,0.256 -4.915,0.37 -5.758,0.514C-6.269,0.601 -6.715,0.528 -6.798,0.523" style="fill:none;fill-rule:nonzero;stroke:rgb(109,177,133);stroke-width:0.03px;"/>
                        </g>
                        <g transform="matrix(1,0,0,1,188.197,507.705)">
                            <path d="M0,-0.3C-0.21,-0.412 -0.449,-0.543 -0.938,-0.653C-2.032,-0.899 -2.907,-0.568 -4.051,-0.055C-4.111,-0.028 -4.169,-0.002 -4.225,0.024C-4.739,0.256 -4.91,0.369 -5.754,0.512C-6.268,0.599 -6.717,0.525 -6.798,0.52" style="fill:none;fill-rule:nonzero;stroke:rgb(106,176,131);stroke-width:0.03px;"/>
                        </g>
                        <g transform="matrix(1,0,0,1,188.197,507.708)">
                            <path d="M0,-0.303C-0.21,-0.414 -0.448,-0.545 -0.937,-0.654C-2.031,-0.901 -2.907,-0.568 -4.05,-0.055C-4.11,-0.028 -4.168,-0.002 -4.225,0.024C-4.738,0.257 -4.906,0.367 -5.749,0.51C-6.266,0.598 -6.719,0.522 -6.798,0.517" style="fill:none;fill-rule:nonzero;stroke:rgb(104,174,129);stroke-width:0.03px;"/>
                        </g>
                        <g transform="matrix(1,0,0,1,188.197,507.711)">
                            <path d="M0,-0.306C-0.21,-0.416 -0.446,-0.547 -0.936,-0.656C-2.031,-0.902 -2.906,-0.568 -4.05,-0.055C-4.11,-0.028 -4.168,-0.002 -4.224,0.024C-4.738,0.257 -4.902,0.366 -5.745,0.508C-6.265,0.596 -6.721,0.519 -6.798,0.514" style="fill:none;fill-rule:nonzero;stroke:rgb(101,173,127);stroke-width:0.03px;"/>
                        </g>
                        <g transform="matrix(1,0,0,1,188.197,507.713)">
                            <path d="M0,-0.308C-0.209,-0.418 -0.445,-0.548 -0.935,-0.657C-2.03,-0.903 -2.906,-0.567 -4.049,-0.054C-4.109,-0.027 -4.167,-0.001 -4.224,0.025C-4.737,0.258 -4.897,0.366 -5.741,0.507C-6.264,0.595 -6.723,0.517 -6.798,0.512" style="fill:none;fill-rule:nonzero;stroke:rgb(99,172,125);stroke-width:0.03px;"/>
                        </g>
                        <g transform="matrix(1,0,0,1,188.197,507.716)">
                            <path d="M0,-0.311C-0.209,-0.42 -0.443,-0.549 -0.934,-0.659C-2.03,-0.904 -2.905,-0.567 -4.049,-0.054C-4.109,-0.027 -4.167,-0.001 -4.223,0.025C-4.737,0.258 -4.893,0.364 -5.737,0.505C-6.263,0.593 -6.725,0.514 -6.798,0.509" style="fill:none;fill-rule:nonzero;stroke:rgb(96,170,123);stroke-width:0.03px;"/>
                        </g>
                        <g transform="matrix(1,0,0,1,188.197,507.72)">
                            <path d="M0,-0.315C-0.209,-0.424 -0.442,-0.552 -0.934,-0.661C-2.029,-0.906 -2.905,-0.568 -4.048,-0.055C-4.108,-0.028 -4.166,-0.002 -4.223,0.024C-4.736,0.257 -4.889,0.362 -5.732,0.502C-6.262,0.591 -6.727,0.51 -6.798,0.505" style="fill:none;fill-rule:nonzero;stroke:rgb(93,169,121);stroke-width:0.03px;"/>
                        </g>
                        <g transform="matrix(1,0,0,1,188.197,507.722)">
                            <path d="M0,-0.317C-0.209,-0.425 -0.441,-0.553 -0.933,-0.662C-2.029,-0.907 -2.904,-0.567 -4.048,-0.054C-4.108,-0.027 -4.166,-0 -4.222,0.025C-4.736,0.258 -4.884,0.362 -5.728,0.502C-6.261,0.59 -6.729,0.507 -6.798,0.503" style="fill:none;fill-rule:nonzero;stroke:rgb(90,168,119);stroke-width:0.03px;"/>
                        </g>
                        <g transform="matrix(1,0,0,1,188.197,507.725)">
                            <path d="M0,-0.32C-0.209,-0.427 -0.439,-0.555 -0.932,-0.664C-2.028,-0.908 -2.904,-0.567 -4.047,-0.054C-4.107,-0.027 -4.165,-0 -4.222,0.025C-4.735,0.258 -4.88,0.361 -5.724,0.5C-6.26,0.588 -6.731,0.504 -6.798,0.5" style="fill:none;fill-rule:nonzero;stroke:rgb(87,166,117);stroke-width:0.03px;"/>
                        </g>
                        <g transform="matrix(1,0,0,1,188.197,507.728)">
                            <path d="M0,-0.323C-0.209,-0.43 -0.438,-0.557 -0.931,-0.666C-2.028,-0.909 -2.903,-0.567 -4.047,-0.054C-4.107,-0.027 -4.165,0 -4.221,0.025C-4.735,0.258 -4.875,0.359 -5.72,0.498C-6.259,0.586 -6.733,0.501 -6.798,0.497" style="fill:none;fill-rule:nonzero;stroke:rgb(84,165,115);stroke-width:0.03px;"/>
                        </g>
                        <g transform="matrix(1,0,0,1,188.197,507.73)">
                            <path d="M0,-0.325C-0.209,-0.431 -0.436,-0.558 -0.931,-0.667C-2.027,-0.91 -2.903,-0.566 -4.046,-0.053C-4.106,-0.026 -4.164,0.001 -4.221,0.026C-4.734,0.259 -4.871,0.359 -5.715,0.497C-6.258,0.585 -6.735,0.499 -6.798,0.495" style="fill:none;fill-rule:nonzero;stroke:rgb(81,164,113);stroke-width:0.03px;"/>
                        </g>
                        <g transform="matrix(1,0,0,1,188.197,507.734)">
                            <path d="M0,-0.329C-0.209,-0.434 -0.435,-0.56 -0.93,-0.669C-2.027,-0.912 -2.902,-0.567 -4.046,-0.053C-4.106,-0.026 -4.164,0 -4.22,0.025C-4.734,0.258 -4.867,0.357 -5.711,0.494C-6.257,0.583 -6.737,0.495 -6.798,0.491" style="fill:none;fill-rule:nonzero;stroke:rgb(78,162,111);stroke-width:0.03px;"/>
                        </g>
                        <g transform="matrix(1,0,0,1,188.197,507.736)">
                            <path d="M0,-0.331C-0.208,-0.436 -0.433,-0.561 -0.929,-0.67C-2.026,-0.913 -2.902,-0.565 -4.045,-0.052C-4.105,-0.025 -4.163,0.001 -4.22,0.027C-4.733,0.259 -4.862,0.356 -5.707,0.493C-6.256,0.582 -6.739,0.493 -6.798,0.489" style="fill:none;fill-rule:nonzero;stroke:rgb(75,161,109);stroke-width:0.03px;"/>
                        </g>
                        <g transform="matrix(1,0,0,1,188.197,507.739)">
                            <path d="M0,-0.334C-0.208,-0.438 -0.432,-0.563 -0.928,-0.672C-2.026,-0.914 -2.901,-0.565 -4.045,-0.052C-4.105,-0.025 -4.163,0.001 -4.219,0.027C-4.733,0.259 -4.858,0.355 -5.703,0.491C-6.255,0.58 -6.741,0.49 -6.798,0.486" style="fill:none;fill-rule:nonzero;stroke:rgb(72,160,107);stroke-width:0.03px;"/>
                        </g>
                        <g transform="matrix(1,0,0,1,188.197,507.742)">
                            <path d="M0,-0.337C-0.208,-0.44 -0.431,-0.565 -0.928,-0.674C-2.025,-0.915 -2.901,-0.565 -4.044,-0.052C-4.104,-0.025 -4.162,0.001 -4.219,0.027C-4.732,0.259 -4.854,0.354 -5.698,0.489C-6.254,0.578 -6.743,0.487 -6.798,0.483" style="fill:none;fill-rule:nonzero;stroke:rgb(69,158,105);stroke-width:0.03px;"/>
                        </g>
                        <g transform="matrix(1,0,0,1,188.197,507.745)">
                            <path d="M0,-0.34C-0.208,-0.443 -0.429,-0.567 -0.927,-0.676C-2.025,-0.917 -2.9,-0.565 -4.044,-0.052C-4.104,-0.025 -4.162,0.001 -4.218,0.027C-4.732,0.259 -4.849,0.352 -5.694,0.487C-6.253,0.577 -6.745,0.483 -6.798,0.48" style="fill:none;fill-rule:nonzero;stroke:rgb(66,157,103);stroke-width:0.03px;"/>
                        </g>
                        <g transform="matrix(1,0,0,1,188.197,507.748)">
                            <path d="M0,-0.343C-0.208,-0.445 -0.428,-0.569 -0.926,-0.677C-2.024,-0.918 -2.9,-0.565 -4.043,-0.052C-4.103,-0.025 -4.161,0.001 -4.218,0.027C-4.731,0.26 -4.845,0.351 -5.69,0.485C-6.251,0.575 -6.747,0.48 -6.798,0.477" style="fill:none;fill-rule:nonzero;stroke:rgb(62,156,101);stroke-width:0.03px;"/>
                        </g>
                        <g transform="matrix(1,0,0,1,188.197,507.75)">
                            <path d="M0,-0.345C-0.208,-0.447 -0.426,-0.569 -0.925,-0.678C-2.023,-0.919 -2.899,-0.564 -4.043,-0.051C-4.103,-0.024 -4.161,0.002 -4.217,0.028C-4.731,0.261 -4.84,0.351 -5.686,0.484C-6.25,0.574 -6.749,0.478 -6.798,0.475" style="fill:none;fill-rule:nonzero;stroke:rgb(60,154,100);stroke-width:0.03px;"/>
                        </g>
                        <g transform="matrix(1,0,0,1,188.197,507.753)">
                            <path d="M0,-0.348C-0.208,-0.449 -0.425,-0.571 -0.925,-0.68C-2.023,-0.92 -2.899,-0.564 -4.042,-0.051C-4.102,-0.024 -4.16,0.002 -4.217,0.028C-4.73,0.261 -4.836,0.349 -5.681,0.483C-6.249,0.572 -6.751,0.475 -6.798,0.472" style="fill:none;fill-rule:nonzero;stroke:rgb(57,153,98);stroke-width:0.03px;"/>
                        </g>
                        <g transform="matrix(1,0,0,1,188.197,507.756)">
                            <path d="M0,-0.351C-0.208,-0.451 -0.423,-0.573 -0.924,-0.682C-2.022,-0.921 -2.898,-0.564 -4.042,-0.051C-4.102,-0.024 -4.16,0.002 -4.216,0.028C-4.73,0.261 -4.832,0.348 -5.677,0.481C-6.248,0.57 -6.753,0.472 -6.798,0.469" style="fill:none;fill-rule:nonzero;stroke:rgb(54,152,96);stroke-width:0.03px;"/>
                        </g>
                        <g transform="matrix(1,0,0,1,188.197,507.758)">
                            <path d="M0,-0.353C-0.207,-0.453 -0.422,-0.574 -0.923,-0.683C-2.022,-0.922 -2.898,-0.563 -4.041,-0.05C-4.101,-0.023 -4.159,0.003 -4.216,0.029C-4.729,0.262 -4.827,0.348 -5.673,0.48C-6.247,0.569 -6.755,0.47 -6.798,0.467" style="fill:none;fill-rule:nonzero;stroke:rgb(51,150,94);stroke-width:0.03px;"/>
                        </g>
                        <g transform="matrix(1,0,0,1,188.197,507.762)">
                            <path d="M0,-0.357C-0.207,-0.456 -0.421,-0.577 -0.922,-0.685C-2.021,-0.924 -2.897,-0.564 -4.041,-0.051C-4.101,-0.024 -4.159,0.003 -4.215,0.028C-4.729,0.261 -4.823,0.345 -5.669,0.477C-6.246,0.567 -6.757,0.466 -6.798,0.463" style="fill:none;fill-rule:nonzero;stroke:rgb(48,149,92);stroke-width:0.03px;"/>
                        </g>
                        <g transform="matrix(1,0,0,1,188.197,507.765)">
                            <path d="M0,-0.36C-0.207,-0.458 -0.419,-0.579 -0.922,-0.687C-2.021,-0.925 -2.897,-0.564 -4.04,-0.051C-4.1,-0.024 -4.158,0.003 -4.215,0.028C-4.728,0.261 -4.819,0.344 -5.664,0.475C-6.245,0.565 -6.759,0.463 -6.798,0.46" style="fill:none;fill-rule:nonzero;stroke:rgb(44,148,90);stroke-width:0.03px;"/>
                        </g>
                        <g transform="matrix(1,0,0,1,188.197,507.767)">
                            <path d="M0,-0.362C-0.207,-0.46 -0.418,-0.58 -0.921,-0.688C-2.02,-0.926 -2.896,-0.563 -4.04,-0.05C-4.1,-0.023 -4.158,0.004 -4.214,0.029C-4.728,0.262 -4.814,0.344 -5.66,0.474C-6.244,0.564 -6.761,0.461 -6.798,0.458" style="fill:none;fill-rule:nonzero;stroke:rgb(41,146,88);stroke-width:0.03px;"/>
                        </g>
                        <g transform="matrix(1,0,0,1,188.197,507.77)">
                            <path d="M0,-0.365C-0.207,-0.462 -0.416,-0.581 -0.92,-0.69C-2.02,-0.927 -2.896,-0.563 -4.039,-0.05C-4.099,-0.023 -4.157,0.004 -4.214,0.029C-4.727,0.262 -4.81,0.342 -5.656,0.472C-6.243,0.562 -6.763,0.457 -6.798,0.455" style="fill:none;fill-rule:nonzero;stroke:rgb(37,145,86);stroke-width:0.03px;"/>
                        </g>
                        <g transform="matrix(1,0,0,1,188.197,507.772)">
                            <path d="M0,-0.367C-0.207,-0.463 -0.415,-0.582 -0.919,-0.691C-2.019,-0.928 -2.895,-0.562 -4.039,-0.048C-4.099,-0.021 -4.157,0.005 -4.213,0.03C-4.727,0.263 -4.806,0.342 -5.651,0.471C-6.242,0.561 -6.765,0.455 -6.798,0.453" style="fill:none;fill-rule:nonzero;stroke:rgb(33,144,84);stroke-width:0.03px;"/>
                        </g>
                        <g transform="matrix(1,0,0,1,188.197,507.776)">
                            <path d="M0,-0.371C-0.207,-0.467 -0.413,-0.585 -0.919,-0.693C-2.019,-0.93 -2.895,-0.562 -4.038,-0.049C-4.098,-0.022 -4.156,0.004 -4.213,0.03C-4.726,0.262 -4.801,0.34 -5.647,0.468C-6.241,0.559 -6.767,0.451 -6.798,0.449" style="fill:none;fill-rule:nonzero;stroke:rgb(31,142,83);stroke-width:0.03px;"/>
                        </g>
                        <g transform="matrix(1,0,0,1,188.197,507.779)">
                            <path d="M0,-0.374C-0.207,-0.469 -0.412,-0.587 -0.918,-0.695C-2.018,-0.931 -2.894,-0.562 -4.038,-0.049C-4.098,-0.022 -4.156,0.004 -4.212,0.03C-4.726,0.262 -4.797,0.338 -5.643,0.466C-6.24,0.557 -6.769,0.448 -6.798,0.446" style="fill:none;fill-rule:nonzero;stroke:rgb(27,141,81);stroke-width:0.03px;"/>
                        </g>
                        <g transform="matrix(1,0,0,1,188.197,507.781)">
                            <path d="M0,-0.376C-0.206,-0.471 -0.411,-0.588 -0.917,-0.696C-2.018,-0.932 -2.894,-0.561 -4.037,-0.048C-4.097,-0.021 -4.155,0.005 -4.212,0.031C-4.725,0.263 -4.792,0.338 -5.639,0.466C-6.239,0.556 -6.771,0.446 -6.798,0.444" style="fill:none;fill-rule:nonzero;stroke:rgb(23,140,79);stroke-width:0.03px;"/>
                        </g>
                        <g transform="matrix(1,0,0,1,188.197,507.784)">
                            <path d="M0,-0.379C-0.206,-0.473 -0.409,-0.59 -0.916,-0.698C-2.017,-0.933 -2.893,-0.561 -4.037,-0.048C-4.097,-0.021 -4.155,0.005 -4.211,0.031C-4.725,0.263 -4.788,0.337 -5.634,0.464C-6.237,0.554 -6.773,0.443 -6.798,0.441" style="fill:none;fill-rule:nonzero;stroke:rgb(19,138,77);stroke-width:0.03px;"/>
                        </g>
                        <g transform="matrix(1,0,0,1,188.197,507.787)">
                            <path d="M0,-0.382C-0.206,-0.475 -0.408,-0.591 -0.916,-0.7C-2.016,-0.934 -2.893,-0.561 -4.036,-0.048C-4.096,-0.021 -4.154,0.005 -4.211,0.031C-4.724,0.263 -4.784,0.335 -5.63,0.462C-6.236,0.552 -6.775,0.44 -6.798,0.438" style="fill:none;fill-rule:nonzero;stroke:rgb(15,137,75);stroke-width:0.03px;"/>
                        </g>
                        <g transform="matrix(1,0,0,1,188.197,507.789)">
                            <path d="M0,-0.384C-0.206,-0.477 -0.406,-0.592 -0.915,-0.7C-2.016,-0.935 -2.892,-0.56 -4.036,-0.047C-4.096,-0.02 -4.154,0.006 -4.21,0.032C-4.724,0.265 -4.779,0.335 -5.626,0.461C-6.235,0.551 -6.777,0.438 -6.798,0.436" style="fill:none;fill-rule:nonzero;stroke:rgb(13,136,73);stroke-width:0.04px;"/>
                        </g>
                        <g transform="matrix(1,0,0,1,188.197,507.791)">
                            <path d="M0,-0.386C-0.206,-0.478 -0.405,-0.593 -0.914,-0.701C-2.015,-0.935 -2.892,-0.559 -4.035,-0.046C-4.095,-0.019 -4.153,0.007 -4.21,0.033C-4.723,0.266 -4.775,0.333 -5.622,0.46C-6.234,0.549 -6.779,0.436 -6.798,0.434" style="fill:none;fill-rule:nonzero;stroke:rgb(11,134,71);stroke-width:0.04px;"/>
                        </g>
                        <g transform="matrix(1,0,0,1,188.197,507.794)">
                            <path d="M0,-0.389C-0.206,-0.48 -0.403,-0.595 -0.913,-0.703C-2.015,-0.937 -2.891,-0.559 -4.035,-0.046C-4.095,-0.019 -4.153,0.007 -4.209,0.033C-4.723,0.266 -4.771,0.332 -5.617,0.458C-6.233,0.548 -6.781,0.432 -6.798,0.431" style="fill:none;fill-rule:nonzero;stroke:rgb(10,133,70);stroke-width:0.04px;"/>
                        </g>
                        <g transform="matrix(1,0,0,1,188.197,507.797)">
                            <path d="M0,-0.392C-0.206,-0.483 -0.402,-0.597 -0.913,-0.705C-2.014,-0.938 -2.891,-0.559 -4.034,-0.046C-4.094,-0.019 -4.152,0.007 -4.209,0.033C-4.722,0.266 -4.766,0.331 -5.613,0.456C-6.232,0.546 -6.783,0.429 -6.798,0.428" style="fill:none;fill-rule:nonzero;stroke:rgb(7,132,68);stroke-width:0.04px;"/>
                        </g>
                        <g transform="matrix(1,0,0,1,188.197,507.8)">
                            <path d="M0,-0.395C-0.206,-0.485 -0.401,-0.599 -0.912,-0.707C-2.014,-0.939 -2.89,-0.559 -4.034,-0.046C-4.094,-0.019 -4.152,0.008 -4.208,0.033C-4.722,0.266 -4.762,0.329 -5.609,0.454C-6.231,0.544 -6.784,0.426 -6.798,0.425" style="fill:none;fill-rule:nonzero;stroke:rgb(4,130,66);stroke-width:0.04px;"/>
                        </g>
                        <g transform="matrix(1,0,0,1,188.197,507.802)">
                            <path d="M0,-0.397C-0.205,-0.486 -0.399,-0.6 -0.911,-0.707C-2.013,-0.94 -2.89,-0.558 -4.033,-0.045C-4.093,-0.018 -4.151,0.009 -4.208,0.034C-4.721,0.267 -4.758,0.329 -5.605,0.453C-6.23,0.543 -6.786,0.424 -6.798,0.423" style="fill:none;fill-rule:nonzero;stroke:rgb(1,129,64);stroke-width:0.04px;"/>
                        </g>
                        <g transform="matrix(1,0,0,1,188.197,507.806)">
                            <path d="M0,-0.401C-0.205,-0.49 -0.398,-0.602 -0.91,-0.71C-2.013,-0.942 -2.889,-0.559 -4.033,-0.046C-4.093,-0.019 -4.151,0.008 -4.207,0.033C-4.721,0.266 -4.753,0.327 -5.6,0.45C-6.229,0.541 -6.788,0.42 -6.798,0.419" style="fill:none;fill-rule:nonzero;stroke:rgb(0,128,62);stroke-width:0.04px;"/>
                        </g>
                        <g transform="matrix(1,0,0,1,188.197,507.808)">
                            <path d="M0,-0.403C-0.205,-0.491 -0.396,-0.603 -0.91,-0.711C-2.012,-0.943 -2.889,-0.558 -4.032,-0.045C-4.092,-0.018 -4.15,0.009 -4.207,0.034C-4.72,0.267 -4.749,0.327 -5.596,0.449C-6.228,0.54 -6.79,0.418 -6.798,0.417" style="fill:none;fill-rule:nonzero;stroke:rgb(0,126,60);stroke-width:0.04px;"/>
                        </g>
                        <g transform="matrix(1,0,0,1,188.197,507.811)">
                            <path d="M0,-0.406C-0.205,-0.493 -0.395,-0.605 -0.909,-0.713C-2.012,-0.944 -2.888,-0.558 -4.031,-0.044C-4.092,-0.017 -4.15,0.009 -4.206,0.034C-4.72,0.267 -4.744,0.325 -5.592,0.448C-6.227,0.538 -6.792,0.415 -6.798,0.414" style="fill:none;fill-rule:nonzero;stroke:rgb(0,125,58);stroke-width:0.04px;"/>
                        </g>
                        <g transform="matrix(1,0,0,1,188.197,507.815)">
                            <path d="M0,-0.41C-0.205,-0.497 -0.393,-0.608 -0.908,-0.716C-2.011,-0.946 -2.888,-0.558 -4.031,-0.045C-4.091,-0.018 -4.149,0.008 -4.206,0.034C-4.719,0.266 -4.74,0.323 -5.588,0.445C-6.226,0.536 -6.794,0.411 -6.798,0.41" style="fill:none;fill-rule:nonzero;stroke:rgb(0,124,56);stroke-width:0.04px;"/>
                        </g>
                        <g transform="matrix(1,0,0,1,188.197,507.817)">
                            <path d="M0,-0.412C-0.205,-0.498 -0.392,-0.609 -0.907,-0.716C-2.011,-0.947 -2.887,-0.557 -4.03,-0.044C-4.091,-0.017 -4.149,0.009 -4.205,0.035C-4.719,0.267 -4.736,0.323 -5.583,0.444C-6.225,0.535 -6.796,0.409 -6.798,0.408" style="fill:none;fill-rule:nonzero;stroke:rgb(0,122,55);stroke-width:0.04px;"/>
                        </g>
                        <g transform="matrix(1,0,0,1,188.197,507.82)">
                            <path d="M0,-0.415C-0.205,-0.501 -0.391,-0.611 -0.907,-0.718C-2.01,-0.948 -2.887,-0.557 -4.03,-0.044C-4.09,-0.017 -4.148,0.009 -4.205,0.035C-4.718,0.267 -4.731,0.322 -5.579,0.442C-6.224,0.533 -6.798,0.405 -6.798,0.405" style="fill:none;fill-rule:nonzero;stroke:rgb(0,121,53);stroke-width:0.04px;"/>
                        </g>
                    </g>
                </g>
            </g>
        </g>
    </g>
</svg>
