<?xml version="1.0" encoding="UTF-8" standalone="no"?>
<!DOCTYPE svg PUBLIC "-//W3C//DTD SVG 1.1//EN" "http://www.w3.org/Graphics/SVG/1.1/DTD/svg11.dtd">
<svg width="100%" height="100%" viewBox="0 0 61 167" version="1.1" xmlns="http://www.w3.org/2000/svg" xmlns:xlink="http://www.w3.org/1999/xlink" xml:space="preserve" xmlns:serif="http://www.serif.com/" style="fill-rule:evenodd;clip-rule:evenodd;">
    <g transform="matrix(1,0,0,1,-11172,-21731)">
        <g transform="matrix(0.115609,0.000633049,-0.000633049,0.115609,8649,18608.8)">
            <g transform="matrix(8.33333,0,0,8.33333,22425.4,27838.7)">
                <path d="M0,-33.458C-3.277,-41.609 -7.741,-74.875 -9.087,-85.327C-9.225,-86.396 -9.826,-87.296 -10.666,-87.859C-10.126,-88.292 -9.773,-88.949 -9.775,-89.695C-9.777,-90.996 -10.833,-92.048 -12.133,-92.046L-32.111,-92.011C-33.411,-92.008 -34.464,-90.952 -34.461,-89.652C-34.46,-88.906 -34.105,-88.25 -33.563,-87.819C-34.401,-87.253 -34.999,-86.351 -35.133,-85.281C-36.443,-74.825 -40.788,-41.543 -44.037,-33.38C-47.905,-23.659 -53.078,-19.441 -53.067,-12.965C-53.055,-6.489 -52.959,48.232 -52.959,48.232C-52.959,48.232 -51.321,58.59 -40.312,58.571C-33.633,58.559 -27.55,58.548 -23.798,58.541C-21.366,58.537 -19.913,58.534 -19.913,58.534C-16.162,58.528 -10.079,58.517 -3.399,58.505C7.61,58.486 9.211,48.121 9.211,48.121C9.211,48.121 9.114,-6.599 9.102,-13.075C9.091,-19.551 3.903,-23.751 0,-33.458" style="fill:rgb(232,0,24);fill-rule:nonzero;"/>
            </g>
            <g transform="matrix(8.33333,0,0,8.33333,22395.3,27806)">
                <path d="M0,47.533L-36.549,47.598C-40.79,47.605 -44.234,44.173 -44.242,39.932L-44.299,7.693C-44.306,3.452 -40.875,0.008 -36.634,0L-0.084,-0.064C4.157,-0.072 7.601,3.36 7.608,7.601L7.665,39.84C7.673,44.081 4.241,47.525 0,47.533" style="fill:white;fill-rule:nonzero;"/>
            </g>
            <g transform="matrix(8.33333,0,0,8.33333,22346.7,26889.7)">
                <path d="M0,23.295L-25.363,23.34C-25.97,23.341 -26.446,22.901 -26.392,22.391L-24.107,0.787C-24.059,0.337 -23.614,-0.008 -23.08,-0.009L-2.365,-0.045C-1.831,-0.046 -1.385,0.297 -1.336,0.746L1.026,22.342C1.082,22.853 0.607,23.294 0,23.295" style="fill:rgb(178,178,178);fill-rule:nonzero;"/>
            </g>
            <g transform="matrix(0.73635,-0.0285323,0.0285323,0.73635,5065.77,8230.89)">
                <g transform="matrix(8.33333,0,0,8.33333,22416.4,27966.5)">
                    <path d="M0,3.311C0.617,2.211 0.953,0.919 0.871,-0.242C0.729,-2.274 -0.52,-3.663 -2.436,-3.993L-2.067,-4.064C0.415,-4.537 0.938,-7.308 0.864,-8.705C0.864,-8.705 0.848,-9.306 0.807,-9.467L-3.898,-8.594C-4.189,-8.538 -4.481,-8.447 -4.771,-8.329C-4.766,-8.336 -4.762,-8.343 -4.757,-8.351C-4.588,-8.628 -4.427,-8.943 -4.271,-9.247C-3.937,-9.899 -3.397,-11.281 -2.193,-11.897C-2.924,-12.312 -4.11,-12.688 -5.675,-12.414C-7.632,-12.072 -9.139,-10.674 -9.746,-9.363C-10.192,-8.397 -10.091,-7.654 -9.917,-7.181C-10.343,-7.274 -10.814,-7.278 -11.311,-7.183L-11.395,-7.167C-12.218,-6.994 -12.903,-6.642 -13.43,-6.128C-13.434,-6.12 -13.441,-6.115 -13.447,-6.109C-13.457,-6.095 -13.468,-6.088 -13.477,-6.076C-13.526,-6.135 -13.582,-6.192 -13.641,-6.24C-13.947,-6.498 -14.374,-6.598 -14.828,-6.51C-14.828,-6.51 -18.037,-5.888 -18.126,-5.875C-18.578,-5.78 -19.489,-5.592 -20.373,-5.026C-20.842,-5.379 -21.711,-5.193 -21.711,-5.193L-23.013,-4.943C-23.067,-4.939 -23.122,-4.927 -23.174,-4.911L-24.574,-4.665L-24.558,-1.475C-24.881,-2.042 -25.276,-2.531 -25.746,-2.919C-26.688,-3.701 -27.859,-4.008 -29.042,-3.78C-29.932,-3.612 -30.765,-3.166 -31.489,-2.515C-31.163,-3.229 -30.195,-5.372 -30.195,-5.372L-30.293,-5.354L-35.324,-4.445C-35.327,-4.443 -35.333,-4.443 -35.337,-4.443C-35.344,-4.441 -35.349,-4.441 -35.349,-4.441C-35.426,-4.426 -35.501,-4.404 -35.575,-4.378L-35.645,-4.349C-36.104,-4.163 -36.495,-3.776 -36.7,-3.286C-36.72,-3.251 -36.737,-3.213 -36.749,-3.172L-37.563,-0.694L-37.58,-3.85L-37.581,-4.001L-37.728,-3.973L-41.596,-3.246C-41.6,-3.245 -41.608,-3.245 -41.612,-3.243C-42.423,-3.077 -43.078,-2.251 -43.086,-1.395C-43.087,-1.381 -43.088,-1.367 -43.088,-1.353L-42.995,15.999L-37.478,14.949L-37.508,9.626L-35.944,12.962C-35.936,12.977 -35.288,14.633 -32.99,14.122L-28.448,13.239C-27.318,13.781 -26.153,13.972 -24.859,13.965C-24.315,13.962 -23.761,13.915 -23.202,13.84C-23.134,13.831 -23.066,13.822 -22.997,13.812C-22.916,13.8 -22.834,13.788 -22.753,13.774C-22.558,13.743 -22.361,13.71 -22.156,13.671L-22.153,13.671C-19.427,13.149 -16.559,11.921 -14.03,10.838C-13.229,10.495 -12.471,10.17 -11.747,9.878C-11.196,9.659 -10.641,9.473 -10.085,9.318C-8.032,8.772 -6.308,8.769 -5.124,8.895C-3.479,9.07 -2.489,9.521 -2.462,9.533C-1.211,10.044 -0.825,10.442 -0.825,10.442C-0.924,9.723 -1.225,9.141 -1.367,8.875C-1.561,8.511 -2.158,7.354 -4.244,6.233C-3.958,6.219 -3.677,6.172 -3.404,6.09L-3.354,6.073C-3.111,6.008 -2.882,5.922 -2.66,5.821C-2.227,5.624 -1.817,5.364 -1.433,5.048C-1.2,5.514 -0.683,5.795 -0.136,5.715C-0.126,5.713 -0.085,5.705 -0.085,5.705C0.569,5.578 1.005,4.97 0.904,4.312C0.829,3.813 0.461,3.43 0,3.311" style="fill:white;fill-rule:nonzero;"/>
                </g>
                <g transform="matrix(8.33333,0,0,8.33333,22372.1,27889.4)">
                    <path d="M0,0.567C0.538,-0.32 1.016,-1.65 1.811,-2.225C0.278,-2.329 -0.904,-0.849 -2.116,0.991C-2.82,2.058 -3.392,2.413 -3.564,2.516C-2.699,2.896 -1.735,2.54 -1.135,2.008C-0.679,1.603 -0.422,1.261 0,0.567" style="fill:rgb(0,121,53);fill-rule:nonzero;"/>
                </g>
                <g transform="matrix(8.33333,0,0,8.33333,22340.7,27866.4)">
                    <path d="M0,4.943C0.542,4.618 1.019,3.999 1.323,3.537C2.423,1.87 3.63,0.249 5.258,0.147C5.013,0.07 4.469,-0.024 3.534,0.176C1.784,0.551 0.394,1.878 -0.07,2.92C-0.594,4.096 -0.177,4.786 -0.04,4.967L0,4.943Z" style="fill:rgb(0,121,53);fill-rule:nonzero;"/>
                </g>
                <g transform="matrix(8.33333,0,0,8.33333,20680.1,24875.3)">
                    <g opacity="0.5">
                        <g>
                            <clipPath id="_clip1">
                                <rect x="199.145" y="359.008" width="4.541" height="4.64" clip-rule="nonzero"/>
                            </clipPath>
                            <g clip-path="url(#_clip1)">
                                <g transform="matrix(1,0,0,1,199.298,359.078)">
                                    <path d="M0,4.562C0,4.562 -0.771,3.166 1.19,1.392C1.866,0.78 2.85,0.167 4.366,0" style="fill:none;fill-rule:nonzero;stroke:white;stroke-width:0.08px;"/>
                                </g>
                                <g transform="matrix(1,0,0,1,199.298,359.078)">
                                    <path d="M0,4.562C0,4.562 -0.749,3.163 1.198,1.398C1.873,0.786 2.855,0.172 4.366,0" style="fill:none;fill-rule:nonzero;stroke:rgb(248,252,249);stroke-width:0.13px;"/>
                                </g>
                                <g transform="matrix(1,0,0,1,199.298,359.078)">
                                    <path d="M0,4.562C0,4.562 -0.728,3.16 1.205,1.405C1.879,0.792 2.86,0.178 4.366,0" style="fill:none;fill-rule:nonzero;stroke:rgb(242,249,244);stroke-width:0.16px;"/>
                                </g>
                                <g transform="matrix(1,0,0,1,199.298,359.078)">
                                    <path d="M0,4.562C0,4.562 -0.706,3.157 1.213,1.411C1.886,0.798 2.865,0.184 4.366,0" style="fill:none;fill-rule:nonzero;stroke:rgb(237,245,239);stroke-width:0.2px;"/>
                                </g>
                                <g transform="matrix(1,0,0,1,199.298,359.078)">
                                    <path d="M0,4.562C0,4.562 -0.684,3.154 1.22,1.418C1.893,0.803 2.871,0.19 4.366,0" style="fill:none;fill-rule:nonzero;stroke:rgb(231,242,234);stroke-width:0.23px;"/>
                                </g>
                                <g transform="matrix(1,0,0,1,199.298,359.078)">
                                    <path d="M0,4.562C0,4.562 -0.662,3.151 1.228,1.425C1.899,0.809 2.876,0.195 4.366,0" style="fill:none;fill-rule:nonzero;stroke:rgb(225,239,229);stroke-width:0.28px;"/>
                                </g>
                                <g transform="matrix(1,0,0,1,199.298,359.078)">
                                    <path d="M0,4.562C0,4.562 -0.64,3.148 1.235,1.431C1.906,0.815 2.881,0.201 4.366,0" style="fill:none;fill-rule:nonzero;stroke:rgb(219,236,224);stroke-width:0.32px;"/>
                                </g>
                                <g transform="matrix(1,0,0,1,199.298,359.078)">
                                    <path d="M0,4.562C0,4.562 -0.619,3.146 1.242,1.438C1.913,0.82 2.886,0.207 4.366,0" style="fill:none;fill-rule:nonzero;stroke:rgb(213,233,219);stroke-width:0.35px;"/>
                                </g>
                                <g transform="matrix(1,0,0,1,199.298,359.078)">
                                    <clipPath id="_clip2">
                                        <rect x="-0.109" y="-0.017" width="4.477" height="4.585" clip-rule="nonzero"/>
                                    </clipPath>
                                    <g clip-path="url(#_clip2)">
                                        <path d="M0,4.562C0,4.562 -0.597,3.143 1.25,1.445C1.919,0.826 2.891,0.212 4.366,0" style="fill:none;fill-rule:nonzero;stroke:rgb(208,230,214);stroke-width:0.4px;"/>
                                    </g>
                                </g>
                                <g transform="matrix(1,0,0,1,199.298,359.078)">
                                    <clipPath id="_clip3">
                                        <rect x="-0.104" y="-0.019" width="4.473" height="4.588" clip-rule="nonzero"/>
                                    </clipPath>
                                    <g clip-path="url(#_clip3)">
                                        <path d="M0,4.562C0,4.562 -0.575,3.14 1.257,1.451C1.926,0.832 2.896,0.218 4.366,0" style="fill:none;fill-rule:nonzero;stroke:rgb(202,226,209);stroke-width:0.43px;"/>
                                    </g>
                                </g>
                                <g transform="matrix(1,0,0,1,199.298,359.078)">
                                    <clipPath id="_clip4">
                                        <rect x="-0.099" y="-0.021" width="4.468" height="4.59" clip-rule="nonzero"/>
                                    </clipPath>
                                    <g clip-path="url(#_clip4)">
                                        <path d="M0,4.562C0,4.562 -0.553,3.137 1.265,1.458C1.933,0.838 2.901,0.224 4.366,0" style="fill:none;fill-rule:nonzero;stroke:rgb(196,223,204);stroke-width:0.47px;"/>
                                    </g>
                                </g>
                                <g transform="matrix(1,0,0,1,199.298,359.078)">
                                    <clipPath id="_clip5">
                                        <rect x="-0.095" y="-0.022" width="4.464" height="4.591" clip-rule="nonzero"/>
                                    </clipPath>
                                    <g clip-path="url(#_clip5)">
                                        <path d="M0,4.562C0,4.562 -0.532,3.134 1.272,1.464C1.94,0.843 2.906,0.229 4.366,0" style="fill:none;fill-rule:nonzero;stroke:rgb(190,220,199);stroke-width:0.52px;"/>
                                    </g>
                                </g>
                                <g transform="matrix(1,0,0,1,199.298,359.078)">
                                    <clipPath id="_clip6">
                                        <rect x="-0.09" y="-0.024" width="4.46" height="4.594" clip-rule="nonzero"/>
                                    </clipPath>
                                    <g clip-path="url(#_clip6)">
                                        <path d="M0,4.562C0,4.562 -0.51,3.131 1.28,1.471C1.946,0.849 2.911,0.235 4.366,0" style="fill:none;fill-rule:nonzero;stroke:rgb(184,217,194);stroke-width:0.55px;"/>
                                    </g>
                                </g>
                                <g transform="matrix(1,0,0,1,199.298,359.078)">
                                    <clipPath id="_clip7">
                                        <rect x="-0.086" y="-0.025" width="4.456" height="4.595" clip-rule="nonzero"/>
                                    </clipPath>
                                    <g clip-path="url(#_clip7)">
                                        <path d="M0,4.562C0,4.562 -0.488,3.128 1.287,1.478C1.953,0.855 2.916,0.241 4.366,0" style="fill:none;fill-rule:nonzero;stroke:rgb(178,214,188);stroke-width:0.59px;"/>
                                    </g>
                                </g>
                                <g transform="matrix(1,0,0,1,199.298,359.078)">
                                    <clipPath id="_clip8">
                                        <rect x="-0.082" y="-0.027" width="4.452" height="4.597" clip-rule="nonzero"/>
                                    </clipPath>
                                    <g clip-path="url(#_clip8)">
                                        <path d="M0,4.562C0,4.562 -0.466,3.125 1.295,1.484C1.96,0.86 2.921,0.246 4.366,0" style="fill:none;fill-rule:nonzero;stroke:rgb(172,211,184);stroke-width:0.62px;"/>
                                    </g>
                                </g>
                                <g transform="matrix(1,0,0,1,199.298,359.078)">
                                    <clipPath id="_clip9">
                                        <rect x="-0.079" y="-0.029" width="4.45" height="4.599" clip-rule="nonzero"/>
                                    </clipPath>
                                    <g clip-path="url(#_clip9)">
                                        <path d="M0,4.562C0,4.562 -0.445,3.122 1.302,1.491C1.966,0.866 2.926,0.252 4.366,0" style="fill:none;fill-rule:nonzero;stroke:rgb(166,207,179);stroke-width:0.67px;"/>
                                    </g>
                                </g>
                                <g transform="matrix(1,0,0,1,199.298,359.078)">
                                    <clipPath id="_clip10">
                                        <rect x="-0.075" y="-0.03" width="4.446" height="4.6" clip-rule="nonzero"/>
                                    </clipPath>
                                    <g clip-path="url(#_clip10)">
                                        <path d="M0,4.562C0,4.562 -0.423,3.119 1.31,1.498C1.973,0.872 2.931,0.258 4.366,0" style="fill:none;fill-rule:nonzero;stroke:rgb(160,204,174);stroke-width:0.7px;"/>
                                    </g>
                                </g>
                                <g transform="matrix(1,0,0,1,199.298,359.078)">
                                    <clipPath id="_clip11">
                                        <rect x="-0.072" y="-0.032" width="4.444" height="4.602" clip-rule="nonzero"/>
                                    </clipPath>
                                    <g clip-path="url(#_clip11)">
                                        <path d="M0,4.562C0,4.562 -0.401,3.116 1.317,1.504C1.98,0.878 2.937,0.263 4.366,0" style="fill:none;fill-rule:nonzero;stroke:rgb(154,201,169);stroke-width:0.74px;"/>
                                    </g>
                                </g>
                                <g transform="matrix(1,0,0,1,199.298,359.078)">
                                    <clipPath id="_clip12">
                                        <rect x="-0.068" y="-0.033" width="4.44" height="4.603" clip-rule="nonzero"/>
                                    </clipPath>
                                    <g clip-path="url(#_clip12)">
                                        <path d="M0,4.562C0,4.562 -0.376,3.116 1.325,1.511C1.988,0.885 2.942,0.269 4.366,0" style="fill:none;fill-rule:nonzero;stroke:rgb(148,198,164);stroke-width:0.79px;"/>
                                    </g>
                                </g>
                                <g transform="matrix(1,0,0,1,199.298,359.078)">
                                    <clipPath id="_clip13">
                                        <rect x="-0.066" y="-0.035" width="4.439" height="4.605" clip-rule="nonzero"/>
                                    </clipPath>
                                    <g clip-path="url(#_clip13)">
                                        <path d="M0,4.562C0,4.562 -0.354,3.113 1.332,1.517C1.994,0.89 2.947,0.275 4.366,0" style="fill:none;fill-rule:nonzero;stroke:rgb(143,195,159);stroke-width:0.82px;"/>
                                    </g>
                                </g>
                                <g transform="matrix(1,0,0,1,199.298,359.078)">
                                    <clipPath id="_clip14">
                                        <rect x="-0.063" y="-0.037" width="4.436" height="4.607" clip-rule="nonzero"/>
                                    </clipPath>
                                    <g clip-path="url(#_clip14)">
                                        <path d="M0,4.562C0,4.562 -0.332,3.11 1.339,1.524C2.001,0.896 2.952,0.28 4.366,0" style="fill:none;fill-rule:nonzero;stroke:rgb(137,191,154);stroke-width:0.86px;"/>
                                    </g>
                                </g>
                                <g transform="matrix(1,0,0,1,199.298,359.078)">
                                    <clipPath id="_clip15">
                                        <rect x="-0.061" y="-0.038" width="4.435" height="4.608" clip-rule="nonzero"/>
                                    </clipPath>
                                    <g clip-path="url(#_clip15)">
                                        <path d="M0,4.562C0,4.562 -0.311,3.107 1.347,1.531C2.008,0.902 2.957,0.286 4.366,0" style="fill:none;fill-rule:nonzero;stroke:rgb(130,188,149);stroke-width:0.89px;"/>
                                    </g>
                                </g>
                                <g transform="matrix(1,0,0,1,199.298,359.078)">
                                    <clipPath id="_clip16">
                                        <rect x="-0.059" y="-0.04" width="4.433" height="4.609" clip-rule="nonzero"/>
                                    </clipPath>
                                    <g clip-path="url(#_clip16)">
                                        <path d="M0,4.562C0,4.562 -0.289,3.104 1.354,1.537C2.015,0.908 2.962,0.292 4.366,0" style="fill:none;fill-rule:nonzero;stroke:rgb(124,185,145);stroke-width:0.94px;"/>
                                    </g>
                                </g>
                                <g transform="matrix(1,0,0,1,199.298,359.078)">
                                    <clipPath id="_clip17">
                                        <rect x="-0.058" y="-0.041" width="4.433" height="4.61" clip-rule="nonzero"/>
                                    </clipPath>
                                    <g clip-path="url(#_clip17)">
                                        <path d="M0,4.562C0,4.562 -0.267,3.101 1.362,1.544C2.021,0.913 2.967,0.297 4.366,0" style="fill:none;fill-rule:nonzero;stroke:rgb(118,182,140);stroke-width:0.97px;"/>
                                    </g>
                                </g>
                                <g transform="matrix(1,0,0,1,199.298,359.078)">
                                    <clipPath id="_clip18">
                                        <rect x="-0.056" y="-0.043" width="4.431" height="4.612" clip-rule="nonzero"/>
                                    </clipPath>
                                    <g clip-path="url(#_clip18)">
                                        <path d="M0,4.562C0,4.562 -0.245,3.098 1.369,1.551C2.028,0.919 2.972,0.303 4.366,0" style="fill:none;fill-rule:nonzero;stroke:rgb(112,179,135);stroke-width:1.01px;"/>
                                    </g>
                                </g>
                                <g transform="matrix(1,0,0,1,199.298,359.078)">
                                    <clipPath id="_clip19">
                                        <rect x="-0.055" y="-0.045" width="4.431" height="4.613" clip-rule="nonzero"/>
                                    </clipPath>
                                    <g clip-path="url(#_clip19)">
                                        <path d="M0,4.562C0,4.562 -0.224,3.095 1.377,1.557C2.035,0.925 2.977,0.309 4.366,0" style="fill:none;fill-rule:nonzero;stroke:rgb(106,175,130);stroke-width:1.06px;"/>
                                    </g>
                                </g>
                                <g transform="matrix(1,0,0,1,199.298,359.078)">
                                    <clipPath id="_clip20">
                                        <rect x="-0.055" y="-0.046" width="4.431" height="4.614" clip-rule="nonzero"/>
                                    </clipPath>
                                    <g clip-path="url(#_clip20)">
                                        <path d="M0,4.562C0,4.562 -0.202,3.092 1.384,1.564C2.041,0.931 2.982,0.314 4.366,0" style="fill:none;fill-rule:nonzero;stroke:rgb(100,172,126);stroke-width:1.09px;"/>
                                    </g>
                                </g>
                                <g transform="matrix(1,0,0,1,199.298,359.078)">
                                    <clipPath id="_clip21">
                                        <rect x="-0.054" y="-0.048" width="4.431" height="4.615" clip-rule="nonzero"/>
                                    </clipPath>
                                    <g clip-path="url(#_clip21)">
                                        <path d="M0,4.562C0,4.562 -0.18,3.089 1.392,1.57C2.048,0.936 2.987,0.32 4.366,0" style="fill:none;fill-rule:nonzero;stroke:rgb(93,169,121);stroke-width:1.13px;"/>
                                    </g>
                                </g>
                                <g transform="matrix(1,0,0,1,199.298,359.078)">
                                    <clipPath id="_clip22">
                                        <rect x="-0.054" y="-0.049" width="4.431" height="4.616" clip-rule="nonzero"/>
                                    </clipPath>
                                    <g clip-path="url(#_clip22)">
                                        <path d="M0,4.562C0,4.562 -0.162,3.083 1.399,1.577C2.053,0.941 2.992,0.326 4.366,0" style="fill:none;fill-rule:nonzero;stroke:rgb(86,166,116);stroke-width:1.17px;"/>
                                    </g>
                                </g>
                                <g transform="matrix(1,0,0,1,199.298,359.078)">
                                    <clipPath id="_clip23">
                                        <rect x="-0.054" y="-0.051" width="4.432" height="4.617" clip-rule="nonzero"/>
                                    </clipPath>
                                    <g clip-path="url(#_clip23)">
                                        <path d="M0,4.562C0,4.562 -0.14,3.08 1.407,1.584C2.06,0.946 2.997,0.331 4.366,0" style="fill:none;fill-rule:nonzero;stroke:rgb(79,163,112);stroke-width:1.21px;"/>
                                    </g>
                                </g>
                                <g transform="matrix(1,0,0,1,199.298,359.078)">
                                    <clipPath id="_clip24">
                                        <rect x="-0.055" y="-0.052" width="4.434" height="4.618" clip-rule="nonzero"/>
                                    </clipPath>
                                    <g clip-path="url(#_clip24)">
                                        <path d="M0,4.562C0,4.562 -0.118,3.077 1.414,1.59C2.067,0.952 3.003,0.337 4.366,0" style="fill:none;fill-rule:nonzero;stroke:rgb(71,160,107);stroke-width:1.24px;"/>
                                    </g>
                                </g>
                                <g transform="matrix(1,0,0,1,199.298,359.078)">
                                    <clipPath id="_clip25">
                                        <rect x="-0.056" y="-0.054" width="4.435" height="4.619" clip-rule="nonzero"/>
                                    </clipPath>
                                    <g clip-path="url(#_clip25)">
                                        <path d="M0,4.562C0,4.562 -0.096,3.074 1.422,1.597C2.074,0.958 3.008,0.343 4.366,0" style="fill:none;fill-rule:nonzero;stroke:rgb(64,156,102);stroke-width:1.28px;"/>
                                    </g>
                                </g>
                                <g transform="matrix(1,0,0,1,199.298,359.078)">
                                    <clipPath id="_clip26">
                                        <rect x="-0.057" y="-0.055" width="4.437" height="4.619" clip-rule="nonzero"/>
                                    </clipPath>
                                    <g clip-path="url(#_clip26)">
                                        <path d="M0,4.562C0,4.562 -0.074,3.071 1.429,1.604C2.08,0.964 3.013,0.348 4.366,0" style="fill:none;fill-rule:nonzero;stroke:rgb(57,153,98);stroke-width:1.33px;"/>
                                    </g>
                                </g>
                                <g transform="matrix(1,0,0,1,199.298,359.078)">
                                    <clipPath id="_clip27">
                                        <rect x="-0.058" y="-0.057" width="4.439" height="4.621" clip-rule="nonzero"/>
                                    </clipPath>
                                    <g clip-path="url(#_clip27)">
                                        <path d="M0,4.562C0,4.562 -0.053,3.068 1.436,1.61C2.087,0.969 3.018,0.354 4.366,0" style="fill:none;fill-rule:nonzero;stroke:rgb(49,150,93);stroke-width:1.36px;"/>
                                    </g>
                                </g>
                                <g transform="matrix(1,0,0,1,199.298,359.078)">
                                    <clipPath id="_clip28">
                                        <rect x="-0.059" y="-0.058" width="4.44" height="4.621" clip-rule="nonzero"/>
                                    </clipPath>
                                    <g clip-path="url(#_clip28)">
                                        <path d="M0,4.562C0,4.562 -0.031,3.065 1.444,1.617C2.094,0.975 3.023,0.36 4.366,0" style="fill:none;fill-rule:nonzero;stroke:rgb(41,147,89);stroke-width:1.4px;"/>
                                    </g>
                                </g>
                                <g transform="matrix(1,0,0,1,199.298,359.078)">
                                    <clipPath id="_clip29">
                                        <rect x="-0.061" y="-0.06" width="4.443" height="4.622" clip-rule="nonzero"/>
                                    </clipPath>
                                    <g clip-path="url(#_clip29)">
                                        <path d="M0,4.562C0,4.562 -0.009,3.062 1.451,1.623C2.1,0.981 3.028,0.365 4.366,0" style="fill:none;fill-rule:nonzero;stroke:rgb(33,144,84);stroke-width:1.44px;"/>
                                    </g>
                                </g>
                                <g transform="matrix(1,0,0,1,199.298,359.078)">
                                    <clipPath id="_clip30">
                                        <rect x="-0.063" y="-0.061" width="4.446" height="4.623" clip-rule="nonzero"/>
                                    </clipPath>
                                    <g clip-path="url(#_clip30)">
                                        <path d="M0,4.562C0,4.562 0.013,3.059 1.459,1.63C2.107,0.986 3.033,0.371 4.366,0" style="fill:none;fill-rule:nonzero;stroke:rgb(24,140,80);stroke-width:1.48px;"/>
                                    </g>
                                </g>
                                <g transform="matrix(1,0,0,1,199.298,359.078)">
                                    <clipPath id="_clip31">
                                        <rect x="-0.064" y="-0.063" width="4.448" height="4.626" clip-rule="nonzero"/>
                                    </clipPath>
                                    <g clip-path="url(#_clip31)">
                                        <path d="M0,4.562C0,4.562 0.034,3.056 1.466,1.637C2.114,0.992 3.038,0.377 4.366,0" style="fill:none;fill-rule:nonzero;stroke:rgb(15,137,75);stroke-width:1.51px;"/>
                                    </g>
                                </g>
                                <g transform="matrix(1,0,0,1,199.298,359.078)">
                                    <clipPath id="_clip32">
                                        <rect x="-0.066" y="-0.064" width="4.45" height="4.628" clip-rule="nonzero"/>
                                    </clipPath>
                                    <g clip-path="url(#_clip32)">
                                        <path d="M0,4.562C0,4.562 0.056,3.053 1.474,1.643C2.12,0.998 3.043,0.382 4.366,0" style="fill:none;fill-rule:nonzero;stroke:rgb(11,134,71);stroke-width:1.55px;"/>
                                    </g>
                                </g>
                                <g transform="matrix(1,0,0,1,199.298,359.078)">
                                    <clipPath id="_clip33">
                                        <rect x="-0.068" y="-0.066" width="4.453" height="4.631" clip-rule="nonzero"/>
                                    </clipPath>
                                    <g clip-path="url(#_clip33)">
                                        <path d="M0,4.562C0,4.562 0.078,3.05 1.481,1.65C2.127,1.004 3.048,0.388 4.366,0" style="fill:none;fill-rule:nonzero;stroke:rgb(5,131,66);stroke-width:1.6px;"/>
                                    </g>
                                </g>
                                <g transform="matrix(1,0,0,1,199.298,359.078)">
                                    <clipPath id="_clip34">
                                        <rect x="-0.069" y="-0.067" width="4.455" height="4.633" clip-rule="nonzero"/>
                                    </clipPath>
                                    <g clip-path="url(#_clip34)">
                                        <path d="M0,4.562C0,4.562 0.1,3.047 1.489,1.657C2.134,1.009 3.053,0.394 4.366,0" style="fill:none;fill-rule:nonzero;stroke:rgb(0,128,62);stroke-width:1.63px;"/>
                                    </g>
                                </g>
                                <g transform="matrix(1,0,0,1,199.298,359.078)">
                                    <clipPath id="_clip35">
                                        <rect x="-0.071" y="-0.069" width="4.458" height="4.636" clip-rule="nonzero"/>
                                    </clipPath>
                                    <g clip-path="url(#_clip35)">
                                        <path d="M0,4.562C0,4.562 0.122,3.044 1.496,1.663C2.141,1.015 3.058,0.399 4.366,0" style="fill:none;fill-rule:nonzero;stroke:rgb(0,124,57);stroke-width:1.67px;"/>
                                    </g>
                                </g>
                                <g transform="matrix(1,0,0,1,199.298,359.078)">
                                    <clipPath id="_clip36">
                                        <rect x="-0.072" y="-0.07" width="4.46" height="4.638" clip-rule="nonzero"/>
                                    </clipPath>
                                    <g clip-path="url(#_clip36)">
                                        <path d="M0,4.562C0,4.562 0.143,3.041 1.504,1.67C2.147,1.021 3.063,0.405 4.366,0" style="fill:none;fill-rule:nonzero;stroke:rgb(0,121,53);stroke-width:1.71px;"/>
                                    </g>
                                </g>
                            </g>
                        </g>
                    </g>
                </g>
                <g transform="matrix(8.33333,0,0,8.33333,22316.7,27982.9)">
                    <path d="M0,2.565C0.045,2.481 -0.049,2.641 0,2.565M-9.861,-3.602C-9.861,-3.602 -9.897,-4.412 -9.463,-5.565C-9.402,-5.728 -9.205,-6.192 -8.957,-6.423C-9.01,-6.643 -9.419,-6.546 -9.419,-6.546C-9.423,-6.546 -11.921,-6.037 -11.921,-6.037L-11.887,1.078C-11.911,3.526 -13.321,6.454 -15.378,7.497C-15.378,7.497 -11.095,6.913 -9.343,4.214C-8.846,3.423 -8.495,2.357 -8.502,1.105C-8.502,1.105 -8.508,-0.096 -8.514,-1.111C-8.521,-2.352 -7.61,-3.317 -5.999,-3.303L-6.026,-7.16C-7.176,-6.922 -9.327,-6.335 -9.861,-3.602M12.14,-2.158C12.006,-4.073 10.749,-5.251 8.839,-5.336C8.839,-5.336 7.989,-5.289 8.006,-5.946C8.009,-6.064 8.111,-6.395 8.442,-6.455L9.763,-6.707C12.308,-7.195 12.134,-10.633 12.134,-10.633L8.197,-9.883C6.217,-9.509 4.23,-7.507 4.226,-4.636C4.225,-3.391 5.031,-1.927 7.489,-1.313C7.551,-1.295 7.61,-1.275 7.661,-1.254L7.661,-1.248C7.909,-1.182 8.112,-0.984 8.161,-0.716C8.231,-0.356 8.005,-0.012 7.653,0.073L7.653,0.08C7.646,0.083 7.634,0.083 7.624,0.085C7.624,0.085 7.619,0.086 7.617,0.088L7.596,0.088C7.437,0.112 7.245,0.103 7.002,0.043C6.096,-0.184 2.162,-0.927 0,2.565C0,2.565 2.353,2.379 4.612,3.046C4.945,3.144 5.253,3.219 5.542,3.289C6.206,3.45 6.668,3.544 7.155,3.571C7.501,3.591 7.934,3.591 8.357,3.464C8.379,3.457 8.402,3.452 8.422,3.445C8.626,3.389 8.823,3.314 9.012,3.226C9.441,3.034 9.83,2.777 10.183,2.475L10.25,2.415C11.444,1.348 12.255,-0.542 12.14,-2.158M-17.859,-0.273L-15.527,-0.719C-15.442,-2.007 -16.247,-2.326 -16.699,-2.245C-17.357,-2.123 -17.862,-1.543 -17.859,-0.273M-16.994,7.574C-19.528,8.058 -21.576,5.622 -21.566,2.132C-21.554,-1.36 -19.49,-4.582 -16.954,-5.068C-14.417,-5.552 -12.371,-3.114 -12.382,0.377C-12.383,0.521 -12.388,0.665 -12.394,0.807L-17.845,1.848C-17.986,3.547 -16.729,4.664 -15.035,4.337C-14.185,4.176 -13.389,3.683 -12.784,3.016C-13.507,5.365 -15.121,7.215 -16.994,7.574M-19.545,8.424C-21.879,4.563 -22.824,2.431 -22.824,2.431C-22.305,-0.411 -19.359,-6.472 -19.359,-6.472L-23.236,-5.731C-23.242,-5.729 -23.253,-5.728 -23.262,-5.725C-23.658,-5.648 -23.991,-5.305 -24.129,-4.923L-24.135,-4.921L-26.275,1.596L-26.31,-5.141L-29.501,-4.532L-29.503,-4.532C-29.507,-4.531 -29.509,-4.531 -29.513,-4.531C-30.03,-4.429 -30.441,-3.861 -30.438,-3.33L-30.438,-3.323L-30.439,-3.321L-30.349,13.198L-26.214,12.406L-26.26,4.54L-26.221,4.516L-23.402,10.563C-23.236,10.897 -23.124,11.13 -22.707,11.361C-22.418,11.522 -21.989,11.603 -21.458,11.501L-17.443,10.729C-18.2,10.294 -19.08,9.193 -19.545,8.424M-5.999,-3.303C-6.039,-3.295 -5.999,-3.303 -5.999,-3.303M-5.474,3.832L-5.535,-7.261L-2.741,-7.796L-2.74,-7.796C-2.288,-7.889 -1.917,-7.654 -1.921,-7.179C-1.903,-7.057 -1.903,-6.956 -1.906,-6.859L-1.907,-5.761C-1.907,-5.761 -1.766,-6.772 -0.987,-7.598C-0.499,-8.075 0.095,-8.326 0.707,-8.454C2.229,-8.776 3.362,-8.029 3.352,-6.449L3.385,-0.642C3.38,-0.641 3.375,-0.644 3.37,-0.642C2.117,-0.339 0.792,0.369 -0.222,1.846L-0.257,-3.818C-0.254,-4.259 -0.464,-4.708 -1.007,-4.632C-1.463,-4.57 -1.878,-4.128 -1.881,-3.691L-1.86,2.803C-3.051,3.021 -4.243,3.375 -5.474,3.832" style="fill:rgb(42,37,35);fill-rule:nonzero;"/>
                </g>
                <g transform="matrix(8.33333,0,0,8.33333,20680.1,24875.3)">
                    <g opacity="0.62">
                        <g transform="matrix(1,0,0,1,171.51,369.629)">
                            <path d="M0,-2.057L-0.741,-2.682L-0.741,-2.531L-0.724,0.625L0.003,-1.584L0,-2.057Z" style="fill:rgb(158,157,159);fill-rule:nonzero;"/>
                        </g>
                    </g>
                </g>
                <g transform="matrix(8.33333,0,0,8.33333,22385.3,28077.9)">
                    <path d="M0,-22.003C0,-22.003 0.109,-22.233 0.145,-22.305C0.479,-22.967 0.884,-24.173 2.143,-24.763C2.143,-24.763 1.901,-25.046 1.534,-25.263C0.33,-24.647 -0.21,-23.264 -0.544,-22.613C-0.7,-22.309 -0.862,-21.994 -1.03,-21.716C-1.035,-21.709 -1.039,-21.702 -1.044,-21.694C-0.754,-21.812 -0.462,-21.904 -0.171,-21.959L0,-22.003ZM5.333,-21.497C5.333,-21.497 5.334,-21.917 5.327,-22.17L4.534,-22.833C4.575,-22.672 4.591,-22.07 4.591,-22.07C4.665,-20.673 4.141,-17.903 1.659,-17.429L1.291,-17.358C3.206,-17.029 4.456,-15.64 4.598,-13.608C4.679,-12.447 4.343,-11.155 3.727,-10.055C3.779,-10.041 3.829,-10.024 3.878,-10.004C3.894,-9.997 3.909,-9.99 3.925,-9.983C3.958,-9.968 3.99,-9.952 4.022,-9.934C4.038,-9.924 4.055,-9.915 4.071,-9.905C4.105,-9.884 4.138,-9.86 4.17,-9.835C4.18,-9.828 4.191,-9.821 4.2,-9.813C4.425,-9.628 4.584,-9.363 4.63,-9.053C4.732,-8.396 4.296,-7.787 3.642,-7.661C3.642,-7.661 3.6,-7.653 3.591,-7.651C3.186,-7.592 2.799,-7.731 2.53,-7.995L2.53,-7.996C2.483,-8.041 2.441,-8.09 2.402,-8.143C2.401,-8.144 2.4,-8.145 2.399,-8.146C2.359,-8.2 2.324,-8.258 2.293,-8.318C1.909,-8.002 1.5,-7.741 1.067,-7.545C0.844,-7.444 0.615,-7.358 0.372,-7.293L0.323,-7.276C0.05,-7.194 -0.231,-7.146 -0.517,-7.133C1.568,-6.012 2.166,-4.854 2.36,-4.491C2.502,-4.225 2.899,-3.404 2.901,-2.924C2.901,-2.924 2.516,-3.322 1.265,-3.833C1.238,-3.845 0.248,-4.296 -1.397,-4.471C-2.581,-4.597 -4.305,-4.593 -6.358,-4.048C-6.914,-3.892 -7.47,-3.707 -8.021,-3.488C-8.744,-3.196 -9.502,-2.871 -10.303,-2.528C-12.832,-1.445 -15.7,-0.217 -18.426,0.305L-18.429,0.305C-18.634,0.344 -18.832,0.378 -19.026,0.409C-19.108,0.422 -19.189,0.434 -19.27,0.446C-19.339,0.456 -19.407,0.465 -19.475,0.474C-20.034,0.549 -20.588,0.596 -21.132,0.599C-22.426,0.606 -23.591,0.415 -24.721,-0.127L-29.263,0.757C-31.561,1.267 -32.2,-0.363 -32.218,-0.404L-33.781,-3.739L-33.751,1.604L-39.268,2.654L-38.527,3.26L-33.01,2.21L-33.025,-0.503C-32.82,-0.072 -32.765,0.038 -32.765,0.039C-32.584,0.429 -32.219,0.828 -31.963,1.036C-31.681,1.242 -31.326,1.421 -30.886,1.522C-30.234,1.647 -29.531,1.565 -28.933,1.443L-24.681,0.62C-24.345,0.805 -24.034,0.921 -23.656,1.044C-22.869,1.249 -22.024,1.352 -21.128,1.347C-20.584,1.344 -20.011,1.301 -19.379,1.216C-19.307,1.206 -19.236,1.197 -19.146,1.184C-19.066,1.172 -18.986,1.16 -18.908,1.147C-18.728,1.119 -18.545,1.088 -18.357,1.053L-18.285,1.04C-15.479,0.502 -12.573,-0.742 -10.009,-1.84L-9.863,-1.903C-9.118,-2.222 -8.414,-2.523 -7.744,-2.793C-7.237,-2.995 -6.703,-3.175 -6.166,-3.325C-4.164,-3.857 -2.511,-3.837 -1.476,-3.727C0.029,-3.567 0.944,-3.157 0.952,-3.154L0.982,-3.141C1.767,-2.806 1.959,-2.667 2.425,-2.343C2.947,-1.981 3.331,-1.608 3.331,-1.608L3.348,-1.699C3.403,-1.965 3.432,-2.375 3.393,-2.798C3.346,-3.543 3.001,-4.288 2.858,-4.556C2.453,-5.315 1.801,-6.041 0.967,-6.675C0.999,-6.683 1.031,-6.693 1.064,-6.702L1.114,-6.719C1.357,-6.785 1.586,-6.87 1.808,-6.971C2.079,-7.094 2.339,-7.243 2.59,-7.415C2.601,-7.422 2.651,-7.457 2.691,-7.486C3.001,-7.182 3.446,-7.023 3.911,-7.091C3.922,-7.093 3.97,-7.102 3.97,-7.102C4.723,-7.248 5.224,-7.948 5.107,-8.705C5.04,-9.157 4.763,-9.523 4.391,-9.727L4.428,-9.785C4.855,-10.461 5.343,-11.917 5.339,-13.035C5.334,-14.895 4.317,-16.413 2.734,-17.084C4.701,-17.656 5.293,-20.208 5.333,-21.497M-26.334,-16.822C-26.842,-16.594 -27.322,-16.276 -27.762,-15.881C-27.437,-16.595 -26.468,-18.738 -26.468,-18.738L-25.738,-18.125L-26.334,-16.822Z" style="fill:rgb(158,157,159);fill-rule:nonzero;"/>
                </g>
                <g transform="matrix(8.33333,0,0,8.33333,22398.3,28067.9)">
                    <path d="M0,-3.255C0,-3.255 -4.159,-5.229 -10.031,-2.869C-15.986,-0.481 -24.604,4.366 -28.829,-2.091C-28.829,-2.091 -27.316,-1.498 -24.624,-2.121C-21.218,-2.909 -19.762,-3.66 -17.528,-4.671C-13.309,-6.581 -9.867,-7.621 -5.572,-6.556C-1.276,-5.492 0,-3.255 0,-3.255" style="fill:rgb(0,121,53);fill-rule:nonzero;"/>
                </g>
                <g transform="matrix(8.33333,0,0,8.33333,22413.9,28008.8)">
                    <path d="M0,-1.191C-0.328,-1.189 -0.594,-0.921 -0.592,-0.592C-0.59,-0.264 -0.322,0.001 0.006,0C0.335,-0.002 0.6,-0.271 0.599,-0.599C0.597,-0.927 0.328,-1.193 0,-1.191M0.007,0.134C-0.395,0.136 -0.724,-0.19 -0.726,-0.592C-0.728,-0.994 -0.403,-1.323 -0.001,-1.325C0.402,-1.327 0.73,-1.002 0.733,-0.6C0.735,-0.198 0.409,0.131 0.007,0.134M0.14,-0.765C0.138,-0.832 0.09,-0.873 -0.014,-0.872C-0.058,-0.87 -0.088,-0.866 -0.105,-0.864L-0.102,-0.659L-0.023,-0.659C0.067,-0.659 0.14,-0.693 0.14,-0.765M0.306,-0.438C0.328,-0.329 0.344,-0.285 0.361,-0.264L0.181,-0.264C0.159,-0.286 0.147,-0.348 0.125,-0.429C0.108,-0.508 0.065,-0.542 -0.026,-0.54L-0.105,-0.541L-0.102,-0.257L-0.266,-0.256L-0.276,-0.964C-0.211,-0.979 -0.12,-0.992 -0.004,-0.995C0.132,-0.997 0.194,-0.974 0.245,-0.942C0.286,-0.91 0.317,-0.857 0.317,-0.791C0.317,-0.707 0.26,-0.646 0.171,-0.62L0.171,-0.609C0.242,-0.589 0.283,-0.533 0.306,-0.438" style="fill:rgb(42,37,35);fill-rule:nonzero;"/>
                </g>
                <g transform="matrix(5.66615,6.11058,6.11058,-5.66615,22228.8,27936.4)">
                    <path d="M1.918,-0.838C0.68,1.595 1.463,3.208 2.074,4.25L1.918,4.394C1.402,3.54 0.582,1.988 1.347,0.163C1.678,-0.543 1.918,-0.838 1.918,-0.838" style="fill:rgb(95,91,92);fill-rule:nonzero;"/>
                </g>
                <g transform="matrix(8.33333,0,0,8.33333,22163.8,28072.4)">
                    <path d="M0,-0.775C0.27,-0.475 0.556,-0.203 0.834,0L0.915,-0.016C0.618,-0.186 0.302,-0.46 0,-0.775" style="fill:rgb(95,91,92);fill-rule:nonzero;"/>
                </g>
                <g transform="matrix(8.33333,0,0,8.33333,22185.2,27982.1)">
                    <path d="M0,-1.754C0.178,-1.512 0.293,-1.15 0.259,-0.624L-1.904,-0.21C-1.907,-0.142 -1.909,-0.073 -1.909,0L0.423,-0.446C0.467,-1.122 0.266,-1.53 0,-1.754" style="fill:rgb(95,91,92);fill-rule:nonzero;"/>
                </g>
                <g transform="matrix(8.33333,0,0,8.33333,22191.5,28011.1)">
                    <path d="M0,0.955C-0.88,1.124 -1.639,0.902 -2.148,0.414C-1.647,1.025 -0.815,1.321 0.165,1.132C0.864,1 1.525,0.641 2.075,0.147C2.138,-0.021 2.198,-0.192 2.252,-0.366C1.647,0.301 0.851,0.794 0,0.955" style="fill:rgb(95,91,92);fill-rule:nonzero;"/>
                </g>
                <g transform="matrix(6.09556,-5.6823,-5.6823,-6.09556,22391.8,27945.1)">
                    <path d="M0.43,0.46C1.121,-0.244 1.484,-1.042 1.51,-1.854C1.555,-0.959 1.19,-0.071 0.43,0.702C0.43,0.702 0.156,0.933 0.089,1.222C-0.012,0.83 0.43,0.46 0.43,0.46" style="fill:rgb(95,91,92);fill-rule:nonzero;"/>
                </g>
                <g transform="matrix(8.33333,0,0,8.33333,22353.3,27910)">
                    <path d="M0,4.281C0.004,1.409 1.991,-0.593 3.971,-0.966L7.745,-1.686C7.747,-1.817 7.743,-1.894 7.743,-1.894L3.806,-1.143C1.826,-0.77 -0.16,1.232 -0.165,4.104C-0.165,4.787 0.08,5.536 0.706,6.175C0.2,5.578 -0.001,4.902 0,4.281" style="fill:rgb(95,91,92);fill-rule:nonzero;"/>
                </g>
                <g transform="matrix(8.33333,0,0,8.33333,22300.9,27910.7)">
                    <path d="M0,2.894C0,2.894 0.182,2.153 0.961,1.326C1.45,0.849 2.167,0.507 2.778,0.379C3.627,0.2 4.355,0.353 4.831,0.798C4.368,0.218 3.567,0 2.613,0.202C2.002,0.33 1.408,0.58 0.919,1.057C0.527,1.473 0.167,2.081 0,2.894" style="fill:rgb(95,91,92);fill-rule:nonzero;"/>
                </g>
                <g transform="matrix(8.33333,0,0,8.33333,22137,27975.8)">
                    <path d="M0,2.979C-0.006,4.877 0.598,6.462 1.557,7.436C0.694,6.452 0.159,4.943 0.165,3.156C0.176,-0.336 2.241,-3.557 4.776,-4.043C5.934,-4.264 6.988,-3.876 7.792,-3.058C6.97,-3.996 5.85,-4.457 4.611,-4.221C2.076,-3.734 0.012,-0.513 0,2.979" style="fill:rgb(95,91,92);fill-rule:nonzero;"/>
                </g>
                <g transform="matrix(8.33333,0,0,8.33333,22316,27992.2)">
                    <path d="M0,-4.764C0.002,-5.05 -0.087,-5.339 -0.297,-5.487C-0.204,-5.334 -0.163,-5.137 -0.165,-4.941L-0.129,0.723C-0.076,0.645 -0.021,0.571 0.033,0.498L0,-4.764Z" style="fill:rgb(95,91,92);fill-rule:nonzero;"/>
                </g>
                <g transform="matrix(8.33333,0,0,8.33333,22272,28008.3)">
                    <path d="M0,-10.138L2.794,-10.673L2.795,-10.673C3.014,-10.718 3.212,-10.685 3.36,-10.586C3.224,-10.816 2.949,-10.916 2.631,-10.85L2.629,-10.85L-0.165,-10.315L-0.103,0.778C-0.049,0.757 0.006,0.738 0.06,0.719L0,-10.138Z" style="fill:rgb(95,91,92);fill-rule:nonzero;"/>
                </g>
                <g transform="matrix(8.33333,0,0,8.33333,22316.7,28004.2)">
                    <path d="M0,0.008C0.045,-0.076 -0.049,0.084 0,0.008" style="fill:rgb(95,91,92);fill-rule:nonzero;"/>
                </g>
                <g transform="matrix(8.33333,0,0,8.33333,22376.5,27994.5)">
                    <path d="M0,-1.172C0.243,-1.111 0.436,-1.102 0.594,-1.127L0.615,-1.127C0.618,-1.128 0.622,-1.13 0.622,-1.13C0.632,-1.131 0.644,-1.131 0.652,-1.134L0.652,-1.142C1.004,-1.227 1.229,-1.571 1.159,-1.931C1.128,-2.104 1.031,-2.248 0.9,-2.345C0.945,-2.275 0.979,-2.196 0.995,-2.108C1.064,-1.748 0.839,-1.404 0.487,-1.319L0.487,-1.312C0.48,-1.309 0.467,-1.309 0.458,-1.307C0.458,-1.307 0.453,-1.306 0.451,-1.304L0.429,-1.304C0.271,-1.28 0.079,-1.289 -0.165,-1.349C-1.07,-1.576 -5.004,-2.319 -7.166,1.173C-7.166,1.173 -7.061,1.165 -6.875,1.158C-4.689,-2.11 -0.888,-1.395 0,-1.172" style="fill:rgb(95,91,92);fill-rule:nonzero;"/>
                </g>
                <g transform="matrix(8.33333,0,0,8.33333,22064.5,28076.2)">
                    <path d="M0,-14.345L0.001,-14.346L0.001,-14.353C-0.002,-14.884 0.408,-15.453 0.926,-15.554C0.93,-15.554 0.932,-15.554 0.935,-15.555L0.938,-15.555L3.965,-16.133L3.963,-16.342L0.773,-15.733L0.771,-15.733C0.767,-15.732 0.765,-15.732 0.761,-15.731C0.244,-15.63 -0.167,-15.062 -0.164,-14.531L-0.164,-14.524L-0.165,-14.522L-0.076,1.997L0.088,1.966L0,-14.345Z" style="fill:rgb(95,91,92);fill-rule:nonzero;"/>
                </g>
                <g transform="matrix(8.33333,0,0,8.33333,22099.2,27928.9)">
                    <path d="M0,8.246L2.139,1.729L2.145,1.727C2.284,1.345 2.617,1.002 3.013,0.924C3.022,0.921 3.033,0.921 3.039,0.919L6.641,0.23C6.711,0.084 6.751,0 6.751,0L2.875,0.742C2.868,0.744 2.857,0.744 2.848,0.747C2.452,0.824 2.119,1.168 1.981,1.549L1.975,1.551L-0.004,7.578L0,8.246Z" style="fill:rgb(95,91,92);fill-rule:nonzero;"/>
                </g>
                <g transform="matrix(8.33333,0,0,8.33333,22123.1,28025.5)">
                    <path d="M0,5.63L-2.819,-0.418L-2.858,-0.394L-2.857,-0.325L-0.165,5.453C-0.047,5.69 0.046,5.876 0.24,6.048C0.146,5.924 0.079,5.789 0,5.63" style="fill:rgb(95,91,92);fill-rule:nonzero;"/>
                </g>
                <g transform="matrix(8.33333,0,0,8.33333,22219.1,27979.5)">
                    <path d="M0,1.657L-0.035,-5.458C-0.035,-5.458 2.463,-5.967 2.468,-5.967C2.468,-5.967 2.603,-5.997 2.728,-5.983C2.74,-5.995 2.752,-6.01 2.764,-6.021C2.711,-6.241 2.303,-6.144 2.303,-6.144C2.299,-6.144 -0.199,-5.635 -0.199,-5.635L-0.165,1.48C-0.189,3.928 -1.6,6.856 -3.656,7.898C-3.656,7.898 -3.398,7.863 -2.983,7.77C-1.206,6.539 -0.022,3.898 0,1.657" style="fill:rgb(95,91,92);fill-rule:nonzero;"/>
                </g>
                <g transform="matrix(8.33333,0,0,8.33333,20680.1,24875.3)">
                    <g opacity="0.35">
                        <g>
                            <clipPath id="_clip37">
                                <rect x="178.723" y="376.689" width="25.455" height="5.472" clip-rule="nonzero"/>
                            </clipPath>
                            <g clip-path="url(#_clip37)">
                                <g transform="matrix(1,0,0,1,204.15,379.298)">
                                    <path d="M0,-0.608C-0.815,-1.167 -2.003,-1.769 -3.68,-2.185C-7.727,-3.188 -10.991,-2.266 -15.26,-0.334C-15.484,-0.232 -15.701,-0.133 -15.912,-0.037C-17.83,0.839 -19.344,1.531 -22.463,2.253C-23.673,2.533 -24.667,2.58 -25.412,2.539" style="fill:none;fill-rule:nonzero;stroke:white;stroke-width:0.34px;"/>
                                </g>
                                <g transform="matrix(1,0,0,1,204.15,379.303)">
                                    <path d="M0,-0.613C-0.814,-1.169 -1.998,-1.77 -3.677,-2.185C-7.725,-3.187 -10.989,-2.259 -15.258,-0.327C-15.482,-0.226 -15.699,-0.127 -15.91,-0.03C-17.828,0.846 -19.328,1.533 -22.447,2.252C-23.669,2.533 -24.674,2.574 -25.412,2.534" style="fill:none;fill-rule:nonzero;stroke:rgb(252,253,252);stroke-width:0.35px;"/>
                                </g>
                                <g transform="matrix(1,0,0,1,204.15,379.309)">
                                    <path d="M0,-0.619C-0.814,-1.173 -1.993,-1.772 -3.674,-2.187C-7.723,-3.187 -10.987,-2.254 -15.256,-0.322C-15.48,-0.22 -15.697,-0.121 -15.908,-0.025C-17.826,0.851 -19.311,1.534 -22.431,2.25C-23.665,2.532 -24.681,2.568 -25.412,2.528" style="fill:none;fill-rule:nonzero;stroke:rgb(249,252,250);stroke-width:0.36px;"/>
                                </g>
                                <g transform="matrix(1,0,0,1,204.15,379.315)">
                                    <path d="M0,-0.625C-0.813,-1.177 -1.987,-1.773 -3.671,-2.188C-7.721,-3.187 -10.985,-2.248 -15.254,-0.316C-15.478,-0.215 -15.695,-0.116 -15.907,-0.019C-17.824,0.857 -19.295,1.534 -22.415,2.248C-23.661,2.531 -24.689,2.562 -25.412,2.522" style="fill:none;fill-rule:nonzero;stroke:rgb(247,251,248);stroke-width:0.39px;"/>
                                </g>
                                <g transform="matrix(1,0,0,1,204.15,379.32)">
                                    <path d="M0,-0.63C-0.813,-1.179 -1.982,-1.774 -3.668,-2.189C-7.719,-3.186 -10.983,-2.242 -15.252,-0.31C-15.477,-0.208 -15.693,-0.109 -15.905,-0.013C-17.822,0.863 -19.278,1.536 -22.399,2.247C-23.657,2.53 -24.696,2.556 -25.412,2.517" style="fill:none;fill-rule:nonzero;stroke:rgb(244,250,246);stroke-width:0.4px;"/>
                                </g>
                                <g transform="matrix(1,0,0,1,204.15,379.326)">
                                    <path d="M0,-0.636C-0.812,-1.183 -1.977,-1.776 -3.665,-2.19C-7.716,-3.186 -10.981,-2.236 -15.25,-0.304C-15.475,-0.203 -15.691,-0.104 -15.903,-0.007C-17.82,0.869 -19.262,1.537 -22.384,2.245C-23.653,2.529 -24.703,2.55 -25.412,2.511" style="fill:none;fill-rule:nonzero;stroke:rgb(242,248,244);stroke-width:0.41px;"/>
                                </g>
                                <g transform="matrix(1,0,0,1,204.15,379.331)">
                                    <path d="M0,-0.641C-0.812,-1.185 -1.971,-1.777 -3.663,-2.191C-7.714,-3.185 -10.979,-2.23 -15.248,-0.298C-15.473,-0.196 -15.689,-0.097 -15.901,-0.001C-17.818,0.875 -19.244,1.545 -22.368,2.244C-23.648,2.531 -24.711,2.544 -25.412,2.506" style="fill:none;fill-rule:nonzero;stroke:rgb(240,247,242);stroke-width:0.42px;"/>
                                </g>
                                <g transform="matrix(1,0,0,1,204.15,379.337)">
                                    <path d="M0,-0.647C-0.811,-1.189 -1.966,-1.778 -3.66,-2.192C-7.712,-3.185 -10.977,-2.224 -15.246,-0.292C-15.471,-0.191 -15.687,-0.092 -15.899,0.005C-17.816,0.881 -19.227,1.546 -22.352,2.242C-23.644,2.53 -24.718,2.538 -25.412,2.5" style="fill:none;fill-rule:nonzero;stroke:rgb(238,246,240);stroke-width:0.43px;"/>
                                </g>
                                <g transform="matrix(1,0,0,1,204.15,379.343)">
                                    <path d="M0,-0.653C-0.811,-1.193 -1.961,-1.78 -3.657,-2.194C-7.71,-3.185 -10.975,-2.219 -15.245,-0.287C-15.469,-0.185 -15.685,-0.086 -15.897,0.01C-17.814,0.886 -19.211,1.548 -22.336,2.241C-23.64,2.53 -24.726,2.532 -25.412,2.494" style="fill:none;fill-rule:nonzero;stroke:rgb(235,244,238);stroke-width:0.45px;"/>
                                </g>
                                <g transform="matrix(1,0,0,1,204.15,379.352)">
                                    <path d="M0,-0.662C-0.81,-1.199 -1.955,-1.785 -3.654,-2.198C-7.708,-3.188 -10.973,-2.217 -15.243,-0.284C-15.467,-0.183 -15.684,-0.084 -15.895,0.013C-17.812,0.889 -19.194,1.546 -22.32,2.236C-23.636,2.526 -24.733,2.522 -25.412,2.485" style="fill:none;fill-rule:nonzero;stroke:rgb(233,243,236);stroke-width:0.47px;"/>
                                </g>
                                <g transform="matrix(1,0,0,1,204.15,379.363)">
                                    <path d="M0,-0.673C-0.81,-1.208 -1.95,-1.791 -3.651,-2.205C-7.706,-3.193 -10.971,-2.216 -15.241,-0.284C-15.465,-0.182 -15.682,-0.083 -15.893,0.013C-17.81,0.889 -19.177,1.543 -22.304,2.229C-23.631,2.52 -24.74,2.511 -25.412,2.474" style="fill:none;fill-rule:nonzero;stroke:rgb(230,242,233);stroke-width:0.48px;"/>
                                </g>
                                <g transform="matrix(1,0,0,1,204.15,379.374)">
                                    <path d="M0,-0.684C-0.809,-1.216 -1.945,-1.798 -3.648,-2.211C-7.704,-3.198 -10.969,-2.216 -15.239,-0.283C-15.463,-0.182 -15.68,-0.083 -15.891,0.014C-17.808,0.89 -19.161,1.539 -22.288,2.222C-23.627,2.514 -24.748,2.499 -25.412,2.463" style="fill:none;fill-rule:nonzero;stroke:rgb(228,240,231);stroke-width:0.49px;"/>
                                </g>
                                <g transform="matrix(1,0,0,1,204.15,379.385)">
                                    <path d="M0,-0.695C-0.809,-1.225 -1.939,-1.805 -3.646,-2.218C-7.702,-3.203 -10.967,-2.215 -15.237,-0.283C-15.461,-0.181 -15.678,-0.082 -15.889,0.014C-17.807,0.89 -19.144,1.536 -22.272,2.215C-23.623,2.508 -24.755,2.488 -25.412,2.452" style="fill:none;fill-rule:nonzero;stroke:rgb(225,239,229);stroke-width:0.5px;"/>
                                </g>
                                <g transform="matrix(1,0,0,1,204.15,379.396)">
                                    <path d="M0,-0.706C-0.808,-1.234 -1.934,-1.811 -3.643,-2.224C-7.7,-3.208 -10.966,-2.215 -15.235,-0.283C-15.459,-0.181 -15.676,-0.082 -15.887,0.015C-17.805,0.891 -19.128,1.532 -22.256,2.208C-23.619,2.502 -24.763,2.477 -25.412,2.441" style="fill:none;fill-rule:nonzero;stroke:rgb(223,238,227);stroke-width:0.52px;"/>
                                </g>
                                <g transform="matrix(1,0,0,1,204.15,379.407)">
                                    <path d="M0,-0.717C-0.808,-1.242 -1.928,-1.818 -3.64,-2.231C-7.698,-3.213 -10.964,-2.214 -15.233,-0.282C-15.457,-0.18 -15.674,-0.082 -15.885,0.015C-17.803,0.891 -19.111,1.528 -22.24,2.201C-23.615,2.496 -24.77,2.465 -25.412,2.43" style="fill:none;fill-rule:nonzero;stroke:rgb(220,236,225);stroke-width:0.53px;"/>
                                </g>
                                <g transform="matrix(1,0,0,1,204.15,379.419)">
                                    <path d="M0,-0.729C-0.807,-1.252 -1.923,-1.826 -3.637,-2.238C-7.696,-3.218 -10.962,-2.215 -15.231,-0.283C-15.455,-0.181 -15.672,-0.082 -15.883,0.015C-17.801,0.891 -19.094,1.524 -22.224,2.193C-23.611,2.489 -24.777,2.453 -25.412,2.418" style="fill:none;fill-rule:nonzero;stroke:rgb(218,235,223);stroke-width:0.54px;"/>
                                </g>
                                <g transform="matrix(1,0,0,1,204.15,379.43)">
                                    <path d="M0,-0.74C-0.807,-1.261 -1.918,-1.833 -3.634,-2.245C-7.694,-3.223 -10.96,-2.214 -15.229,-0.282C-15.453,-0.18 -15.67,-0.082 -15.882,0.015C-17.799,0.891 -19.078,1.52 -22.208,2.186C-23.607,2.483 -24.785,2.441 -25.412,2.407" style="fill:none;fill-rule:nonzero;stroke:rgb(216,234,221);stroke-width:0.56px;"/>
                                </g>
                                <g transform="matrix(1,0,0,1,204.15,379.441)">
                                    <path d="M0,-0.751C-0.807,-1.269 -1.912,-1.839 -3.631,-2.251C-7.692,-3.228 -10.958,-2.214 -15.227,-0.282C-15.451,-0.18 -15.668,-0.081 -15.88,0.016C-17.797,0.892 -19.061,1.516 -22.192,2.179C-23.602,2.477 -24.792,2.43 -25.412,2.396" style="fill:none;fill-rule:nonzero;stroke:rgb(213,233,219);stroke-width:0.58px;"/>
                                </g>
                                <g transform="matrix(1,0,0,1,204.15,379.452)">
                                    <path d="M0,-0.762C-0.806,-1.278 -1.907,-1.846 -3.629,-2.258C-7.69,-3.233 -10.956,-2.213 -15.225,-0.281C-15.45,-0.18 -15.666,-0.081 -15.878,0.016C-17.795,0.892 -19.045,1.513 -22.176,2.172C-23.598,2.471 -24.799,2.419 -25.412,2.385" style="fill:none;fill-rule:nonzero;stroke:rgb(211,231,216);stroke-width:0.59px;"/>
                                </g>
                                <g transform="matrix(1,0,0,1,204.15,379.463)">
                                    <path d="M0,-0.773C-0.806,-1.286 -1.902,-1.853 -3.626,-2.264C-7.688,-3.238 -10.954,-2.213 -15.223,-0.281C-15.448,-0.179 -15.664,-0.08 -15.876,0.017C-17.793,0.892 -19.028,1.509 -22.16,2.165C-23.594,2.465 -24.807,2.407 -25.412,2.374" style="fill:none;fill-rule:nonzero;stroke:rgb(208,230,214);stroke-width:0.6px;"/>
                                </g>
                                <g transform="matrix(1,0,0,1,204.15,379.474)">
                                    <path d="M0,-0.784C-0.805,-1.295 -1.896,-1.859 -3.623,-2.271C-7.686,-3.243 -10.952,-2.212 -15.221,-0.28C-15.446,-0.179 -15.662,-0.08 -15.874,0.017C-17.791,0.893 -19.012,1.505 -22.144,2.158C-23.59,2.459 -24.814,2.396 -25.412,2.363" style="fill:none;fill-rule:nonzero;stroke:rgb(206,229,212);stroke-width:0.61px;"/>
                                </g>
                                <g transform="matrix(1,0,0,1,204.15,379.485)">
                                    <path d="M0,-0.795C-0.805,-1.304 -1.891,-1.866 -3.62,-2.277C-7.684,-3.248 -10.95,-2.212 -15.219,-0.28C-15.444,-0.178 -15.66,-0.079 -15.872,0.017C-17.789,0.893 -18.995,1.501 -22.128,2.151C-23.586,2.453 -24.822,2.384 -25.412,2.352" style="fill:none;fill-rule:nonzero;stroke:rgb(203,227,210);stroke-width:0.62px;"/>
                                </g>
                                <g transform="matrix(1,0,0,1,204.15,379.496)">
                                    <path d="M0,-0.806C-0.804,-1.312 -1.886,-1.873 -3.617,-2.284C-7.682,-3.253 -10.948,-2.211 -15.218,-0.279C-15.442,-0.178 -15.659,-0.079 -15.87,0.018C-17.787,0.894 -18.979,1.497 -22.112,2.144C-23.582,2.447 -24.829,2.373 -25.412,2.341" style="fill:none;fill-rule:nonzero;stroke:rgb(201,226,208);stroke-width:0.63px;"/>
                                </g>
                                <g transform="matrix(1,0,0,1,204.15,379.507)">
                                    <path d="M0,-0.817C-0.804,-1.321 -1.88,-1.879 -3.614,-2.29C-7.68,-3.258 -10.946,-2.211 -15.216,-0.279C-15.44,-0.177 -15.657,-0.078 -15.868,0.018C-17.785,0.894 -18.962,1.493 -22.096,2.137C-23.578,2.441 -24.836,2.362 -25.412,2.33" style="fill:none;fill-rule:nonzero;stroke:rgb(198,225,206);stroke-width:0.66px;"/>
                                </g>
                                <g transform="matrix(1,0,0,1,204.15,379.518)">
                                    <path d="M0,-0.828C-0.803,-1.329 -1.875,-1.886 -3.612,-2.297C-7.678,-3.263 -10.944,-2.21 -15.214,-0.278C-15.438,-0.177 -15.655,-0.078 -15.866,0.019C-17.783,0.895 -18.946,1.489 -22.08,2.13C-23.574,2.435 -24.844,2.35 -25.412,2.319" style="fill:none;fill-rule:nonzero;stroke:rgb(196,223,204);stroke-width:0.67px;"/>
                                </g>
                                <g transform="matrix(1,0,0,1,204.15,379.529)">
                                    <path d="M0,-0.839C-0.803,-1.338 -1.87,-1.893 -3.609,-2.303C-7.676,-3.268 -10.942,-2.21 -15.212,-0.278C-15.436,-0.176 -15.653,-0.077 -15.864,0.019C-17.781,0.895 -18.929,1.485 -22.065,2.123C-23.569,2.429 -24.851,2.339 -25.412,2.308" style="fill:none;fill-rule:nonzero;stroke:rgb(193,222,202);stroke-width:0.68px;"/>
                                </g>
                                <g transform="matrix(1,0,0,1,204.15,379.54)">
                                    <path d="M0,-0.85C-0.802,-1.347 -1.864,-1.899 -3.606,-2.31C-7.674,-3.273 -10.941,-2.209 -15.21,-0.277C-15.434,-0.176 -15.651,-0.077 -15.862,0.02C-17.78,0.896 -18.913,1.481 -22.049,2.116C-23.565,2.423 -24.858,2.327 -25.412,2.297" style="fill:none;fill-rule:nonzero;stroke:rgb(191,221,200);stroke-width:0.69px;"/>
                                </g>
                                <g transform="matrix(1,0,0,1,204.15,379.551)">
                                    <path d="M0,-0.861C-0.802,-1.355 -1.859,-1.906 -3.603,-2.316C-7.672,-3.278 -10.939,-2.209 -15.208,-0.277C-15.432,-0.175 -15.649,-0.076 -15.86,0.02C-17.778,0.896 -18.896,1.477 -22.033,2.109C-23.561,2.417 -24.866,2.316 -25.412,2.286" style="fill:none;fill-rule:nonzero;stroke:rgb(189,219,198);stroke-width:0.7px;"/>
                                </g>
                                <g transform="matrix(1,0,0,1,204.15,379.562)">
                                    <path d="M0,-0.872C-0.801,-1.364 -1.854,-1.913 -3.6,-2.323C-7.67,-3.283 -10.937,-2.208 -15.206,-0.276C-15.43,-0.175 -15.647,-0.076 -15.858,0.021C-17.776,0.897 -18.88,1.473 -22.017,2.102C-23.557,2.411 -24.873,2.305 -25.412,2.275" style="fill:none;fill-rule:nonzero;stroke:rgb(186,218,195);stroke-width:0.72px;"/>
                                </g>
                                <g transform="matrix(1,0,0,1,204.15,379.573)">
                                    <path d="M0,-0.883C-0.801,-1.372 -1.848,-1.92 -3.598,-2.329C-7.668,-3.288 -10.935,-2.208 -15.204,-0.276C-15.428,-0.174 -15.645,-0.075 -15.856,0.021C-17.774,0.897 -18.863,1.469 -22.001,2.095C-23.553,2.405 -24.881,2.293 -25.412,2.264" style="fill:none;fill-rule:nonzero;stroke:rgb(184,217,193);stroke-width:0.74px;"/>
                                </g>
                                <g transform="matrix(1,0,0,1,204.15,379.584)">
                                    <path d="M0,-0.894C-0.8,-1.381 -1.843,-1.926 -3.595,-2.336C-7.666,-3.293 -10.933,-2.207 -15.202,-0.275C-15.426,-0.174 -15.643,-0.075 -15.855,0.022C-17.772,0.898 -18.847,1.465 -21.985,2.088C-23.549,2.399 -24.888,2.282 -25.412,2.253" style="fill:none;fill-rule:nonzero;stroke:rgb(181,215,191);stroke-width:0.75px;"/>
                                </g>
                                <g transform="matrix(1,0,0,1,204.15,379.595)">
                                    <path d="M0,-0.905C-0.8,-1.39 -1.837,-1.933 -3.592,-2.342C-7.664,-3.298 -10.931,-2.207 -15.2,-0.275C-15.425,-0.173 -15.641,-0.074 -15.853,0.022C-17.77,0.898 -18.83,1.461 -21.969,2.081C-23.545,2.393 -24.895,2.27 -25.412,2.242" style="fill:none;fill-rule:nonzero;stroke:rgb(179,214,189);stroke-width:0.76px;"/>
                                </g>
                                <g transform="matrix(1,0,0,1,204.15,379.606)">
                                    <path d="M0,-0.916C-0.799,-1.398 -1.832,-1.94 -3.589,-2.349C-7.662,-3.303 -10.929,-2.207 -15.198,-0.274C-15.423,-0.173 -15.639,-0.074 -15.851,0.023C-17.768,0.899 -18.814,1.457 -21.953,2.074C-23.541,2.387 -24.903,2.259 -25.412,2.231" style="fill:none;fill-rule:nonzero;stroke:rgb(176,213,187);stroke-width:0.77px;"/>
                                </g>
                                <g transform="matrix(1,0,0,1,204.15,379.617)">
                                    <path d="M0,-0.927C-0.799,-1.407 -1.827,-1.946 -3.586,-2.355C-7.66,-3.308 -10.927,-2.206 -15.196,-0.274C-15.421,-0.172 -15.637,-0.073 -15.849,0.023C-17.766,0.899 -18.797,1.453 -21.937,2.067C-23.537,2.381 -24.91,2.248 -25.412,2.22" style="fill:none;fill-rule:nonzero;stroke:rgb(174,211,185);stroke-width:0.79px;"/>
                                </g>
                                <g transform="matrix(1,0,0,1,204.15,379.628)">
                                    <path d="M0,-0.938C-0.798,-1.416 -1.821,-1.953 -3.583,-2.362C-7.658,-3.313 -10.925,-2.206 -15.194,-0.273C-15.419,-0.172 -15.635,-0.073 -15.847,0.024C-17.764,0.9 -18.781,1.448 -21.921,2.061C-23.533,2.375 -24.918,2.236 -25.412,2.209" style="fill:none;fill-rule:nonzero;stroke:rgb(171,210,183);stroke-width:0.8px;"/>
                                </g>
                                <g transform="matrix(1,0,0,1,204.15,379.639)">
                                    <path d="M0,-0.949C-0.798,-1.424 -1.816,-1.96 -3.581,-2.368C-7.656,-3.318 -10.923,-2.205 -15.193,-0.273C-15.417,-0.171 -15.633,-0.073 -15.845,0.024C-17.762,0.9 -18.764,1.444 -21.905,2.054C-23.528,2.369 -24.925,2.225 -25.412,2.198" style="fill:none;fill-rule:nonzero;stroke:rgb(169,209,181);stroke-width:0.81px;"/>
                                </g>
                                <g transform="matrix(1,0,0,1,204.15,379.649)">
                                    <path d="M0,-0.959C-0.797,-1.432 -1.811,-1.966 -3.578,-2.374C-7.654,-3.322 -10.921,-2.204 -15.191,-0.272C-15.415,-0.17 -15.632,-0.071 -15.843,0.026C-17.76,0.902 -18.748,1.441 -21.889,2.048C-23.524,2.363 -24.932,2.214 -25.412,2.188" style="fill:none;fill-rule:nonzero;stroke:rgb(167,207,179);stroke-width:0.83px;"/>
                                </g>
                                <g transform="matrix(1,0,0,1,204.15,379.66)">
                                    <path d="M0,-0.97C-0.797,-1.44 -1.805,-1.972 -3.575,-2.38C-7.652,-3.327 -10.919,-2.203 -15.189,-0.271C-15.413,-0.169 -15.63,-0.071 -15.841,0.026C-17.758,0.902 -18.732,1.437 -21.873,2.041C-23.52,2.357 -24.94,2.203 -25.412,2.177" style="fill:none;fill-rule:nonzero;stroke:rgb(164,206,177);stroke-width:0.85px;"/>
                                </g>
                                <g transform="matrix(1,0,0,1,204.15,379.671)">
                                    <path d="M0,-0.981C-0.796,-1.449 -1.8,-1.979 -3.572,-2.387C-7.65,-3.332 -10.917,-2.203 -15.187,-0.271C-15.411,-0.169 -15.628,-0.07 -15.839,0.027C-17.756,0.903 -18.715,1.433 -21.857,2.034C-23.516,2.351 -24.947,2.192 -25.412,2.166" style="fill:none;fill-rule:nonzero;stroke:rgb(161,205,175);stroke-width:0.86px;"/>
                                </g>
                                <g transform="matrix(1,0,0,1,204.15,379.683)">
                                    <path d="M0,-0.993C-0.796,-1.459 -1.795,-1.987 -3.569,-2.394C-7.648,-3.337 -10.915,-2.203 -15.185,-0.271C-15.409,-0.17 -15.626,-0.071 -15.837,0.026C-17.755,0.902 -18.699,1.427 -21.841,2.026C-23.512,2.344 -24.954,2.179 -25.412,2.154" style="fill:none;fill-rule:nonzero;stroke:rgb(159,203,173);stroke-width:0.87px;"/>
                                </g>
                                <g transform="matrix(1,0,0,1,204.15,379.694)">
                                    <path d="M0,-1.004C-0.796,-1.467 -1.789,-1.993 -3.566,-2.401C-7.646,-3.342 -10.914,-2.203 -15.183,-0.271C-15.407,-0.169 -15.624,-0.07 -15.835,0.027C-17.753,0.902 -18.682,1.423 -21.825,2.019C-23.508,2.338 -24.962,2.168 -25.412,2.143" style="fill:none;fill-rule:nonzero;stroke:rgb(156,202,171);stroke-width:0.88px;"/>
                                </g>
                                <g transform="matrix(1,0,0,1,204.15,379.705)">
                                    <path d="M0,-1.015C-0.795,-1.476 -1.784,-2 -3.564,-2.407C-7.644,-3.347 -10.912,-2.202 -15.181,-0.27C-15.405,-0.169 -15.622,-0.07 -15.833,0.027C-17.751,0.903 -18.666,1.419 -21.809,2.012C-23.504,2.332 -24.969,2.156 -25.412,2.132" style="fill:none;fill-rule:nonzero;stroke:rgb(154,201,169);stroke-width:0.89px;"/>
                                </g>
                                <g transform="matrix(1,0,0,1,204.15,379.715)">
                                    <path d="M0,-1.025C-0.795,-1.483 -1.779,-2.006 -3.561,-2.413C-7.642,-3.351 -10.91,-2.201 -15.179,-0.269C-15.403,-0.167 -15.62,-0.068 -15.831,0.028C-17.749,0.904 -18.649,1.415 -21.793,2.006C-23.5,2.326 -24.977,2.146 -25.412,2.122" style="fill:none;fill-rule:nonzero;stroke:rgb(151,199,166);stroke-width:0.92px;"/>
                                </g>
                                <g transform="matrix(1,0,0,1,204.15,379.726)">
                                    <path d="M0,-1.036C-0.794,-1.492 -1.773,-2.012 -3.558,-2.42C-7.64,-3.356 -10.908,-2.2 -15.177,-0.268C-15.401,-0.167 -15.618,-0.068 -15.83,0.029C-17.747,0.905 -18.633,1.411 -21.777,1.999C-23.496,2.32 -24.984,2.135 -25.412,2.111" style="fill:none;fill-rule:nonzero;stroke:rgb(149,198,164);stroke-width:0.93px;"/>
                                </g>
                                <g transform="matrix(1,0,0,1,204.15,379.737)">
                                    <path d="M0,-1.047C-0.794,-1.501 -1.768,-2.019 -3.555,-2.426C-7.638,-3.361 -10.906,-2.2 -15.175,-0.268C-15.4,-0.166 -15.616,-0.067 -15.828,0.029C-17.745,0.905 -18.617,1.407 -21.761,1.992C-23.492,2.314 -24.991,2.123 -25.412,2.1" style="fill:none;fill-rule:nonzero;stroke:rgb(147,197,162);stroke-width:0.94px;"/>
                                </g>
                                <g transform="matrix(1,0,0,1,204.15,379.748)">
                                    <path d="M0,-1.058C-0.793,-1.509 -1.763,-2.026 -3.552,-2.433C-7.636,-3.366 -10.904,-2.199 -15.173,-0.267C-15.398,-0.166 -15.614,-0.067 -15.826,0.03C-17.743,0.906 -18.6,1.402 -21.746,1.985C-23.488,2.308 -24.999,2.112 -25.412,2.089" style="fill:none;fill-rule:nonzero;stroke:rgb(144,195,160);stroke-width:0.95px;"/>
                                </g>
                                <g transform="matrix(1,0,0,1,204.15,379.758)">
                                    <path d="M0,-1.068C-0.793,-1.517 -1.757,-2.032 -3.549,-2.438C-7.634,-3.37 -10.902,-2.198 -15.171,-0.266C-15.396,-0.164 -15.612,-0.065 -15.824,0.031C-17.741,0.907 -18.584,1.399 -21.73,1.979C-23.484,2.302 -25.006,2.101 -25.412,2.079" style="fill:none;fill-rule:nonzero;stroke:rgb(142,194,159);stroke-width:0.96px;"/>
                                </g>
                                <g transform="matrix(1,0,0,1,204.15,379.769)">
                                    <path d="M0,-1.079C-0.792,-1.525 -1.752,-2.038 -3.547,-2.445C-7.632,-3.375 -10.9,-2.197 -15.169,-0.265C-15.394,-0.164 -15.61,-0.065 -15.822,0.032C-17.739,0.908 -18.567,1.394 -21.714,1.972C-23.479,2.296 -25.014,2.09 -25.412,2.068" style="fill:none;fill-rule:nonzero;stroke:rgb(140,193,156);stroke-width:0.97px;"/>
                                </g>
                                <g transform="matrix(1,0,0,1,204.15,379.78)">
                                    <path d="M0,-1.09C-0.792,-1.534 -1.746,-2.045 -3.544,-2.451C-7.63,-3.38 -10.898,-2.197 -15.168,-0.265C-15.392,-0.163 -15.608,-0.064 -15.82,0.032C-17.737,0.908 -18.551,1.39 -21.698,1.965C-23.475,2.29 -25.021,2.078 -25.412,2.057" style="fill:none;fill-rule:nonzero;stroke:rgb(137,192,154);stroke-width:0.99px;"/>
                                </g>
                                <g transform="matrix(1,0,0,1,204.15,379.791)">
                                    <path d="M0,-1.101C-0.791,-1.543 -1.741,-2.052 -3.541,-2.458C-7.628,-3.385 -10.896,-2.196 -15.166,-0.264C-15.39,-0.163 -15.607,-0.064 -15.818,0.033C-17.735,0.909 -18.535,1.385 -21.682,1.958C-23.471,2.284 -25.028,2.067 -25.412,2.046" style="fill:none;fill-rule:nonzero;stroke:rgb(135,190,152);stroke-width:1.01px;"/>
                                </g>
                                <g transform="matrix(1,0,0,1,204.15,379.801)">
                                    <path d="M0,-1.111C-0.791,-1.55 -1.736,-2.057 -3.538,-2.463C-7.626,-3.389 -10.894,-2.195 -15.164,-0.263C-15.388,-0.161 -15.605,-0.062 -15.816,0.034C-17.733,0.91 -18.518,1.382 -21.666,1.952C-23.467,2.278 -25.036,2.057 -25.412,2.036" style="fill:none;fill-rule:nonzero;stroke:rgb(132,189,150);stroke-width:1.02px;"/>
                                </g>
                                <g transform="matrix(1,0,0,1,204.15,379.812)">
                                    <path d="M0,-1.122C-0.79,-1.559 -1.73,-2.064 -3.535,-2.47C-7.624,-3.394 -10.892,-2.194 -15.162,-0.262C-15.386,-0.161 -15.603,-0.062 -15.814,0.035C-17.731,0.911 -18.502,1.377 -21.65,1.945C-23.463,2.272 -25.043,2.045 -25.412,2.025" style="fill:none;fill-rule:nonzero;stroke:rgb(129,188,148);stroke-width:1.03px;"/>
                                </g>
                                <g transform="matrix(1,0,0,1,204.15,379.823)">
                                    <path d="M0,-1.133C-0.79,-1.568 -1.725,-2.071 -3.532,-2.476C-7.622,-3.399 -10.89,-2.194 -15.16,-0.262C-15.384,-0.16 -15.601,-0.061 -15.812,0.035C-17.73,0.911 -18.485,1.373 -21.634,1.938C-23.459,2.266 -25.05,2.034 -25.412,2.014" style="fill:none;fill-rule:nonzero;stroke:rgb(127,186,146);stroke-width:1.04px;"/>
                                </g>
                                <g transform="matrix(1,0,0,1,204.15,379.834)">
                                    <path d="M0,-1.144C-0.789,-1.576 -1.72,-2.077 -3.53,-2.483C-7.62,-3.404 -10.889,-2.194 -15.158,-0.261C-15.382,-0.16 -15.599,-0.061 -15.81,0.036C-17.728,0.912 -18.469,1.368 -21.618,1.931C-23.455,2.26 -25.058,2.022 -25.412,2.003" style="fill:none;fill-rule:nonzero;stroke:rgb(124,185,144);stroke-width:1.06px;"/>
                                </g>
                                <g transform="matrix(1,0,0,1,204.15,379.844)">
                                    <path d="M0,-1.154C-0.789,-1.584 -1.714,-2.083 -3.527,-2.488C-7.618,-3.408 -10.887,-2.192 -15.156,-0.26C-15.38,-0.158 -15.597,-0.059 -15.808,0.037C-17.726,0.913 -18.453,1.365 -21.602,1.925C-23.451,2.254 -25.065,2.012 -25.412,1.993" style="fill:none;fill-rule:nonzero;stroke:rgb(122,184,142);stroke-width:1.07px;"/>
                                </g>
                                <g transform="matrix(1,0,0,1,204.15,379.855)">
                                    <path d="M0,-1.165C-0.788,-1.592 -1.709,-2.09 -3.524,-2.495C-7.616,-3.413 -10.885,-2.192 -15.154,-0.259C-15.378,-0.158 -15.595,-0.059 -15.806,0.038C-17.724,0.914 -18.436,1.36 -21.586,1.918C-23.447,2.248 -25.073,2.001 -25.412,1.982" style="fill:none;fill-rule:nonzero;stroke:rgb(119,182,140);stroke-width:1.09px;"/>
                                </g>
                                <g transform="matrix(1,0,0,1,204.15,379.866)">
                                    <path d="M0,-1.176C-0.788,-1.601 -1.704,-2.096 -3.521,-2.501C-7.614,-3.418 -10.883,-2.191 -15.152,-0.259C-15.376,-0.157 -15.593,-0.058 -15.805,0.038C-17.722,0.914 -18.42,1.356 -21.57,1.911C-23.443,2.242 -25.08,1.989 -25.412,1.971" style="fill:none;fill-rule:nonzero;stroke:rgb(117,181,139);stroke-width:1.1px;"/>
                                </g>
                                <g transform="matrix(1,0,0,1,204.15,379.876)">
                                    <path d="M0,-1.186C-0.787,-1.609 -1.698,-2.102 -3.518,-2.507C-7.612,-3.422 -10.881,-2.19 -15.15,-0.258C-15.374,-0.156 -15.591,-0.057 -15.803,0.04C-17.72,0.916 -18.403,1.352 -21.554,1.905C-23.439,2.236 -25.087,1.979 -25.412,1.961" style="fill:none;fill-rule:nonzero;stroke:rgb(114,180,137);stroke-width:1.12px;"/>
                                </g>
                                <g transform="matrix(1,0,0,1,204.15,379.887)">
                                    <path d="M0,-1.197C-0.787,-1.617 -1.693,-2.109 -3.516,-2.513C-7.61,-3.427 -10.879,-2.189 -15.148,-0.257C-15.373,-0.155 -15.589,-0.057 -15.801,0.04C-17.718,0.916 -18.387,1.348 -21.538,1.898C-23.435,2.23 -25.095,1.967 -25.412,1.95" style="fill:none;fill-rule:nonzero;stroke:rgb(112,178,135);stroke-width:1.13px;"/>
                                </g>
                                <g transform="matrix(1,0,0,1,204.15,379.898)">
                                    <path d="M0,-1.208C-0.786,-1.626 -1.688,-2.116 -3.513,-2.52C-7.607,-3.432 -10.877,-2.189 -15.146,-0.257C-15.371,-0.155 -15.587,-0.056 -15.799,0.041C-17.716,0.917 -18.371,1.343 -21.522,1.891C-23.431,2.224 -25.102,1.956 -25.412,1.939" style="fill:none;fill-rule:nonzero;stroke:rgb(109,177,133);stroke-width:1.14px;"/>
                                </g>
                                <g transform="matrix(1,0,0,1,204.15,379.908)">
                                    <path d="M0,-1.218C-0.786,-1.633 -1.682,-2.121 -3.51,-2.525C-7.605,-3.436 -10.875,-2.187 -15.144,-0.255C-15.369,-0.154 -15.585,-0.055 -15.797,0.042C-17.714,0.918 -18.354,1.339 -21.506,1.886C-23.427,2.218 -25.109,1.946 -25.412,1.929" style="fill:none;fill-rule:nonzero;stroke:rgb(106,176,131);stroke-width:1.15px;"/>
                                </g>
                                <g transform="matrix(1,0,0,1,204.15,379.919)">
                                    <path d="M0,-1.229C-0.786,-1.642 -1.677,-2.128 -3.507,-2.532C-7.603,-3.441 -10.873,-2.187 -15.142,-0.255C-15.367,-0.153 -15.583,-0.054 -15.795,0.043C-17.712,0.918 -18.338,1.335 -21.49,1.879C-23.423,2.212 -25.117,1.934 -25.412,1.918" style="fill:none;fill-rule:nonzero;stroke:rgb(104,174,129);stroke-width:1.16px;"/>
                                </g>
                                <g transform="matrix(1,0,0,1,204.15,379.929)">
                                    <path d="M0,-1.239C-0.785,-1.65 -1.672,-2.134 -3.504,-2.537C-7.601,-3.445 -10.871,-2.185 -15.141,-0.253C-15.365,-0.152 -15.582,-0.053 -15.793,0.044C-17.71,0.92 -18.322,1.331 -21.474,1.873C-23.419,2.206 -25.124,1.924 -25.412,1.908" style="fill:none;fill-rule:nonzero;stroke:rgb(101,173,127);stroke-width:1.19px;"/>
                                </g>
                                <g transform="matrix(1,0,0,1,204.15,379.94)">
                                    <path d="M0,-1.25C-0.785,-1.658 -1.666,-2.14 -3.501,-2.544C-7.599,-3.45 -10.869,-2.185 -15.139,-0.253C-15.363,-0.151 -15.58,-0.052 -15.791,0.044C-17.708,0.92 -18.305,1.327 -21.458,1.866C-23.414,2.2 -25.132,1.912 -25.412,1.897" style="fill:none;fill-rule:nonzero;stroke:rgb(99,172,125);stroke-width:1.2px;"/>
                                </g>
                                <g transform="matrix(1,0,0,1,204.15,379.952)">
                                    <path d="M0,-1.262C-0.784,-1.668 -1.661,-2.148 -3.499,-2.551C-7.597,-3.455 -10.867,-2.185 -15.137,-0.253C-15.361,-0.152 -15.578,-0.053 -15.789,0.044C-17.706,0.92 -18.289,1.321 -21.442,1.858C-23.41,2.193 -25.139,1.9 -25.412,1.885" style="fill:none;fill-rule:nonzero;stroke:rgb(96,170,123);stroke-width:1.21px;"/>
                                </g>
                                <g transform="matrix(1,0,0,1,204.15,379.962)">
                                    <path d="M0,-1.272C-0.784,-1.676 -1.655,-2.154 -3.496,-2.557C-7.595,-3.459 -10.865,-2.184 -15.135,-0.252C-15.359,-0.15 -15.576,-0.051 -15.787,0.045C-17.704,0.921 -18.272,1.317 -21.427,1.852C-23.406,2.187 -25.146,1.89 -25.412,1.875" style="fill:none;fill-rule:nonzero;stroke:rgb(93,169,121);stroke-width:1.22px;"/>
                                </g>
                                <g transform="matrix(1,0,0,1,204.15,379.973)">
                                    <path d="M0,-1.283C-0.783,-1.684 -1.65,-2.16 -3.493,-2.563C-7.593,-3.464 -10.863,-2.183 -15.133,-0.251C-15.357,-0.15 -15.574,-0.051 -15.785,0.046C-17.703,0.922 -18.256,1.312 -21.411,1.845C-23.402,2.181 -25.154,1.878 -25.412,1.864" style="fill:none;fill-rule:nonzero;stroke:rgb(90,168,119);stroke-width:1.23px;"/>
                                </g>
                                <g transform="matrix(1,0,0,1,204.15,379.983)">
                                    <path d="M0,-1.293C-0.783,-1.692 -1.645,-2.166 -3.49,-2.569C-7.591,-3.468 -10.862,-2.182 -15.131,-0.25C-15.355,-0.148 -15.572,-0.049 -15.783,0.047C-17.701,0.923 -18.24,1.309 -21.395,1.839C-23.398,2.175 -25.161,1.868 -25.412,1.854" style="fill:none;fill-rule:nonzero;stroke:rgb(87,166,117);stroke-width:1.24px;"/>
                                </g>
                                <g transform="matrix(1,0,0,1,204.15,379.994)">
                                    <path d="M0,-1.304C-0.782,-1.7 -1.639,-2.173 -3.487,-2.575C-7.589,-3.473 -10.86,-2.181 -15.129,-0.249C-15.353,-0.148 -15.57,-0.049 -15.781,0.048C-17.699,0.924 -18.223,1.304 -21.379,1.832C-23.394,2.169 -25.169,1.856 -25.412,1.843" style="fill:none;fill-rule:nonzero;stroke:rgb(84,165,115);stroke-width:1.27px;"/>
                                </g>
                                <g transform="matrix(1,0,0,1,204.15,380.005)">
                                    <path d="M0,-1.315C-0.782,-1.709 -1.634,-2.18 -3.484,-2.582C-7.587,-3.478 -10.858,-2.181 -15.127,-0.249C-15.351,-0.147 -15.568,-0.048 -15.779,0.048C-17.697,0.924 -18.207,1.299 -21.363,1.825C-23.39,2.163 -25.176,1.845 -25.412,1.832" style="fill:none;fill-rule:nonzero;stroke:rgb(81,164,113);stroke-width:1.28px;"/>
                                </g>
                                <g transform="matrix(1,0,0,1,204.15,380.015)">
                                    <path d="M0,-1.325C-0.781,-1.717 -1.629,-2.185 -3.482,-2.587C-7.585,-3.482 -10.856,-2.179 -15.125,-0.247C-15.349,-0.146 -15.566,-0.047 -15.778,0.05C-17.695,0.926 -18.191,1.296 -21.347,1.819C-23.386,2.157 -25.183,1.835 -25.412,1.822" style="fill:none;fill-rule:nonzero;stroke:rgb(78,162,111);stroke-width:1.29px;"/>
                                </g>
                                <g transform="matrix(1,0,0,1,204.15,380.026)">
                                    <path d="M0,-1.336C-0.781,-1.725 -1.623,-2.192 -3.479,-2.594C-7.583,-3.487 -10.854,-2.179 -15.123,-0.247C-15.348,-0.145 -15.564,-0.046 -15.776,0.05C-17.693,0.926 -18.174,1.291 -21.331,1.812C-23.382,2.151 -25.191,1.823 -25.412,1.811" style="fill:none;fill-rule:nonzero;stroke:rgb(75,161,109);stroke-width:1.3px;"/>
                                </g>
                                <g transform="matrix(1,0,0,1,204.15,380.036)">
                                    <path d="M0,-1.346C-0.78,-1.733 -1.618,-2.198 -3.476,-2.599C-7.581,-3.491 -10.852,-2.177 -15.121,-0.245C-15.346,-0.144 -15.562,-0.045 -15.774,0.052C-17.691,0.928 -18.158,1.287 -21.315,1.806C-23.378,2.145 -25.198,1.813 -25.412,1.801" style="fill:none;fill-rule:nonzero;stroke:rgb(72,160,107);stroke-width:1.31px;"/>
                                </g>
                                <g transform="matrix(1,0,0,1,204.15,380.047)">
                                    <path d="M0,-1.357C-0.78,-1.741 -1.613,-2.204 -3.473,-2.606C-7.579,-3.496 -10.85,-2.177 -15.119,-0.245C-15.344,-0.143 -15.56,-0.044 -15.772,0.052C-17.689,0.928 -18.141,1.282 -21.299,1.799C-23.374,2.139 -25.205,1.801 -25.412,1.79" style="fill:none;fill-rule:nonzero;stroke:rgb(69,158,105);stroke-width:1.33px;"/>
                                </g>
                                <g transform="matrix(1,0,0,1,204.15,380.057)">
                                    <path d="M0,-1.367C-0.779,-1.749 -1.607,-2.21 -3.47,-2.611C-7.577,-3.5 -10.848,-2.176 -15.117,-0.243C-15.342,-0.142 -15.558,-0.043 -15.77,0.054C-17.687,0.93 -18.125,1.279 -21.283,1.793C-23.37,2.133 -25.213,1.791 -25.412,1.78" style="fill:none;fill-rule:nonzero;stroke:rgb(66,157,103);stroke-width:1.34px;"/>
                                </g>
                                <g transform="matrix(1,0,0,1,204.15,380.068)">
                                    <path d="M0,-1.378C-0.779,-1.758 -1.602,-2.217 -3.467,-2.618C-7.575,-3.505 -10.846,-2.175 -15.116,-0.243C-15.34,-0.141 -15.557,-0.042 -15.768,0.054C-17.685,0.93 -18.109,1.274 -21.267,1.786C-23.366,2.127 -25.22,1.78 -25.412,1.769" style="fill:none;fill-rule:nonzero;stroke:rgb(62,156,101);stroke-width:1.36px;"/>
                                </g>
                                <g transform="matrix(1,0,0,1,204.15,380.078)">
                                    <path d="M0,-1.388C-0.778,-1.765 -1.597,-2.222 -3.465,-2.623C-7.573,-3.509 -10.844,-2.174 -15.114,-0.241C-15.338,-0.14 -15.555,-0.041 -15.766,0.056C-17.683,0.932 -18.092,1.27 -21.251,1.78C-23.362,2.121 -25.228,1.769 -25.412,1.759" style="fill:none;fill-rule:nonzero;stroke:rgb(60,154,100);stroke-width:1.37px;"/>
                                </g>
                                <g transform="matrix(1,0,0,1,204.15,380.089)">
                                    <path d="M0,-1.399C-0.778,-1.774 -1.591,-2.229 -3.462,-2.63C-7.571,-3.514 -10.842,-2.173 -15.112,-0.241C-15.336,-0.139 -15.553,-0.04 -15.764,0.056C-17.681,0.932 -18.076,1.265 -21.235,1.773C-23.358,2.115 -25.235,1.758 -25.412,1.748" style="fill:none;fill-rule:nonzero;stroke:rgb(57,153,98);stroke-width:1.39px;"/>
                                </g>
                                <g transform="matrix(1,0,0,1,204.15,380.099)">
                                    <path d="M0,-1.409C-0.777,-1.781 -1.586,-2.235 -3.459,-2.635C-7.569,-3.518 -10.84,-2.172 -15.11,-0.24C-15.334,-0.138 -15.551,-0.039 -15.762,0.058C-17.679,0.934 -18.06,1.261 -21.219,1.767C-23.354,2.109 -25.242,1.747 -25.412,1.738" style="fill:none;fill-rule:nonzero;stroke:rgb(54,152,96);stroke-width:1.4px;"/>
                                </g>
                                <g transform="matrix(1,0,0,1,204.15,380.109)">
                                    <path d="M0,-1.419C-0.777,-1.789 -1.581,-2.241 -3.456,-2.641C-7.567,-3.522 -10.838,-2.17 -15.108,-0.238C-15.332,-0.136 -15.549,-0.038 -15.76,0.059C-17.678,0.935 -18.043,1.258 -21.203,1.761C-23.35,2.103 -25.25,1.737 -25.412,1.728" style="fill:none;fill-rule:nonzero;stroke:rgb(51,150,94);stroke-width:1.41px;"/>
                                </g>
                                <g transform="matrix(1,0,0,1,204.15,380.12)">
                                    <path d="M0,-1.43C-0.776,-1.798 -1.575,-2.247 -3.453,-2.647C-7.565,-3.527 -10.837,-2.17 -15.106,-0.238C-15.33,-0.136 -15.547,-0.037 -15.758,0.06C-17.676,0.936 -18.027,1.253 -21.187,1.754C-23.346,2.097 -25.257,1.726 -25.412,1.717" style="fill:none;fill-rule:nonzero;stroke:rgb(48,149,92);stroke-width:1.42px;"/>
                                </g>
                                <g transform="matrix(1,0,0,1,204.15,380.13)">
                                    <path d="M0,-1.44C-0.776,-1.805 -1.57,-2.253 -3.45,-2.653C-7.563,-3.531 -10.835,-2.168 -15.104,-0.236C-15.328,-0.134 -15.545,-0.036 -15.756,0.061C-17.674,0.937 -18.011,1.249 -21.171,1.748C-23.342,2.091 -25.265,1.715 -25.412,1.707" style="fill:none;fill-rule:nonzero;stroke:rgb(44,148,90);stroke-width:1.44px;"/>
                                </g>
                                <g transform="matrix(1,0,0,1,204.15,380.141)">
                                    <path d="M0,-1.451C-0.776,-1.814 -1.564,-2.26 -3.448,-2.659C-7.561,-3.536 -10.833,-2.168 -15.102,-0.236C-15.326,-0.134 -15.543,-0.035 -15.754,0.062C-17.672,0.938 -17.994,1.244 -21.155,1.741C-23.338,2.085 -25.272,1.704 -25.412,1.696" style="fill:none;fill-rule:nonzero;stroke:rgb(41,146,88);stroke-width:1.46px;"/>
                                </g>
                                <g transform="matrix(1,0,0,1,204.15,380.151)">
                                    <path d="M0,-1.461C-0.775,-1.822 -1.559,-2.265 -3.445,-2.665C-7.559,-3.54 -10.831,-2.166 -15.1,-0.234C-15.324,-0.133 -15.541,-0.034 -15.753,0.063C-17.67,0.939 -17.978,1.24 -21.139,1.735C-23.334,2.079 -25.279,1.693 -25.412,1.686" style="fill:none;fill-rule:nonzero;stroke:rgb(37,145,86);stroke-width:1.47px;"/>
                                </g>
                                <g transform="matrix(1,0,0,1,204.15,380.162)">
                                    <path d="M0,-1.472C-0.775,-1.83 -1.554,-2.272 -3.442,-2.671C-7.557,-3.545 -10.829,-2.166 -15.098,-0.234C-15.323,-0.132 -15.539,-0.033 -15.751,0.064C-17.668,0.939 -17.962,1.235 -21.123,1.728C-23.33,2.073 -25.287,1.682 -25.412,1.675" style="fill:none;fill-rule:nonzero;stroke:rgb(33,144,84);stroke-width:1.48px;"/>
                                </g>
                                <g transform="matrix(1,0,0,1,204.15,380.172)">
                                    <path d="M0,-1.482C-0.774,-1.838 -1.548,-2.278 -3.439,-2.677C-7.555,-3.549 -10.827,-2.164 -15.096,-0.232C-15.321,-0.131 -15.537,-0.032 -15.749,0.065C-17.666,0.941 -17.945,1.231 -21.108,1.722C-23.326,2.067 -25.294,1.672 -25.412,1.665" style="fill:none;fill-rule:nonzero;stroke:rgb(31,142,83);stroke-width:1.49px;"/>
                                </g>
                                <g transform="matrix(1,0,0,1,204.15,380.182)">
                                    <path d="M0,-1.492C-0.774,-1.845 -1.543,-2.283 -3.436,-2.682C-7.553,-3.553 -10.825,-2.163 -15.094,-0.231C-15.319,-0.129 -15.535,-0.03 -15.747,0.066C-17.664,0.942 -17.929,1.228 -21.092,1.717C-23.322,2.061 -25.301,1.661 -25.412,1.655" style="fill:none;fill-rule:nonzero;stroke:rgb(27,141,81);stroke-width:1.5px;"/>
                                </g>
                                <g transform="matrix(1,0,0,1,204.15,380.193)">
                                    <path d="M0,-1.503C-0.773,-1.854 -1.538,-2.29 -3.433,-2.689C-7.551,-3.558 -10.823,-2.162 -15.092,-0.23C-15.317,-0.129 -15.533,-0.03 -15.745,0.067C-17.662,0.943 -17.913,1.223 -21.076,1.71C-23.318,2.055 -25.309,1.65 -25.412,1.644" style="fill:none;fill-rule:nonzero;stroke:rgb(23,140,79);stroke-width:1.51px;"/>
                                </g>
                                <g transform="matrix(1,0,0,1,204.15,380.204)">
                                    <path d="M0,-1.514C-0.773,-1.863 -1.532,-2.297 -3.431,-2.695C-7.549,-3.562 -10.821,-2.162 -15.09,-0.23C-15.315,-0.128 -15.531,-0.029 -15.743,0.067C-17.66,0.943 -17.896,1.218 -21.06,1.703C-23.314,2.048 -25.316,1.638 -25.412,1.633" style="fill:none;fill-rule:nonzero;stroke:rgb(19,138,77);stroke-width:1.54px;"/>
                                </g>
                                <g transform="matrix(1,0,0,1,204.15,380.214)">
                                    <path d="M0,-1.524C-0.772,-1.87 -1.527,-2.303 -3.428,-2.701C-7.547,-3.566 -10.819,-2.16 -15.089,-0.228C-15.313,-0.127 -15.53,-0.028 -15.741,0.069C-17.658,0.945 -17.88,1.214 -21.044,1.697C-23.31,2.042 -25.324,1.628 -25.412,1.623" style="fill:none;fill-rule:nonzero;stroke:rgb(15,137,75);stroke-width:1.55px;"/>
                                </g>
                                <g transform="matrix(1,0,0,1,204.15,380.225)">
                                    <path d="M0,-1.535C-0.772,-1.879 -1.522,-2.309 -3.425,-2.707C-7.545,-3.571 -10.817,-2.16 -15.087,-0.228C-15.311,-0.126 -15.528,-0.027 -15.739,0.069C-17.656,0.945 -17.863,1.209 -21.028,1.69C-23.306,2.036 -25.331,1.617 -25.412,1.612" style="fill:none;fill-rule:nonzero;stroke:rgb(13,136,73);stroke-width:1.56px;"/>
                                </g>
                                <g transform="matrix(1,0,0,1,204.15,380.231)">
                                    <path d="M0,-1.541C-0.771,-1.882 -1.516,-2.311 -3.422,-2.709C-7.543,-3.571 -10.815,-2.154 -15.085,-0.222C-15.309,-0.121 -15.526,-0.022 -15.737,0.075C-17.654,0.951 -17.848,1.203 -21.012,1.688C-23.302,2.03 -25.338,1.61 -25.412,1.606" style="fill:none;fill-rule:nonzero;stroke:rgb(11,134,71);stroke-width:1.57px;"/>
                                </g>
                                <g transform="matrix(1,0,0,1,204.15,380.241)">
                                    <path d="M0,-1.551C-0.771,-1.89 -1.511,-2.317 -3.419,-2.714C-7.541,-3.575 -10.813,-2.153 -15.083,-0.221C-15.307,-0.119 -15.524,-0.02 -15.735,0.076C-17.653,0.952 -17.832,1.2 -20.996,1.682C-23.298,2.024 -25.346,1.6 -25.412,1.596" style="fill:none;fill-rule:nonzero;stroke:rgb(10,133,70);stroke-width:1.58px;"/>
                                </g>
                                <g transform="matrix(1,0,0,1,204.15,380.252)">
                                    <path d="M0,-1.562C-0.77,-1.899 -1.506,-2.323 -3.417,-2.721C-7.539,-3.58 -10.812,-2.152 -15.081,-0.22C-15.305,-0.119 -15.522,-0.02 -15.733,0.077C-17.651,0.953 -17.815,1.195 -20.98,1.675C-23.294,2.018 -25.353,1.588 -25.412,1.585" style="fill:none;fill-rule:nonzero;stroke:rgb(7,132,68);stroke-width:1.6px;"/>
                                </g>
                                <g transform="matrix(1,0,0,1,204.15,380.263)">
                                    <path d="M0,-1.573C-0.77,-1.907 -1.5,-2.33 -3.414,-2.728C-7.537,-3.585 -10.81,-2.152 -15.079,-0.22C-15.303,-0.118 -15.52,-0.019 -15.731,0.077C-17.649,0.953 -17.799,1.191 -20.964,1.668C-23.29,2.012 -25.36,1.577 -25.412,1.574" style="fill:none;fill-rule:nonzero;stroke:rgb(4,130,66);stroke-width:1.62px;"/>
                                </g>
                                <g transform="matrix(1,0,0,1,204.15,380.274)">
                                    <path d="M0,-1.584C-0.769,-1.916 -1.495,-2.337 -3.411,-2.734C-7.535,-3.59 -10.808,-2.152 -15.077,-0.219C-15.301,-0.118 -15.518,-0.019 -15.729,0.078C-17.647,0.954 -17.782,1.187 -20.948,1.661C-23.286,2.006 -25.368,1.566 -25.412,1.563" style="fill:none;fill-rule:nonzero;stroke:rgb(1,129,64);stroke-width:1.63px;"/>
                                </g>
                                <g transform="matrix(1,0,0,1,204.15,380.284)">
                                    <path d="M0,-1.594C-0.769,-1.923 -1.489,-2.342 -3.408,-2.74C-7.533,-3.594 -10.806,-2.15 -15.075,-0.218C-15.299,-0.116 -15.516,-0.017 -15.728,0.079C-17.645,0.955 -17.766,1.183 -20.932,1.655C-23.282,2 -25.375,1.555 -25.412,1.553" style="fill:none;fill-rule:nonzero;stroke:rgb(0,128,62);stroke-width:1.64px;"/>
                                </g>
                                <g transform="matrix(1,0,0,1,204.15,380.295)">
                                    <path d="M0,-1.605C-0.768,-1.932 -1.484,-2.349 -3.405,-2.746C-7.531,-3.599 -10.804,-2.15 -15.073,-0.217C-15.297,-0.116 -15.514,-0.017 -15.726,0.08C-17.643,0.956 -17.749,1.179 -20.916,1.648C-23.278,1.994 -25.383,1.544 -25.412,1.542" style="fill:none;fill-rule:nonzero;stroke:rgb(0,126,60);stroke-width:1.66px;"/>
                                </g>
                                <g transform="matrix(1,0,0,1,204.15,380.306)">
                                    <path d="M0,-1.616C-0.768,-1.941 -1.479,-2.356 -3.402,-2.753C-7.529,-3.604 -10.802,-2.149 -15.071,-0.217C-15.296,-0.115 -15.512,-0.016 -15.724,0.08C-17.641,0.956 -17.733,1.175 -20.9,1.641C-23.274,1.988 -25.39,1.532 -25.412,1.531" style="fill:none;fill-rule:nonzero;stroke:rgb(0,125,58);stroke-width:1.67px;"/>
                                </g>
                                <g transform="matrix(1,0,0,1,204.15,380.316)">
                                    <path d="M0,-1.626C-0.767,-1.948 -1.473,-2.362 -3.4,-2.758C-7.527,-3.608 -10.8,-2.148 -15.069,-0.216C-15.294,-0.114 -15.51,-0.015 -15.722,0.082C-17.639,0.958 -17.717,1.171 -20.884,1.635C-23.27,1.982 -25.397,1.522 -25.412,1.521" style="fill:none;fill-rule:nonzero;stroke:rgb(0,124,56);stroke-width:1.68px;"/>
                                </g>
                                <g transform="matrix(1,0,0,1,204.15,380.327)">
                                    <path d="M0,-1.637C-0.767,-1.957 -1.468,-2.368 -3.397,-2.765C-7.525,-3.613 -10.798,-2.147 -15.067,-0.215C-15.292,-0.113 -15.508,-0.015 -15.72,0.082C-17.637,0.958 -17.7,1.167 -20.868,1.628C-23.266,1.976 -25.405,1.511 -25.412,1.51" style="fill:none;fill-rule:nonzero;stroke:rgb(0,122,55);stroke-width:1.69px;"/>
                                </g>
                                <g transform="matrix(1,0,0,1,204.15,380.338)">
                                    <path d="M0,-1.648C-0.766,-1.966 -1.463,-2.375 -3.394,-2.771C-7.523,-3.618 -10.796,-2.147 -15.065,-0.215C-15.29,-0.113 -15.506,-0.014 -15.718,0.083C-17.635,0.959 -17.684,1.162 -20.852,1.621C-23.262,1.97 -25.412,1.499 -25.412,1.499" style="fill:none;fill-rule:nonzero;stroke:rgb(0,121,53);stroke-width:1.71px;"/>
                                </g>
                            </g>
                        </g>
                    </g>
                </g>
            </g>
        </g>
    </g>
</svg>
