<?xml version="1.0" encoding="UTF-8" standalone="no"?>
<!DOCTYPE svg PUBLIC "-//W3C//DTD SVG 1.1//EN" "http://www.w3.org/Graphics/SVG/1.1/DTD/svg11.dtd">
<svg width="100%" height="100%" viewBox="0 0 280 274" version="1.1" xmlns="http://www.w3.org/2000/svg" xmlns:xlink="http://www.w3.org/1999/xlink" xml:space="preserve" xmlns:serif="http://www.serif.com/" style="fill-rule:evenodd;clip-rule:evenodd;stroke-linejoin:round;stroke-miterlimit:2;">
    <g transform="matrix(1,0,0,1,-4125,-22855)">
        <g transform="matrix(8.33333,0,0,8.33333,1611.84,15257.6)">
            <g transform="matrix(1,0,0,1,335.135,926.737)">
                <path d="M0,2.679C-0.013,3.647 -0.247,4.577 -0.391,5.519C-0.506,6.264 -0.728,7.02 -1.138,7.689C-1.203,7.795 -1.197,7.943 -1.238,8.067C-1.27,8.166 -1.324,8.259 -1.368,8.355C-1.403,8.355 -1.439,8.355 -1.474,8.354C-1.525,8.145 -1.576,7.936 -1.631,7.712C-1.674,7.738 -1.733,7.752 -1.747,7.785C-2.006,8.371 -2.223,8.979 -2.52,9.544C-3.34,11.104 -4.416,12.481 -5.715,13.664C-6.961,14.799 -8.338,15.772 -9.863,16.501C-10.931,17.012 -12.045,17.427 -13.228,17.59C-14.041,17.702 -14.86,17.785 -15.684,17.707C-15.743,17.702 -15.798,17.661 -15.875,17.628C-15.794,17.424 -15.636,17.443 -15.499,17.451C-14.965,17.481 -14.46,17.401 -13.958,17.196C-13.565,17.035 -13.126,16.99 -12.723,16.85C-11.282,16.349 -9.851,15.812 -8.567,14.97C-7.963,14.574 -7.407,14.101 -6.841,13.648C-6.533,13.401 -6.256,13.116 -5.952,12.864C-5.718,12.669 -5.584,12.454 -5.719,12.14C-5.384,11.918 -5.115,11.693 -4.981,11.299C-4.888,11.025 -4.616,10.809 -4.416,10.574C-4.176,10.292 -4.078,9.912 -3.852,9.647C-3.628,9.385 -3.692,8.98 -3.36,8.805C-3.347,8.798 -3.329,8.776 -3.332,8.766C-3.412,8.428 -3.181,8.189 -3.072,7.908C-2.906,7.482 -2.774,7.044 -2.626,6.611C-2.584,6.487 -2.512,6.365 -2.501,6.239C-2.41,5.189 -2.072,4.17 -2.105,3.105C-2.107,3.023 -2.106,2.933 -2.074,2.86C-1.847,2.33 -2.045,1.856 -2.276,1.395C-2.39,1.167 -2.427,0.973 -2.393,0.701C-2.35,0.35 -2.486,-0.024 -2.631,-0.402C-2.657,-0.29 -2.708,-0.177 -2.704,-0.066C-2.687,0.346 -2.656,0.757 -2.622,1.168C-2.613,1.265 -2.588,1.369 -2.539,1.451C-2.406,1.675 -2.445,1.886 -2.525,2.115C-2.583,2.283 -2.624,2.47 -2.618,2.647C-2.58,3.701 -2.821,4.72 -3.077,5.723C-3.474,7.276 -4.127,8.724 -5.054,10.048C-6.217,11.709 -7.67,13.063 -9.389,14.116C-9.466,14.163 -9.544,14.208 -9.622,14.253C-10.018,14.552 -10.433,14.827 -10.869,15.078C-11.44,15.407 -12.039,15.698 -12.649,15.954C-13.274,16.215 -13.917,16.446 -14.572,16.625C-15.134,16.778 -15.719,16.882 -16.3,16.928C-17.156,16.995 -18.018,17.027 -18.876,17.008C-19.645,16.991 -20.421,16.98 -21.172,16.753C-21.621,16.617 -22.097,16.561 -22.544,16.422C-23.059,16.261 -23.569,16.074 -24.056,15.848C-24.608,15.592 -25.139,15.293 -25.665,14.99C-26.365,14.586 -27.023,14.125 -27.621,13.589C-27.98,13.268 -28.328,12.937 -28.659,12.593C-28.752,12.512 -28.844,12.431 -28.934,12.347C-29.882,11.463 -30.749,10.507 -31.419,9.394C-31.741,8.86 -31.992,8.279 -32.245,7.706C-32.476,7.181 -32.701,6.648 -32.863,6.099C-33.018,5.574 -33.095,5.025 -33.191,4.484C-33.257,4.115 -33.314,3.743 -33.346,3.37C-33.358,3.225 -33.364,3.079 -33.366,2.934C-33.485,2.321 -33.595,1.707 -33.542,1.076C-33.506,0.649 -33.46,0.223 -33.395,-0.2C-33.272,-0.996 -33.273,-1.796 -33.101,-2.583C-32.996,-3.061 -32.806,-3.524 -32.617,-3.978C-32.328,-4.672 -32.042,-5.372 -31.69,-6.034C-31.32,-6.728 -30.896,-7.397 -30.455,-8.049C-29.637,-9.26 -28.604,-10.28 -27.489,-11.216C-26.705,-11.874 -25.863,-12.458 -24.951,-12.92C-24.087,-13.357 -23.212,-13.797 -22.298,-14.107C-21.259,-14.46 -20.181,-14.693 -19.09,-14.874C-17.687,-15.106 -16.287,-15.073 -14.891,-14.951C-14.11,-14.882 -13.338,-14.668 -12.573,-14.474C-11.825,-14.284 -11.067,-14.095 -10.359,-13.797C-9.329,-13.363 -8.329,-12.858 -7.389,-12.239C-6.141,-11.417 -5.024,-10.437 -4.026,-9.34C-3.176,-8.405 -2.391,-7.403 -1.83,-6.25C-1.69,-5.963 -1.474,-5.71 -1.357,-5.415C-1.257,-5.166 -1.209,-4.91 -1.039,-4.678C-0.96,-4.57 -1.089,-4.312 -1.131,-4.079C-1.018,-4.097 -0.909,-4.114 -0.792,-4.133C-0.773,-4.086 -0.728,-4.032 -0.74,-4C-1.022,-3.279 -0.6,-2.656 -0.469,-1.993C-0.45,-1.896 -0.401,-1.805 -0.384,-1.709C-0.128,-0.257 0.02,1.2 0,2.679" style="fill:rgb(140,12,12);fill-rule:nonzero;"/>
            </g>
            <g transform="matrix(1,0,0,1,330.38,930.741)">
                <path d="M0,-5.633C-0.254,-7.122 -0.802,-8.519 -1.601,-9.781C-3.129,-12.192 -5.336,-13.781 -8,-14.755C-8.663,-14.998 -9.314,-15.325 -10,-15.451C-12.03,-15.822 -14.013,-15.524 -15.949,-14.848C-16.131,-14.784 -16.319,-14.739 -16.504,-14.685C-16.518,-14.73 -16.533,-14.776 -16.547,-14.821C-16.47,-14.856 -16.394,-14.892 -16.316,-14.925C-15.241,-15.386 -14.13,-15.725 -12.959,-15.791C-11.741,-15.859 -10.506,-16.009 -9.303,-15.883C-7.077,-15.651 -5.132,-14.616 -3.395,-13.259C-2.981,-12.936 -2.594,-12.59 -2.233,-12.222C-2.262,-12.244 -2.292,-12.267 -2.321,-12.289C-2.354,-12.255 -2.388,-12.22 -2.421,-12.186C-2.12,-11.806 -1.816,-11.429 -1.519,-11.047C-0.671,-9.955 0.057,-8.783 0.499,-7.473C0.945,-6.147 1.166,-4.792 1.124,-3.41C1.084,-3.487 1.013,-3.557 0.89,-3.614C0.839,-3.355 0.79,-3.13 0.751,-2.904C0.498,-1.421 0.049,-0.002 -0.643,1.336C-0.741,1.525 -0.815,1.801 -0.973,1.87C-1.46,2.081 -1.596,2.551 -1.876,2.916C-2.222,3.368 -2.542,3.847 -2.937,4.252C-5.282,6.646 -8.028,8.167 -11.487,8.127C-12.513,8.115 -13.527,8.049 -14.493,7.687C-15.178,7.43 -15.849,7.131 -16.516,6.831C-16.882,6.666 -17.246,6.484 -17.583,6.267C-17.651,6.224 -17.717,6.18 -17.783,6.135C-17.824,6.1 -17.866,6.066 -17.907,6.03C-18.827,5.209 -19.694,4.341 -20.4,3.32C-21.89,1.164 -22.74,-1.158 -22.324,-3.825C-22.28,-4.103 -22.21,-4.39 -22.465,-4.666C-22.541,-4.375 -22.618,-4.084 -22.694,-3.793C-22.662,-4.597 -22.546,-5.401 -22.343,-6.191C-21.682,-8.755 -20.393,-10.995 -18.266,-12.613C-15.385,-14.803 -12.114,-15.374 -8.626,-14.475C-4.226,-13.342 -0.981,-9.801 -0.186,-5.16C-0.163,-5.023 -0.095,-4.893 -0.049,-4.76C0.007,-5.068 0.047,-5.358 0,-5.633M0.886,-9.837C0.853,-9.904 0.764,-9.944 0.648,-10.041C0.664,-9.898 0.68,-9.831 0.677,-9.765C0.674,-9.699 0.652,-9.633 0.615,-9.456C-0.099,-10.672 -0.756,-11.773 -1.758,-12.648C-1.772,-12.629 -1.785,-12.61 -1.796,-12.591C-3.033,-13.977 -4.504,-15.112 -6.272,-15.855C-8.703,-16.876 -11.209,-17.538 -13.888,-17.05C-17.328,-16.422 -20.229,-14.847 -22.457,-12.126C-24.96,-9.07 -25.967,-5.541 -25.575,-1.633C-25.286,1.255 -24.14,3.817 -22.26,6.024C-20.338,8.28 -17.977,9.952 -15.101,10.707C-10.539,11.905 -6.351,10.999 -2.638,8.079C-0.604,6.481 0.882,4.503 1.476,1.966C3.092,-2.013 2.746,-5.967 0.886,-9.837" style="fill:rgb(185,23,18);fill-rule:nonzero;"/>
            </g>
            <g transform="matrix(1,0,0,1,325.942,933.516)">
                <path d="M0,-5.666C0.008,-5.37 -0.005,-5.076 -0.097,-4.791C-0.14,-4.658 -0.195,-4.527 -0.21,-4.388C-0.202,-4.345 -0.195,-4.303 -0.186,-4.252C-0.225,-4.183 -0.198,-4.08 -0.278,-4.013C-0.371,-4.081 -0.341,-4.186 -0.373,-4.269C-0.402,-4.345 -0.402,-4.434 -0.411,-4.518C-0.421,-4.608 -0.426,-4.699 -0.432,-4.79C-0.453,-4.821 -0.47,-4.852 -0.491,-4.879C-0.56,-4.969 -0.56,-5.06 -0.5,-5.153C-0.484,-5.176 -0.468,-5.199 -0.451,-5.223C-0.428,-5.237 -0.403,-5.25 -0.38,-5.265C-0.374,-5.269 -0.369,-5.274 -0.344,-5.299C-0.307,-5.376 -0.258,-5.477 -0.201,-5.596C-0.163,-5.637 -0.12,-5.701 -0.055,-5.731C-0.009,-5.723 -0.001,-5.692 0,-5.666M-2.511,-3.776C-2.551,-3.886 -2.591,-3.996 -2.627,-4.108C-2.631,-4.122 -2.616,-4.142 -2.593,-4.204C-2.535,-4.028 -2.495,-3.904 -2.47,-3.771C-2.49,-3.773 -2.509,-3.771 -2.511,-3.776M-5.087,-3.2C-5.058,-3.098 -5.017,-3.001 -4.983,-2.901C-4.975,-2.876 -4.961,-2.848 -4.986,-2.816C-5.001,-2.826 -5.026,-2.835 -5.028,-2.847C-5.049,-2.968 -5.104,-3.072 -5.165,-3.176C-5.2,-3.236 -5.22,-3.305 -5.246,-3.371C-5.294,-3.488 -5.342,-3.605 -5.408,-3.767C-5.447,-4.017 -5.521,-4.308 -5.661,-4.614C-5.661,-4.646 -5.659,-4.709 -5.662,-4.772C-5.665,-4.828 -5.673,-4.884 -5.68,-4.94C-5.687,-5 -5.708,-5.06 -5.695,-5.123C-5.647,-5.119 -5.641,-5.087 -5.634,-5.062C-5.565,-4.804 -5.497,-4.545 -5.429,-4.286C-5.413,-4.225 -5.405,-4.16 -5.381,-4.102C-5.259,-3.809 -5.174,-3.504 -5.087,-3.2M0.221,-2.741C0.236,-2.65 0.236,-2.559 0.202,-2.471C0.174,-2.399 0.148,-2.326 0.125,-2.262C0.08,-2.198 0.017,-2.185 -0.046,-2.169C-0.061,-2.143 -0.078,-2.12 -0.089,-2.095C-0.153,-1.96 -0.215,-1.673 -0.219,-1.504C-0.261,-1.434 -0.301,-1.364 -0.365,-1.308C-0.396,-1.282 -0.415,-1.242 -0.441,-1.209C-0.47,-1.171 -0.501,-1.134 -0.536,-1.091C-0.566,-1.104 -0.588,-1.114 -0.605,-1.121C-0.608,-1.14 -0.612,-1.148 -0.61,-1.154C-0.59,-1.221 -0.574,-1.29 -0.545,-1.353C-0.51,-1.431 -0.485,-1.511 -0.47,-1.594C-0.448,-1.715 -0.386,-1.817 -0.319,-1.903C-0.269,-2.029 -0.273,-2.147 -0.296,-2.266C-0.265,-2.332 -0.235,-2.396 -0.206,-2.459C-0.142,-2.494 -0.089,-2.538 -0.078,-2.595C-0.018,-2.638 0.03,-2.667 0.071,-2.703C0.106,-2.735 0.127,-2.785 0.186,-2.791C0.198,-2.774 0.218,-2.759 0.221,-2.741M1.307,-2.444C1.315,-2.345 1.263,-2.273 1.182,-2.198C1.162,-2.227 1.148,-2.237 1.147,-2.248C1.142,-2.334 1.169,-2.413 1.197,-2.499C1.22,-2.507 1.244,-2.515 1.277,-2.527C1.29,-2.494 1.305,-2.469 1.307,-2.444M-0.716,-5.51C-0.672,-5.497 -0.694,-5.473 -0.72,-5.455C-0.719,-5.473 -0.718,-5.49 -0.716,-5.51M0.801,-1.091C0.76,-1.116 0.764,-1.14 0.788,-1.163C0.848,-1.148 0.805,-1.114 0.801,-1.091M-0.772,-0.865C-0.769,-0.862 -0.765,-0.852 -0.767,-0.851C-0.779,-0.841 -0.786,-0.844 -0.787,-0.861C-0.782,-0.862 -0.775,-0.867 -0.772,-0.865M-0.02,-7.798C-0.036,-7.757 -0.042,-7.692 -0.078,-7.656C-0.132,-7.603 -0.088,-7.529 -0.142,-7.472C-0.195,-7.461 -0.256,-7.445 -0.317,-7.435C-0.327,-7.434 -0.342,-7.459 -0.354,-7.472C-0.327,-7.503 -0.305,-7.528 -0.284,-7.552C-0.317,-7.595 -0.357,-7.595 -0.411,-7.586C-0.436,-7.555 -0.466,-7.518 -0.492,-7.485C-0.481,-7.436 -0.473,-7.396 -0.467,-7.367C-0.516,-7.276 -0.61,-7.257 -0.668,-7.197C-0.736,-7.127 -0.847,-7.152 -0.918,-7.072C-0.937,-7.029 -0.96,-6.978 -0.981,-6.931C-1.027,-6.88 -1.069,-6.833 -1.094,-6.806C-1.169,-6.784 -1.216,-6.77 -1.252,-6.76C-1.337,-6.666 -1.289,-6.56 -1.319,-6.442C-1.349,-6.366 -1.407,-6.28 -1.473,-6.196C-1.541,-6.109 -1.59,-6.006 -1.637,-5.927C-1.691,-5.799 -1.738,-5.69 -1.793,-5.562C-1.795,-5.542 -1.798,-5.5 -1.802,-5.459C-1.849,-5.433 -1.891,-5.409 -1.934,-5.385C-1.981,-5.212 -2.026,-5.042 -2.072,-4.873C-2.082,-4.839 -2.088,-4.801 -2.107,-4.773C-2.152,-4.707 -2.165,-4.631 -2.183,-4.556C-2.217,-4.419 -2.253,-4.283 -2.33,-4.162C-2.344,-4.139 -2.365,-4.122 -2.387,-4.098C-2.41,-4.115 -2.433,-4.123 -2.44,-4.138C-2.461,-4.19 -2.476,-4.244 -2.494,-4.298C-2.54,-4.438 -2.571,-4.586 -2.636,-4.717C-2.731,-4.906 -2.815,-5.099 -2.884,-5.299C-2.893,-5.325 -2.906,-5.35 -2.918,-5.376C-2.961,-5.472 -3.007,-5.568 -3.048,-5.665C-3.114,-5.821 -3.17,-5.982 -3.182,-6.152C-3.193,-6.317 -3.262,-6.448 -3.386,-6.553C-3.473,-6.626 -3.543,-6.713 -3.609,-6.805C-3.708,-6.942 -3.799,-7.084 -3.902,-7.218C-3.988,-7.329 -4.083,-7.411 -4.209,-7.459C-4.275,-7.466 -4.338,-7.472 -4.396,-7.478C-4.452,-7.53 -4.503,-7.578 -4.543,-7.617C-4.61,-7.648 -4.666,-7.644 -4.723,-7.641C-4.778,-7.638 -4.834,-7.64 -4.885,-7.64C-4.92,-7.668 -4.947,-7.691 -4.974,-7.713C-5.059,-7.782 -5.156,-7.806 -5.267,-7.812C-5.458,-7.821 -5.626,-7.76 -5.798,-7.688C-5.821,-7.627 -5.843,-7.568 -5.861,-7.521C-5.936,-7.449 -6.001,-7.386 -6.057,-7.333C-6.087,-7.244 -6.122,-7.172 -6.136,-7.097C-6.163,-6.957 -6.214,-6.827 -6.271,-6.698C-6.306,-6.618 -6.325,-6.538 -6.308,-6.446C-6.289,-6.407 -6.268,-6.362 -6.241,-6.307C-6.279,-6.245 -6.227,-6.162 -6.275,-6.093C-6.31,-6.081 -6.343,-6.069 -6.378,-6.057C-6.41,-5.942 -6.39,-5.834 -6.342,-5.736C-6.307,-5.693 -6.277,-5.655 -6.249,-5.621C-6.212,-5.439 -6.211,-5.265 -6.265,-5.108C-6.26,-5.02 -6.221,-4.959 -6.195,-4.894C-6.165,-4.823 -6.138,-4.75 -6.113,-4.677C-6.106,-4.659 -6.112,-4.636 -6.112,-4.606C-6.132,-4.57 -6.157,-4.529 -6.179,-4.491C-6.177,-4.444 -6.187,-4.398 -6.133,-4.38C-6.109,-4.391 -6.085,-4.403 -6.063,-4.413C-6.012,-4.382 -6.001,-4.334 -5.993,-4.301L-5.993,-4.098C-5.94,-4.02 -5.878,-3.95 -5.84,-3.868C-5.774,-3.73 -5.68,-3.601 -5.669,-3.44C-5.667,-3.42 -5.652,-3.402 -5.645,-3.382C-5.613,-3.289 -5.581,-3.196 -5.557,-3.128C-5.572,-3.012 -5.591,-2.922 -5.593,-2.832C-5.595,-2.7 -5.516,-2.61 -5.416,-2.536C-5.375,-2.529 -5.334,-2.522 -5.299,-2.516C-5.217,-2.463 -5.183,-2.385 -5.15,-2.307C-5.086,-2.158 -5.011,-2.015 -4.924,-1.878C-4.886,-1.818 -4.852,-1.757 -4.821,-1.693C-4.806,-1.663 -4.803,-1.626 -4.795,-1.593L-4.793,-1.583L-4.795,-1.599C-4.704,-1.517 -4.649,-1.41 -4.591,-1.306C-4.532,-1.201 -4.486,-1.088 -4.417,-0.992C-4.34,-0.886 -4.295,-0.77 -4.266,-0.647C-4.252,-0.591 -4.237,-0.539 -4.196,-0.484C-4.157,-0.461 -4.109,-0.433 -4.06,-0.404C-4.045,-0.364 -4.036,-0.321 -4.014,-0.287C-3.935,-0.163 -3.882,-0.024 -3.789,0.092C-3.763,0.123 -3.753,0.167 -3.737,0.207C-3.732,0.219 -3.735,0.234 -3.734,0.243C-3.748,0.279 -3.761,0.31 -3.774,0.345C-3.72,0.4 -3.672,0.451 -3.62,0.504C-3.598,0.559 -3.574,0.617 -3.551,0.672C-3.46,0.766 -3.39,0.876 -3.267,0.927C-3.095,1.072 -2.917,1.211 -2.78,1.406C-2.767,1.534 -2.693,1.647 -2.628,1.77C-2.579,1.789 -2.527,1.809 -2.471,1.831C-2.433,1.866 -2.392,1.904 -2.348,1.946C-2.183,1.975 -2.017,2.005 -1.851,2.035C-1.743,2.084 -1.634,2.134 -1.525,2.183C-1.432,2.225 -1.336,2.233 -1.233,2.203C-1.158,2.133 -1.082,2.06 -1.013,1.994C-0.941,1.972 -0.88,1.961 -0.819,1.991C-0.809,2.019 -0.802,2.046 -0.788,2.07C-0.771,2.102 -0.744,2.124 -0.705,2.121C-0.608,2.073 -0.629,1.959 -0.565,1.877C-0.436,1.836 -0.354,1.715 -0.244,1.637C-0.225,1.569 -0.208,1.508 -0.19,1.444C-0.123,1.348 -0.052,1.25 -0.048,1.134C0.01,1.058 0.06,0.991 0.111,0.924C0.107,0.727 0.145,0.544 0.235,0.371C0.263,0.316 0.271,0.25 0.282,0.188C0.286,0.162 0.276,0.134 0.27,0.089C0.15,0.148 0.174,0.264 0.125,0.354C0.116,0.366 0.101,0.391 0.081,0.41C0.057,0.435 0.029,0.455 0.004,0.476L-0.111,0.476C-0.147,0.553 -0.182,0.629 -0.217,0.704C-0.291,0.76 -0.363,0.813 -0.424,0.858C-0.485,0.858 -0.506,0.829 -0.509,0.792C-0.511,0.751 -0.505,0.709 -0.498,0.667C-0.489,0.599 -0.475,0.532 -0.496,0.459C-0.565,0.482 -0.552,0.584 -0.633,0.578C-0.697,0.51 -0.697,0.51 -0.688,0.364C-0.593,0.242 -0.562,0.076 -0.458,-0.051C-0.438,-0.075 -0.433,-0.116 -0.429,-0.15C-0.426,-0.176 -0.436,-0.203 -0.439,-0.221C-0.478,-0.246 -0.507,-0.239 -0.523,-0.215C-0.557,-0.163 -0.585,-0.106 -0.618,-0.047C-0.648,-0.035 -0.68,-0.02 -0.713,-0.009C-0.75,0.004 -0.782,-0.004 -0.809,-0.048C-0.825,-0.128 -0.835,-0.217 -0.806,-0.302C-0.764,-0.316 -0.746,-0.291 -0.726,-0.273C-0.698,-0.248 -0.668,-0.234 -0.632,-0.252C-0.531,-0.399 -0.465,-0.561 -0.429,-0.732C-0.374,-0.811 -0.328,-0.891 -0.269,-0.96C-0.199,-1.042 -0.155,-1.137 -0.113,-1.233C-0.105,-1.25 -0.112,-1.274 -0.112,-1.304C-0.141,-1.327 -0.174,-1.353 -0.205,-1.378C-0.209,-1.426 -0.212,-1.466 -0.215,-1.506C-0.102,-1.541 -0.033,-1.617 0.024,-1.722C0.124,-1.907 0.178,-2.115 0.31,-2.285C0.326,-2.306 0.328,-2.338 0.338,-2.364C0.351,-2.396 0.365,-2.427 0.374,-2.448C0.416,-2.477 0.446,-2.494 0.484,-2.471C0.524,-2.408 0.564,-2.342 0.602,-2.28C0.627,-2.154 0.559,-2.044 0.545,-1.921C0.578,-1.87 0.611,-1.817 0.643,-1.767C0.614,-1.658 0.577,-1.557 0.592,-1.449C0.61,-1.322 0.569,-1.214 0.496,-1.113C0.479,-1.091 0.465,-1.066 0.45,-1.044C0.435,-0.974 0.421,-0.905 0.409,-0.842C0.353,-0.778 0.302,-0.72 0.255,-0.667C0.247,-0.618 0.24,-0.576 0.234,-0.536C0.193,-0.477 0.154,-0.419 0.12,-0.369C0.125,-0.253 0.125,-0.253 0.173,-0.184C0.295,-0.303 0.391,-0.434 0.434,-0.605C0.454,-0.684 0.464,-0.773 0.542,-0.847C0.56,-0.852 0.592,-0.862 0.605,-0.865C0.674,-0.851 0.701,-0.791 0.772,-0.811C0.796,-0.839 0.827,-0.876 0.855,-0.91C0.864,-0.979 0.873,-1.042 0.882,-1.108C0.948,-1.214 0.995,-1.33 1.029,-1.454C1.072,-1.609 1.129,-1.761 1.207,-1.904C1.278,-2.035 1.317,-2.177 1.352,-2.322C1.372,-2.404 1.393,-2.486 1.426,-2.564C1.471,-2.67 1.489,-2.779 1.5,-2.892C1.505,-2.948 1.498,-3.01 1.52,-3.059C1.592,-3.221 1.572,-3.409 1.667,-3.564C1.723,-3.853 1.853,-4.125 1.865,-4.425C1.866,-4.452 1.878,-4.479 1.885,-4.507C1.957,-4.78 1.999,-5.057 1.988,-5.341C1.979,-5.581 1.971,-5.82 1.97,-6.06C1.97,-6.246 1.952,-6.425 1.855,-6.566C1.837,-6.677 1.822,-6.767 1.807,-6.86C1.699,-6.95 1.647,-7.073 1.599,-7.199C1.594,-7.212 1.589,-7.225 1.584,-7.239C1.551,-7.32 1.495,-7.381 1.42,-7.426C1.353,-7.465 1.288,-7.506 1.214,-7.551L1.007,-7.551C0.953,-7.531 0.915,-7.516 0.873,-7.5C0.839,-7.519 0.804,-7.531 0.781,-7.554C0.753,-7.584 0.736,-7.625 0.711,-7.659C0.704,-7.668 0.688,-7.67 0.676,-7.675C0.627,-7.67 0.6,-7.608 0.537,-7.626C0.473,-7.658 0.463,-7.738 0.416,-7.789C0.368,-7.842 0.32,-7.894 0.223,-7.899C0.155,-7.877 0.058,-7.88 -0.02,-7.798" style="fill:white;fill-rule:nonzero;"/>
            </g>
            <g transform="matrix(1,0,0,1,325.618,935.447)">
                <path d="M0,0.164C0.012,0.173 0.028,0.183 0.052,0.2C0.151,0.086 0.151,0.086 0.19,-0.036C0.041,0.059 -0.001,0.102 0,0.164" style="fill:white;fill-rule:nonzero;"/>
            </g>
            <g transform="matrix(1,0,0,1,325.672,925.749)">
                <path d="M0,0.019C-0.031,-0.036 -0.031,-0.036 -0.1,0.001C-0.059,0.048 -0.03,0.055 0,0.019" style="fill:white;fill-rule:nonzero;"/>
            </g>
            <g transform="matrix(1,0,0,1,320.855,931.553)">
                <path d="M0,-0.014L0.01,0L0.016,-0.014L0,-0.014Z" style="fill:white;fill-rule:nonzero;"/>
            </g>
            <g transform="matrix(1,0,0,1,319.953,920.644)">
                <path d="M0,11.483L0,13.977L-4.323,13.977L-4.323,11.483L-5.204,8.495L-5.914,10.048L-5.914,10.895C-5.914,11.154 -5.85,11.295 -5.699,11.342L-5.054,11.554L-5.054,13.977L-10.43,13.977L-10.43,11.483L-9.957,11.295C-9.807,11.224 -9.742,11.107 -9.742,10.848L-9.742,0.635C-9.742,0.377 -9.828,0.259 -9.936,0.188L-10.43,0L-10.43,-2.494L-5.914,-2.494L-5.914,7.177L-4.516,4.4C-4.43,4.189 -4.473,4.024 -4.624,3.93L-5.054,3.765L-5.054,1.883L-0.022,1.883L-0.022,4.353L-0.624,4.353C-0.882,4.353 -1.011,4.471 -1.14,4.777L-1.871,6.542L-0.71,10.801C-0.602,11.154 -0.452,11.295 -0.258,11.389L0,11.483Z" style="fill:white;fill-rule:nonzero;"/>
            </g>
            <g transform="matrix(1,0,0,1,331.102,921.757)">
                <path d="M0,12.263C1.316,9.498 1.896,6.565 1.394,3.534C0.597,-1.274 -2.026,-4.84 -6.346,-7.11C-8.713,-8.353 -11.205,-8.919 -13.848,-8.408C-15.887,-8.336 -17.737,-7.859 -19.429,-7.054C-19.472,-6.981 -19.511,-6.903 -19.513,-6.776C-19.218,-6.844 -18.959,-6.898 -18.704,-6.964C-17.031,-7.394 -15.334,-7.589 -13.607,-7.492C-13.363,-7.478 -13.039,-7.53 -12.893,-7.396C-12.443,-6.986 -11.886,-7.063 -11.373,-6.941C-10.738,-6.79 -10.085,-6.681 -9.476,-6.456C-5.866,-5.122 -2.985,-2.958 -1.405,0.684C-0.936,1.765 -0.529,2.858 -0.455,4.041C-0.403,4.88 -0.402,5.722 -0.403,6.562C-0.404,7.023 -0.425,7.489 -0.493,7.945C-0.507,8.035 -0.522,8.126 -0.537,8.216C-0.555,8.276 -0.571,8.335 -0.59,8.395C-1.018,9.744 -1.521,11.059 -2.26,12.278C-3.82,14.851 -5.854,16.831 -8.843,17.646C-9.155,17.731 -9.489,17.793 -9.659,18.189C-9.318,18.132 -8.977,18.076 -8.637,18.02C-9.494,18.363 -10.391,18.619 -11.314,18.776C-14.31,19.287 -17.262,18.987 -19.955,17.517C-23.601,15.526 -25.734,12.367 -26.429,8.291C-26.452,8.154 -26.45,8.019 -26.469,7.883C-26.546,7.419 -26.59,6.954 -26.604,6.488C-26.607,6.406 -26.608,6.325 -26.609,6.243C-26.614,5.771 -26.59,5.298 -26.541,4.826C-26.516,4.563 -26.479,4.304 -26.438,4.044C-26.376,3.651 -26.298,3.26 -26.207,2.87C-26.181,2.765 -26.161,2.659 -26.131,2.554C-26.004,2.049 -25.85,1.557 -25.663,1.08C-25.671,1.118 -25.68,1.155 -25.689,1.193C-25.678,1.197 -25.666,1.201 -25.654,1.205C-24.674,-1.208 -22.975,-3.349 -20.628,-4.923C-20.496,-5.012 -20.391,-5.143 -20.273,-5.255C-20.622,-5.168 -20.945,-5.074 -21.211,-4.896C-22.651,-3.931 -23.859,-2.702 -24.806,-1.272C-26.616,1.459 -27.245,4.518 -27.016,7.766C-26.96,8.575 -26.997,9.41 -26.807,10.187C-26.243,12.489 -25,14.427 -23.384,16.138C-23.232,16.299 -23.096,16.474 -22.953,16.643C-22.987,16.673 -23.02,16.703 -23.053,16.733C-21.376,18.318 -19.388,19.473 -17.032,20.113C-13.094,21.182 -9.34,20.642 -5.821,18.623C-3.219,17.13 -1.287,14.968 0,12.263" style="fill:white;fill-rule:nonzero;"/>
            </g>
        </g>
    </g>
</svg>
