<?xml version="1.0" encoding="UTF-8" standalone="no"?>
<!DOCTYPE svg PUBLIC "-//W3C//DTD SVG 1.1//EN" "http://www.w3.org/Graphics/SVG/1.1/DTD/svg11.dtd">
<svg width="100%" height="100%" viewBox="0 0 822 1031" version="1.1" xmlns="http://www.w3.org/2000/svg" xmlns:xlink="http://www.w3.org/1999/xlink" xml:space="preserve" xmlns:serif="http://www.serif.com/" style="fill-rule:evenodd;clip-rule:evenodd;stroke-linejoin:round;stroke-miterlimit:2;">
    <g transform="matrix(1,0,0,1,-3593,-20472)">
        <g transform="matrix(8.33333,0,0,8.33333,2445.52,13445.8)">
            <g transform="matrix(0,-1,-1,0,187.016,868.32)">
                <path d="M-49.236,-49.236C-76.428,-49.236 -98.472,-27.192 -98.472,0C-98.472,27.192 -76.428,49.236 -49.236,49.236C-22.044,49.236 0,27.192 0,0C0,-27.192 -22.044,-49.236 -49.236,-49.236" style="fill:rgb(255,0,0);fill-rule:nonzero;"/>
            </g>
            <g transform="matrix(1,0,0,1,217.147,854.374)">
                <path d="M0,23.73C-0.51,23.334 -1.031,22.951 -1.563,22.581C-2.627,21.842 -3.732,21.159 -4.873,20.532C-6.013,19.906 -7.19,19.337 -8.396,18.828C-10.205,18.064 -12.08,17.436 -14.002,16.951C-14.009,16.949 -14.016,16.948 -14.023,16.946C-11.124,16.603 -8.263,15.965 -5.511,15.049C-3.943,14.527 -2.412,13.911 -0.925,13.21C-0.884,13.191 -0.844,13.168 -0.807,13.142C-0.732,13.09 -0.67,13.024 -0.636,12.945C-0.619,12.905 -0.61,12.862 -0.609,12.816C-0.609,12.661 -0.739,12.546 -0.911,12.573C-2.358,12.797 -3.8,12.802 -5.241,12.701C-6.635,12.603 -8.027,12.406 -9.419,12.212C-10.904,12.005 -12.389,11.803 -13.876,11.729C-14.596,11.694 -15.317,11.688 -16.038,11.727C-16.759,11.766 -17.481,11.85 -18.204,11.992C-18.771,12.104 -19.329,12.252 -19.87,12.44C-20.411,12.629 -20.935,12.857 -21.435,13.128C-21.333,12.869 -21.223,12.614 -21.103,12.362C-20.267,10.601 -18.995,9.032 -17.378,7.82C-17.317,7.774 -17.254,7.717 -17.21,7.651C-17.188,7.618 -17.17,7.583 -17.16,7.547C-17.15,7.51 -17.147,7.471 -17.153,7.43C-17.164,7.362 -17.202,7.306 -17.257,7.27C-17.311,7.234 -17.381,7.218 -17.454,7.229C-20.412,7.676 -23.368,8.78 -25.831,10.446C-25.489,8.844 -25.251,7.206 -25.224,5.603C-25.166,2.129 -25.436,-1.455 -26.434,-4.848C-26.536,-5.194 -26.656,-5.634 -26.802,-6.12C-27.241,-7.58 -27.913,-9.459 -29.018,-10.483C-29.509,-10.938 -30.086,-11.224 -30.766,-11.229C-30.945,-11.23 -31.123,-11.215 -31.299,-11.186C-31.65,-11.128 -31.992,-11.015 -32.315,-10.865C-32.476,-10.79 -32.633,-10.706 -32.784,-10.615C-33.027,-10.468 -33.255,-10.311 -33.472,-10.147C-33.487,-10.136 -33.502,-10.126 -33.517,-10.115C-33.725,-9.955 -33.918,-9.787 -34.097,-9.613C-34.108,-9.602 -34.122,-9.593 -34.133,-9.582C-34.133,-9.58 -34.134,-9.578 -34.135,-9.576C-34.49,-9.226 -34.785,-8.848 -35.003,-8.445C-35.002,-8.448 -35.001,-8.45 -35.001,-8.453C-35.012,-8.432 -35.02,-8.41 -35.031,-8.389C-35.083,-8.29 -35.131,-8.189 -35.174,-8.087C-35.19,-8.048 -35.203,-8.009 -35.218,-7.969C-35.252,-7.879 -35.283,-7.788 -35.31,-7.696C-35.323,-7.65 -35.333,-7.602 -35.345,-7.555C-35.366,-7.468 -35.384,-7.381 -35.397,-7.293C-35.405,-7.241 -35.412,-7.19 -35.417,-7.138C-35.427,-7.051 -35.432,-6.965 -35.435,-6.877C-35.436,-6.823 -35.437,-6.768 -35.436,-6.713C-35.434,-6.626 -35.427,-6.538 -35.418,-6.449C-35.413,-6.393 -35.408,-6.337 -35.399,-6.28C-35.385,-6.19 -35.365,-6.099 -35.344,-6.007C-35.331,-5.952 -35.321,-5.896 -35.305,-5.841C-35.277,-5.741 -35.241,-5.64 -35.204,-5.539C-35.186,-5.491 -35.172,-5.442 -35.152,-5.393C-35.091,-5.244 -35.02,-5.092 -34.938,-4.94C-34.239,-3.65 -33.465,-2.44 -32.74,-1.207C-32.014,0.026 -31.336,1.281 -30.828,2.661C-30.142,4.527 -29.585,6.454 -29.333,8.417C-29.297,8.697 -29.267,8.978 -29.244,9.26C-29.221,9.542 -29.206,9.823 -29.198,10.104C-29.178,10.881 -29.221,11.657 -29.327,12.43C-29.707,11.965 -30.155,11.545 -30.653,11.178C-31.363,10.654 -32.165,10.234 -32.974,9.923C-33.29,9.802 -33.61,9.701 -33.933,9.61C-34.034,9.582 -34.135,9.559 -34.237,9.533C-34.464,9.475 -34.692,9.423 -34.922,9.379C-35.035,9.357 -35.149,9.336 -35.263,9.317C-35.495,9.279 -35.728,9.247 -35.962,9.221C-36.063,9.209 -36.164,9.196 -36.265,9.186C-36.581,9.157 -36.898,9.136 -37.216,9.125C-37.23,9.125 -37.244,9.123 -37.258,9.123L-37.256,9.123C-38.148,9.096 -39.045,9.136 -39.935,9.221C-40.685,9.293 -41.428,9.402 -42.168,9.522C-42.951,9.573 -43.734,9.697 -44.482,9.911C-44.771,9.994 -44.902,10.571 -44.494,10.485C-44.3,10.44 -44.106,10.4 -43.911,10.363C-43.886,10.358 -43.861,10.353 -43.836,10.348C-42.32,10.068 -40.797,10.025 -39.258,10.288C-37.51,10.586 -35.868,11.247 -34.389,12.159C-34.189,12.282 -33.997,12.413 -33.808,12.548C-34.036,12.464 -34.268,12.39 -34.508,12.326C-35.423,12.081 -36.361,11.961 -37.31,11.917C-39.357,11.822 -41.426,12.019 -43.443,12.326C-45.537,12.646 -47.606,13.127 -49.613,13.768C-51.603,14.404 -53.499,15.226 -55.385,16.089C-57.48,17.048 -59.601,18.016 -61.873,18.554C-61.975,18.578 -62.094,18.659 -62.177,18.757L-62.178,18.756C-62.183,18.762 -62.186,18.769 -62.19,18.774C-62.208,18.797 -62.222,18.819 -62.234,18.843C-62.241,18.855 -62.246,18.866 -62.25,18.878C-62.259,18.901 -62.263,18.923 -62.266,18.946C-62.267,18.958 -62.269,18.97 -62.268,18.982C-62.266,19.005 -62.258,19.027 -62.247,19.049C-62.242,19.059 -62.24,19.07 -62.233,19.079C-62.21,19.11 -62.179,19.138 -62.133,19.162C-59.08,20.762 -55.434,20.718 -52.113,19.974C-50.701,19.658 -49.325,19.229 -47.958,18.775C-47.047,18.473 -46.14,18.159 -45.227,17.86C-44.771,17.71 -44.314,17.564 -43.854,17.426C-42.935,17.148 -42.007,16.897 -41.061,16.7C-40.367,16.556 -39.666,16.441 -38.961,16.367C-38.491,16.317 -38.02,16.286 -37.549,16.275C-36.841,16.259 -36.134,16.291 -35.43,16.381C-35.638,16.489 -35.842,16.604 -36.047,16.717C-37.016,17.25 -37.948,17.838 -38.84,18.476C-38.87,18.498 -38.9,18.519 -38.93,18.54C-39.346,18.841 -39.755,19.151 -40.152,19.473C-40.16,19.479 -40.167,19.486 -40.175,19.492C-40.533,19.783 -40.881,20.085 -41.223,20.393C-41.306,20.467 -41.388,20.541 -41.469,20.616C-41.817,20.938 -42.16,21.266 -42.49,21.605C-44.76,23.937 -46.594,26.639 -47.858,29.563C-48.036,29.976 -48.203,30.393 -48.357,30.814C-48.821,32.077 -49.177,33.375 -49.422,34.69C-49.43,34.733 -49.43,34.769 -49.423,34.801C-49.423,34.799 -49.422,34.797 -49.422,34.795C-49.401,34.914 -49.296,34.96 -49.173,34.954L-49.173,34.955C-49.171,34.955 -49.168,34.953 -49.165,34.953C-49.097,34.948 -49.027,34.931 -48.964,34.899C-48.961,34.898 -48.96,34.896 -48.957,34.895C-48.893,34.862 -48.837,34.819 -48.803,34.766C-45.411,29.425 -40.126,25.498 -34.696,22.062C-34.021,21.635 -33.34,21.216 -32.657,20.799C-32.035,20.421 -31.41,20.045 -30.785,19.67C-30.64,19.583 -30.495,19.495 -30.349,19.407C-30.201,19.65 -30.068,19.901 -29.929,20.148C-29.79,20.397 -29.651,20.647 -29.522,20.901C-29.438,21.067 -29.36,21.237 -29.28,21.405C-29.158,21.661 -29.037,21.918 -28.925,22.178C-28.85,22.353 -28.783,22.53 -28.713,22.707C-28.611,22.965 -28.508,23.222 -28.416,23.483C-28.35,23.673 -28.292,23.865 -28.231,24.056C-28.15,24.308 -28.066,24.56 -27.995,24.815C-27.936,25.025 -27.889,25.237 -27.837,25.449C-27.777,25.689 -27.714,25.928 -27.663,26.17C-27.613,26.409 -27.576,26.649 -27.534,26.89C-27.496,27.108 -27.452,27.325 -27.421,27.544C-27.381,27.832 -27.356,28.121 -27.327,28.41C-27.31,28.585 -27.285,28.759 -27.272,28.934C-27.238,29.4 -27.218,29.867 -27.216,30.334C-27.214,30.746 -27.229,31.158 -27.254,31.569C-27.257,31.627 -27.26,31.685 -27.264,31.742C-27.293,32.161 -27.332,32.579 -27.384,32.996C-27.397,33.105 -27.413,33.214 -27.428,33.324C-27.442,33.43 -27.454,33.536 -27.47,33.642C-27.537,34.078 -26.909,33.92 -26.796,33.636C-26.697,33.389 -26.597,33.141 -26.498,32.893C-26.3,32.396 -26.102,31.897 -25.909,31.396C-25.812,31.146 -25.716,30.894 -25.622,30.643C-25.245,29.636 -24.891,28.62 -24.587,27.594C-24.283,26.568 -24.028,25.532 -23.851,24.484C-23.674,23.436 -23.574,22.377 -23.578,21.306C-23.58,20.929 -23.595,20.553 -23.626,20.178C-23.657,19.803 -23.703,19.429 -23.763,19.057C-23.524,19.284 -23.277,19.504 -23.024,19.717C-21.252,21.211 -19.161,22.374 -16.907,23.112C-15.784,23.48 -14.619,23.746 -13.439,23.897C-13.046,23.947 -12.651,23.985 -12.254,24.009C-10.409,24.122 -8.561,23.961 -6.719,23.865C-5.943,23.825 -5.16,23.796 -4.379,23.808C-3.078,23.828 -1.783,23.961 -0.537,24.338C-0.499,24.349 -0.458,24.352 -0.414,24.348C-0.239,24.333 -0.034,24.207 0.055,24.06C0.122,23.949 0.125,23.827 0,23.73" style="fill:rgb(78,152,57);fill-rule:nonzero;"/>
            </g>
        </g>
    </g>
</svg>
