<?xml version="1.0" encoding="UTF-8" standalone="no"?>
<!DOCTYPE svg PUBLIC "-//W3C//DTD SVG 1.1//EN" "http://www.w3.org/Graphics/SVG/1.1/DTD/svg11.dtd">
<svg width="100%" height="100%" id="whatsapp_menu" viewBox="0 0 531 392" version="1.1" xmlns="http://www.w3.org/2000/svg" xmlns:xlink="http://www.w3.org/1999/xlink" xml:space="preserve" xmlns:serif="http://www.serif.com/" style="fill-rule:evenodd;clip-rule:evenodd;stroke-linejoin:round;stroke-miterlimit:2;">
    <g transform="matrix(1,0,0,1,-3260,-22245)">
        <g>
            <g transform="matrix(8.33333,0,0,8.33333,3472.73,22271.9)">
                <path d="M0,40.512C-0.387,40.585 -0.47,40.565 -1.167,40.224C-0.745,40.328 -0.373,40.42 0,40.512M20.206,35.525C20.196,35.532 20.186,35.539 20.176,35.545C20.182,35.531 20.188,35.516 20.195,35.503L20.204,35.521C20.201,35.515 20.195,35.503 20.195,35.503C20.206,35.503 20.217,35.502 20.227,35.501C20.22,35.509 20.213,35.517 20.206,35.525M20.227,35.501C20.754,34.899 21.28,34.296 21.807,33.694C21.853,33.734 21.899,33.774 21.946,33.815C21.596,34.203 21.264,34.61 20.892,34.974C20.692,35.169 20.57,35.488 20.227,35.501M11.492,40.635C11.695,40.598 11.899,40.562 12.103,40.526C11.919,40.663 11.739,40.83 11.492,40.635M12.52,40.311C12.535,40.351 12.55,40.39 12.565,40.429C12.44,40.45 12.315,40.471 12.19,40.492C12.3,40.432 12.41,40.372 12.52,40.311M23.177,29.173C23.27,28.929 23.358,28.683 23.44,28.435C23.638,28.083 23.823,27.727 23.997,27.366C23.753,27.982 23.481,28.586 23.177,29.173M17.721,36.548C17.855,36.394 17.926,36.311 17.986,36.243C18.629,35.743 19.257,35.228 19.801,34.635C20.609,33.756 21.304,32.819 21.892,31.834C22.108,31.532 22.316,31.222 22.512,30.903C22.576,30.799 22.681,30.721 22.767,30.632C22.472,32.029 19.309,35.7 17.721,36.548M16.512,33.914C16.568,33.961 16.625,34.018 16.685,34.083C16.647,34.115 16.609,34.146 16.571,34.178C16.188,34.366 15.81,34.552 15.432,34.737C15.803,34.475 16.163,34.201 16.512,33.914M15.635,33.948C15.707,33.88 15.777,33.826 15.846,33.789C15.776,33.843 15.706,33.897 15.636,33.951C15.636,33.95 15.635,33.949 15.635,33.948M19.956,30.098C19.659,30.643 19.331,31.182 18.972,31.714C18.522,32.122 18.191,32.41 17.925,32.613C18.669,31.848 19.346,31.01 19.956,30.098M26.095,25.26C26.137,25.149 26.179,25.037 26.221,24.925C26.225,24.927 26.23,24.929 26.234,24.931C26.192,25.042 26.15,25.154 26.108,25.266C26.104,25.264 26.1,25.262 26.095,25.26M25.738,20.812C25.742,20.859 25.747,20.906 25.751,20.953C25.826,21.914 25.701,22.861 25.286,23.746C25.513,22.797 25.664,21.819 25.738,20.812M12.01,38.559C12.198,38.493 12.388,38.435 12.58,38.381C12.416,38.496 12.268,38.534 12.01,38.559M11.743,38.695C11.671,38.721 11.596,38.738 11.514,38.73C11.619,38.695 11.725,38.658 11.83,38.621C11.803,38.652 11.776,38.683 11.743,38.695M6.234,38.088C6.735,38.054 7.234,37.997 7.732,37.917C7.862,37.924 7.991,37.928 8.121,37.932C7.497,38.02 6.867,38.075 6.234,38.088M28.766,17.152C28.8,17.144 28.833,17.136 28.866,17.128C28.901,17.223 28.962,17.317 28.967,17.414C29.005,18.062 29.045,18.711 29.051,19.359C29.053,19.497 28.943,19.637 28.871,19.776C28.836,18.901 28.801,18.027 28.766,17.152M25.649,16.966C25.701,17.328 25.753,17.691 25.805,18.053C25.788,18.056 25.771,18.058 25.753,18.06C25.729,17.691 25.695,17.326 25.649,16.966M23.362,10.187C23.385,10.175 23.407,10.163 23.43,10.15C23.49,10.254 23.55,10.358 23.611,10.461C23.585,10.476 23.559,10.49 23.534,10.504C23.477,10.398 23.419,10.293 23.362,10.187M1.907,1.547C3.211,1.222 4.542,0.983 5.88,1.04C7.358,1.103 8.871,1.019 10.286,1.612C11.196,1.631 12.013,1.973 12.832,2.303C12.259,2.168 11.677,2.064 11.087,1.989C10.754,1.896 10.42,1.813 10.085,1.738C9.911,1.698 9.736,1.659 9.56,1.624C9.23,1.557 8.9,1.507 8.569,1.467C7.456,1.317 6.334,1.273 5.204,1.336C5.013,1.336 4.821,1.337 4.63,1.337C3.616,1.337 2.635,1.424 1.688,1.601C1.761,1.583 1.834,1.565 1.907,1.547M16.529,3.329C16.424,3.268 16.346,3.161 16.256,3.075L16.345,2.95C17.207,3.59 18.259,3.956 18.922,4.906C18.765,4.822 18.557,4.777 18.46,4.647C17.961,3.987 17.203,3.724 16.529,3.329M14.999,2.385C15.004,2.37 15.01,2.354 15.016,2.339C15.17,2.397 15.324,2.455 15.477,2.512C15.472,2.528 15.466,2.543 15.46,2.558C15.306,2.501 15.152,2.443 14.999,2.385M20.382,6.149C20.339,6.176 20.295,6.203 20.252,6.23C19.899,5.923 19.546,5.616 19.193,5.309C19.232,5.265 19.272,5.222 19.311,5.178C19.668,5.502 20.025,5.825 20.382,6.149M-1.881,-1.005C-2.197,-0.863 -2.513,-0.72 -2.829,-0.578C-2.841,-0.604 -2.853,-0.63 -2.864,-0.655C-2.544,-0.788 -2.223,-0.92 -1.903,-1.052C-1.895,-1.036 -1.888,-1.021 -1.881,-1.005M-13.667,11.678C-14.153,13.177 -14.701,14.659 -14.96,16.224C-14.981,16.355 -15.056,16.477 -15.114,16.602C-15.018,15.879 -14.976,15.142 -14.805,14.437C-14.546,13.374 -14.202,12.331 -13.569,11.304C-13.617,11.489 -13.637,11.585 -13.667,11.678M17.038,0.357C16.301,0.08 15.558,-0.178 14.83,-0.476C13.24,-1.127 11.616,-1.653 9.916,-1.938C9.508,-2.006 9.107,-2.119 8.703,-2.211C10.647,-2.368 14.164,-1.266 17.038,0.357M-0.182,43.127C1.762,43.835 3.79,43.786 5.784,43.794C8.031,43.803 11.092,43.132 11.626,42.619C11.028,42.737 10.431,42.855 9.833,42.972C9.822,42.929 9.811,42.886 9.801,42.843C10.107,42.752 10.412,42.657 10.72,42.569C13.128,41.879 15.531,41.183 17.548,39.584C18.2,39.067 18.928,38.644 19.587,38.135C22.096,36.198 24.22,33.919 25.779,31.135C26.482,29.879 26.921,28.521 27.423,27.186C27.959,25.759 28.209,24.264 28.401,22.76C28.525,21.789 28.452,20.787 28.879,19.866C28.88,19.864 28.88,19.862 28.88,19.861C28.932,19.971 29.005,20.081 28.999,20.187C28.981,20.49 28.89,20.79 28.871,21.093C28.786,22.466 28.692,23.836 28.359,25.178C28.341,25.253 28.391,25.345 28.432,25.537C28.691,24.999 28.666,24.437 29.166,24.167C29.206,24.145 29.212,24.047 29.219,23.983C29.29,23.335 29.38,22.687 29.417,22.037C29.45,21.474 29.41,20.908 29.423,20.344C29.433,19.935 29.541,19.52 29.496,19.12C29.347,17.817 29.148,16.52 28.968,15.221C28.976,15.184 28.982,15.146 28.99,15.108C28.982,15.146 28.976,15.184 28.969,15.221C29.062,15.303 29.155,15.384 29.249,15.466L29.355,15.422C29.299,15.2 29.242,14.977 29.186,14.755C29.147,14.757 29.109,14.76 29.07,14.762C29.051,14.833 29.033,14.904 29.014,14.974C28.879,14.632 28.712,14.297 28.615,13.943C27.886,11.292 26.774,8.819 25.138,6.604C24.488,5.724 23.735,4.92 23.053,4.062C22.099,2.861 20.855,1.988 19.64,1.102C18.6,0.344 17.438,-0.243 16.343,-0.927C15.381,-1.527 14.361,-1.961 13.245,-2.171C12.901,-2.236 12.561,-2.327 12.219,-2.407C11.347,-2.609 10.485,-2.882 9.602,-3C7.175,-3.323 4.768,-3.272 2.339,-2.794C-1.977,-1.946 -5.774,-0.169 -8.987,2.862C-10.919,4.684 -12.558,6.726 -13.922,8.995C-15.195,11.113 -15.871,13.462 -16.383,15.845C-16.953,18.496 -16.841,21.17 -16.298,23.822C-16.249,24.064 -16.335,24.441 -15.879,24.432C-15.839,24.432 -15.783,24.56 -15.759,24.637C-15.641,25.013 -15.505,25.386 -15.423,25.77C-15.008,27.727 -14.136,29.508 -13.221,31.253C-12.001,33.577 -10.25,35.487 -8.17,37.081C-7.743,37.409 -7.229,37.626 -6.746,37.875C-6.652,37.924 -6.513,37.885 -6.347,37.888C-6.471,37.463 -6.784,37.274 -7.058,37.086C-8.06,36.398 -8.894,35.542 -9.722,34.66C-11.44,32.829 -12.771,30.754 -13.823,28.489C-13.913,28.295 -13.958,28.077 -14.005,27.866C-14.061,27.613 -14.063,27.344 -14.147,27.103C-14.679,25.561 -15.052,23.985 -15.236,22.364C-15.258,22.17 -15.318,21.981 -15.358,21.788C-15.441,21.385 -15.59,20.982 -15.592,20.578C-15.599,19.544 -15.701,18.535 -16.026,17.547C-16.084,17.371 -16.053,17.034 -15.943,16.964C-15.705,16.815 -15.695,16.621 -15.673,16.409C-15.498,14.799 -14.96,13.295 -14.339,11.815C-14.297,11.716 -14.222,11.631 -14.194,11.587C-14.687,13.457 -15.197,15.356 -15.683,17.261C-15.79,17.679 -15.712,18.1 -15.456,18.544C-15.337,17.873 -15.231,17.274 -15.126,16.677C-15.097,16.781 -15.051,16.886 -15.058,16.987C-15.113,17.75 -15.191,18.51 -15.244,19.272C-15.352,20.851 -14.955,22.366 -14.636,23.889C-14.602,24.055 -14.514,24.226 -14.405,24.355C-14.326,24.447 -14.174,24.493 -14.046,24.525C-13.874,24.57 -13.693,24.582 -13.459,24.616C-13.472,24.346 -13.473,24.13 -13.494,23.917C-13.613,22.761 -13.723,21.612 -13.721,20.443C-13.718,17.778 -13.325,15.197 -12.367,12.71C-12.08,11.964 -11.811,11.206 -11.483,10.479C-11.645,10.986 -11.662,11.471 -11.446,11.825C-11.39,11.823 -11.303,11.844 -11.28,11.814C-10.458,10.745 -10.375,9.261 -9.362,8.293C-9.288,8.223 -9.276,8.083 -9.226,7.948C-9.765,8.062 -10.406,8.624 -10.887,9.311C-10.224,8.142 -9.43,7.067 -8.392,6.155C-7.757,5.598 -7.134,5.028 -6.486,4.49C-6.448,4.53 -6.411,4.571 -6.373,4.612C-5.834,4.2 -5.311,3.767 -4.755,3.383C-3.708,2.66 -3.466,2.501 -3.356,2.274C-3.021,2.061 -2.68,1.859 -2.328,1.679C-0.937,0.964 0.569,0.534 2.102,0.216C2.271,0.181 2.469,0.119 2.615,0.173C2.989,0.311 3.347,0.235 3.717,0.198C6.023,-0.031 8.318,-0.017 10.575,0.59C11.06,0.721 11.555,0.849 11.95,1.182C11.259,1.052 10.591,0.859 9.911,0.72C9.529,0.642 9.098,0.737 8.744,0.605C8.225,0.411 7.711,0.447 7.19,0.435C6.709,0.425 6.228,0.416 5.747,0.42C5.485,0.422 5.222,0.439 4.962,0.47C4.397,0.539 3.83,0.599 3.271,0.701C2.394,0.862 1.523,1.054 0.649,1.235C0.607,1.243 0.565,1.263 0.528,1.284C-0.731,1.998 -1.99,2.711 -3.246,3.429C-3.339,3.482 -3.416,3.565 -3.497,3.638C-3.574,3.709 -3.65,3.782 -3.726,3.854C-4.274,4.233 -4.806,4.657 -5.321,5.126C-5.636,5.365 -5.951,5.605 -6.264,5.847C-6.32,5.89 -6.341,5.979 -6.395,6.077C-6.363,6.084 -6.333,6.088 -6.303,6.091C-6.864,6.68 -7.4,7.296 -7.94,7.906C-9.666,9.853 -10.951,12.072 -11.607,14.6C-12.003,16.122 -12.187,17.7 -12.438,19.257C-13.093,23.311 -11.055,30.762 -7.286,34.047C-5.806,35.337 -4.31,36.535 -2.398,37.075C-2.227,37.123 -2.04,37.112 -1.743,37.139C-1.866,36.834 -1.936,36.658 -1.999,36.503C-1.697,36.51 -1.43,36.577 -1.202,36.504C-0.962,36.427 -0.759,36.217 -0.434,35.992C-1.299,35.313 -2.141,34.651 -3,33.976C-2.85,33.972 -2.7,33.968 -2.549,33.964C-2.521,33.987 -2.492,34.011 -2.463,34.034C-0.382,35.712 1.952,36.865 4.57,37.467C4.759,37.51 4.947,37.55 5.136,37.588C5.059,37.585 4.982,37.583 4.906,37.579C3.347,37.494 1.801,37.248 0.222,37.07C0.534,37.46 0.531,37.47 1.041,37.6C1.086,37.612 1.13,37.622 1.175,37.633C1.173,37.645 1.171,37.657 1.169,37.669C1.122,37.667 1.077,37.672 1.036,37.686C0.578,37.842 0.14,37.805 -0.311,37.697C-0.338,37.69 -0.387,37.78 -0.477,37.885C-0.072,38.037 0.308,38.147 0.656,38.32C0.99,38.486 1.431,38.398 1.804,38.8C1.784,38.816 1.764,38.835 1.745,38.854C1.118,38.811 0.596,38.775 -0.029,38.731C0.138,38.894 0.209,39.01 0.312,39.057C0.928,39.338 1.542,39.625 2.173,39.868C3.684,40.45 5.285,40.325 6.854,40.394C7.61,40.428 8.375,40.247 9.136,40.157C10.922,39.945 12.581,39.302 14.23,38.63C14.351,38.581 14.463,38.508 14.576,38.442C15.138,38.113 15.697,37.78 16.261,37.455C16.376,37.454 16.469,37.425 16.54,37.367C16.616,37.306 16.692,37.245 16.768,37.184C16.854,37.152 16.935,37.137 16.988,37.164C17.308,37.323 17.487,37.113 17.695,36.979C19.034,36.118 20.201,35.061 21.226,33.844C21.38,33.661 21.538,33.473 21.725,33.326C22.357,32.83 22.824,32.195 23.249,31.53C24.14,30.136 24.822,28.641 25.379,27.085C25.494,26.764 25.675,26.467 25.826,26.159C25.752,26.777 25.595,27.359 25.393,27.925C25.076,28.81 24.804,29.723 24.379,30.556C23.467,32.341 22.222,33.899 20.855,35.362C20.484,35.76 20.201,36.246 19.809,36.619C18.479,37.888 16.916,38.823 15.288,39.657C15.214,39.695 15.129,39.712 14.904,39.788C15.107,39.532 15.201,39.358 15.343,39.246C15.582,39.057 15.845,38.896 16.108,38.743C17.538,37.912 18.823,36.89 20.05,35.79C20.114,35.733 20.14,35.634 20.176,35.545C19.879,35.745 19.571,35.93 19.291,36.15C17.126,37.857 14.833,39.304 12.142,40.074C9.958,40.699 7.757,41.103 5.486,41.116C5.279,41.118 5.072,41.149 4.865,41.166C4.941,41.314 5.027,41.386 5.114,41.388C5.529,41.396 5.944,41.387 6.36,41.381C8.087,41.357 9.762,40.977 11.444,40.644C11.303,40.738 11.171,40.86 11.017,40.907C10.452,41.081 9.845,41.154 9.318,41.401C8.868,41.612 8.42,41.74 7.943,41.794C6.19,41.992 4.438,41.977 2.687,41.756C0.447,41.473 -1.692,40.835 -3.753,39.923C-3.892,39.861 -4.067,39.75 -4.182,39.789C-4.726,39.974 -5.102,39.643 -5.523,39.422C-5.994,39.176 -6.435,38.852 -7.048,38.722C-6.949,39.219 -6.631,39.446 -6.312,39.65C-4.901,40.554 -3.396,41.268 -1.815,41.821C-1.651,41.879 -1.433,41.907 -1.342,42.027C-1.049,42.411 -0.616,42.496 -0.207,42.643C-0.148,42.664 -0.096,42.703 -0.036,42.736C-0.082,42.86 -0.126,42.976 -0.182,43.127" style="fill:rgb(140,12,12);fill-rule:nonzero;"/>
            </g>
            <g transform="matrix(8.33333,0,0,8.33333,3271.39,22249.2)">
                <path d="M0,11.728C-0.755,11.728 -1.367,11.116 -1.367,10.361L-1.367,0L8.416,0C9.171,0 9.783,0.612 9.783,1.367C9.783,2.122 9.171,2.734 8.416,2.734L1.367,2.734L1.367,10.361C1.367,11.116 0.755,11.728 0,11.728" style="fill:white;fill-rule:nonzero;"/>
            </g>
            <g transform="matrix(8.33333,0,0,8.33333,3341.53,22516.9)">
                <path d="M0,11.728L-9.783,11.728L-9.783,1.367C-9.783,0.612 -9.171,0 -8.416,0C-7.662,0 -7.05,0.612 -7.05,1.367L-7.05,8.995L0,8.995C0.755,8.995 1.367,9.607 1.367,10.361C1.367,11.116 0.755,11.728 0,11.728" style="fill:white;fill-rule:nonzero;"/>
            </g>
            <g transform="matrix(8.33333,0,0,8.33333,3779.42,22249.2)">
                <path d="M0,11.728C-0.755,11.728 -1.367,11.116 -1.367,10.361L-1.367,2.734L-8.416,2.734C-9.17,2.734 -9.782,2.122 -9.782,1.367C-9.782,0.612 -9.17,0 -8.416,0L1.367,0L1.367,10.361C1.367,11.116 0.755,11.728 0,11.728" style="fill:white;fill-rule:nonzero;"/>
            </g>
            <g transform="matrix(8.33333,0,0,8.33333,3790.81,22516.9)">
                <path d="M0,11.728L-9.782,11.728C-10.537,11.728 -11.149,11.116 -11.149,10.361C-11.149,9.607 -10.537,8.995 -9.782,8.995L-2.733,8.995L-2.733,1.367C-2.733,0.612 -2.121,0 -1.367,0C-0.612,0 0,0.612 0,1.367L0,11.728Z" style="fill:white;fill-rule:nonzero;"/>
            </g>
            <g transform="matrix(8.33333,0,0,8.33333,3482.18,22482.7)">
                <path d="M0,-13.085C1.004,-13.795 1.579,-12.75 2.202,-12.349C2.794,-11.967 1.993,-11.669 1.776,-11.401C0.145,-9.382 0.236,-7.219 2.049,-5.344C3.523,-3.82 5.061,-2.432 7.665,-2.428C8.135,-2.382 8.832,-2.648 9.5,-2.961C9.954,-3.173 10.279,-3.127 10.675,-2.818C11.753,-1.977 11.777,-1.672 10.758,-0.751C9.299,0.568 7.652,0.941 5.815,0.195C2.797,-1.031 0.312,-2.928 -1.447,-5.709C-3.062,-8.262 -2.471,-11.339 0,-13.085M7.497,2.251C8.37,2.206 9.237,2.112 10.03,1.712C11.487,0.978 13.1,0.095 13.356,-1.523C13.611,-3.141 11.885,-3.913 10.765,-4.844C10.698,-4.899 10.625,-4.948 10.551,-4.994C10.1,-5.275 9.684,-5.32 9.26,-4.904C8.117,-3.782 6.85,-3.926 5.551,-4.595C4.727,-5.019 4.072,-5.653 3.428,-6.305C1.897,-7.859 1.887,-9.091 3.407,-10.665C5.016,-12.333 4.99,-12.587 3.058,-13.861C2.696,-14.1 2.268,-14.255 1.944,-14.535C1.012,-15.342 0.069,-15.05 -0.814,-14.547C-2.834,-13.396 -4.333,-10.168 -4.015,-7.807C-3.438,-3.524 3.177,2.257 7.497,2.251" style="fill:white;fill-rule:nonzero;"/>
            </g>
            <g transform="matrix(8.33333,0,0,8.33333,3647.12,22432.2)">
                <path d="M0,0.759C-0.243,4.228 -1.375,7.43 -3.739,10.026C-6.94,13.542 -11.03,15.058 -15.75,14.728C-21.706,14.311 -26.742,10.508 -28.874,4.701C-28.937,4.529 -29.054,4.378 -29.146,4.216C-29.145,4.628 -29.128,5.012 -29.001,5.356C-28.319,7.219 -27.278,8.895 -25.945,10.335C-23.398,13.087 -20.167,14.613 -16.493,15.239C-15.578,15.395 -14.66,15.662 -13.744,15.661C-11.032,15.658 -8.54,14.8 -6.2,13.466C-5.981,13.341 -5.749,13.237 -5.522,13.124C-5.493,13.179 -5.463,13.234 -5.433,13.289C-5.525,13.352 -5.615,13.417 -5.708,13.478C-6.986,14.33 -8.342,15.033 -9.84,15.396C-11.397,15.774 -12.957,16.262 -14.541,16.386C-15.841,16.488 -17.105,16.363 -18.336,16.086C-18.056,15.945 -17.774,15.819 -17.49,15.727C-18.889,15.414 -20.251,15.02 -21.576,14.551C-21.708,14.634 -21.858,14.715 -21.998,14.797C-22.267,14.67 -22.535,14.54 -22.8,14.401C-22.933,14.332 -23.049,14.243 -23.179,14.171C-23.173,14.099 -23.153,14.02 -23.151,13.949C-23.577,13.775 -23.98,13.563 -24.397,13.374C-24.37,13.331 -24.342,13.289 -24.314,13.247C-24.793,12.828 -25.275,12.413 -25.75,11.99C-27.105,10.781 -28.326,9.44 -29.207,7.853C-30.1,6.246 -30.708,4.547 -30.983,2.752C-30.912,2.841 -30.805,2.915 -30.632,2.959C-30.628,2.613 -30.618,2.311 -30.622,2.009C-30.648,0.032 -30.405,-1.907 -29.83,-3.802C-29.748,-4.069 -29.718,-4.443 -29.53,-4.57C-28.952,-4.959 -28.888,-5.599 -28.613,-6.136C-28.273,-6.802 -27.974,-7.498 -27.559,-8.115C-25.099,-11.767 -21.913,-14.386 -17.435,-15.157C-16.106,-15.386 -14.781,-15.543 -13.446,-15.304C-12.499,-15.135 -11.562,-14.909 -10.628,-14.68C-10.116,-14.554 -9.603,-14.405 -9.116,-14.206C-9.018,-14.166 -8.922,-14.125 -8.825,-14.083C-8.764,-14.047 -8.702,-14.013 -8.641,-13.976C-7.257,-13.135 -5.93,-12.22 -4.775,-11.068C-2.336,-8.637 -0.685,-5.84 -0.588,-2.294C-0.577,-1.925 -0.6,-1.537 -0.205,-1.241C-0.176,-1.635 -0.146,-2.029 -0.117,-2.423C0.033,-1.377 0.075,-0.31 0,0.759M-23.543,15.639C-23.457,15.436 -23.412,15.253 -23.356,15.066C-23.214,15.153 -23.063,15.227 -22.919,15.31C-23.124,15.419 -23.322,15.526 -23.543,15.639M3.092,-5.9C2.03,-9.563 -0.06,-12.6 -3.015,-15.004C-6.035,-17.462 -9.483,-19.06 -13.38,-19.351C-19.559,-19.813 -24.754,-17.645 -28.858,-12.989C-31.105,-10.439 -32.554,-7.531 -32.717,-4.111C-33.859,1.415 -32.47,6.441 -29.145,10.999C-29.087,11.078 -28.962,11.109 -28.789,11.207C-28.844,11.025 -28.881,10.942 -28.892,10.856C-28.904,10.77 -28.891,10.68 -28.886,10.442C-28.562,10.816 -28.245,11.178 -27.926,11.529C-28.204,11.362 -28.496,11.218 -28.769,11.044C-28.269,11.626 -27.735,12.187 -27.156,12.723C-26.471,13.356 -26.272,13.959 -26.439,14.827C-26.644,15.892 -26.732,16.98 -26.925,18.048C-27.103,19.03 -26.514,19.651 -25.947,20.27C-25.68,20.563 -25.244,20.572 -24.956,20.284C-23.669,18.994 -21.817,18.629 -20.442,17.509C-20.122,17.249 -19.8,17.01 -19.476,16.783C-19.14,16.881 -18.812,16.994 -18.464,17.07C-15.08,17.811 -11.684,18.07 -8.34,16.802C-4.044,15.172 -0.671,12.446 1.561,8.399C4.067,3.855 4.529,-0.945 3.092,-5.9" style="fill:white;fill-rule:nonzero;"/>
            </g>
        </g>
    </g>
</svg>
