<svg class="img-fluid" id="outputsvg" xmlns="http://www.w3.org/2000/svg" style="" width="512" height="512" viewBox="0 0 5120 5120"><g id="l6B3c7cS1WqfZaVh9CLQfVG" fill="rgb(0,0,0)" style="transform: none;"><g style="transform: none;"><path id="pL5OvhrVn" d="M2415 5029 c-344 -19 -685 -114 -1004 -280 -73 -38 -138 -69 -144 -69 -6 0 -255 79 -552 175 -298 96 -553 175 -567 175 -28 0 -59 -28 -60 -56 -1 -11 81 -268 182 -572 l183 -553 -22 -37 c-59 -97 -175 -351 -215 -469 -88 -260 -127 -495 -127 -778 0 -344 50 -612 173 -920 126 -317 299 -576 553 -830 258 -259 520 -432 847 -559 297 -117 572 -168 898 -168 405 0 755 84 1118 266 238 120 421 254 627 461 220 220 346 395 480 670 189 387 267 778 243 1221 -17 328 -95 625 -243 929 -134 275 -260 450 -480 670 -220 220 -395 346 -670 480 -289 141 -601 226 -885 240 -58 3 -127 7 -155 9 -27 1 -108 -1 -180 -5z m424 -154 c528 -66 984 -288 1361 -665 310 -309 511 -662 615 -1084 47 -192 65 -342 65 -556 0 -377 -73 -694 -234 -1025 -123 -251 -262 -445 -461 -641 -175 -173 -373 -314 -595 -425 -331 -165 -650 -239 -1030 -239 -326 0 -610 55 -895 175 -667 279 -1180 870 -1354 1561 -50 198 -63 294 -68 525 -4 167 -2 245 11 348 39 303 149 628 299 884 32 53 57 101 57 107 0 7 -7 24 -15 38 -15 27 -316 954 -311 959 1 2 218 -69 482 -157 263 -88 491 -160 505 -160 15 0 56 18 91 39 282 171 639 288 988 324 99 10 378 5 489 -8z"></path><path id="pboy3PuyX" d="M3029 3765 c-348 -55 -779 -245 -1081 -477 -506 -390 -843 -1012 -764 -1410 32 -163 121 -324 241 -436 95 -89 110 -95 243 -100 140 -5 188 7 248 62 41 38 53 64 161 326 159 390 160 405 22 559 -85 94 -111 137 -103 166 19 61 164 230 282 328 170 141 404 271 492 272 l45 0 67 -99 c37 -54 77 -110 90 -124 30 -32 94 -62 136 -62 18 0 167 20 330 46 333 51 381 66 432 135 35 49 85 249 75 302 -9 48 -92 197 -144 259 -98 116 -230 207 -360 248 -76 24 -274 26 -412 5z m386 -165 c138 -53 268 -165 341 -296 l37 -67 -16 -100 c-9 -56 -22 -107 -31 -115 -17 -17 -557 -104 -621 -100 -39 3 -42 7 -107 102 -37 54 -77 110 -90 123 -41 44 -97 67 -164 67 -54 0 -75 -8 -187 -61 -151 -73 -241 -130 -363 -229 -164 -132 -341 -340 -365 -427 -24 -89 -1 -144 116 -278 44 -50 83 -103 87 -117 6 -19 -19 -89 -108 -306 -63 -155 -122 -287 -131 -293 -11 -9 -53 -13 -117 -13 l-101 0 -81 84 c-96 98 -155 206 -180 326 -50 240 83 593 349 925 85 106 270 284 382 367 269 200 648 369 955 424 117 21 320 13 395 -16z"></path></g></g></svg>